<svg xmlns="http://www.w3.org/2000/svg" width="96.384" height="114.624" viewBox="0 0 72.288 85.968"><path fill="#fff" d="M54.728 4.308q.309.2.607.453c.048.041.12.076.169.134q.042.05.065.057c.107.036.184.167.27.223q.096.06.168.134c.234.24.616.546.862.782a21.5 21.5 0 0 1 2.075 2.305l.522.674q.22.297.483.695a25 25 0 0 1 1.815 3.249 34 34 0 0 1 1.303 3.198 54 54 0 0 1 1.305 4.31 71 71 0 0 1 .759 3.248l.35 1.686c.094.445.212 1.103.337 1.683q.084.384.151.739.467 2.422.95 4.462a47 47 0 0 0 1.318 4.513c.327.948.677 1.76 1.115 2.83q.175.427.371.885.57 1.328 1.048 2.655.373 1.04.54 2.037.046.27.082.846.027.43-.01.848-.077.912-.164 1.278a9 9 0 0 1-1.808 3.676q-.57.7-1.11 1.242-.701.7-1.017 1.046a9.3 9.3 0 0 0-2.068 3.636 11 11 0 0 0-.388 1.958 29 29 0 0 0-.127 1.583 81 81 0 0 0-.098 3.192l-.004.345q.01.033-.002.036l.01.508v.02a.14.14 0 0 0 0 .062.27.27 0 0 0 .007.148l.007.33q-.015.05.005.078.019.445.1.885.135.716.317 1.31c.132.43.303.97.408 1.287.526 1.586.987 3.099 1.287 4.694q.29 1.532.171 3.09a7.3 7.3 0 0 1-.343 1.73 6.24 6.24 0 0 1-1.902 2.861q-.693.593-1.495.983-.945.459-2.104.745a2.4 2.4 0 0 1-.537.071q-2.35.032-4.51.001a1.7 1.7 0 0 1-.33-.027 4 4 0 0 1-.714-.286 1 1 0 0 0-.155-.059.5.5 0 0 1-.148-.075 4 4 0 0 0-.363-.266 6 6 0 0 1-.52-.439 5 5 0 0 1-1.055-1.364 6 6 0 0 1-.571-1.598A8.4 8.4 0 0 1 52 77.64q.063-1.543.332-3.16.269-1.608.488-2.717.337-1.693.653-3.385.065-.024.046-.115a2 2 0 0 1-.024-.159q-.001-.03.027-.02l.013.004q.026.003.028-.023.008-.135.057-.347.06-.26.127-.99c.018-.192-.01-.333-.162-.44-.14-.097-.358-.002-.61.053q-.202.046-.398.058-.378.026-.534.032a3.9 3.9 0 0 1-2.178-.541 6.5 6.5 0 0 1-.736-.548c-.124-.101-.231-.032-.246.112q-.065.64-.146 1.124a9.6 9.6 0 0 1-.517 1.881 5.5 5.5 0 0 1-1.526 2.204q-.37.322-.787.544a4.7 4.7 0 0 1-1.668.517 3 3 0 0 1-.466.001 4 4 0 0 0-.779.03l-.008-.012q-.006-.01.006-.01.052.004.069-.028.012-.025-.015-.028a.8.8 0 0 0-.32.02q-.039.01-.013-.02l.013-.017q.025-.03-.011-.034a.4.4 0 0 0-.208.026q-.018.008-.029-.01-.007-.012-.003-.02.034-.066-.032-.047l-.086.025q-.026.007-.022-.018l.004-.025q.001-.017-.012-.024-.037-.02-.124.021-.026.012-.036-.01l-.017-.041q-.009-.024-.036-.024-.046-.003-.062-.021-.008-.011-.019-.017-.013-.008-.02-.005l-.068-.008a.2.2 0 0 1-.062-.022 6 6 0 0 0-.334-.171l-.164-.05a.35.35 0 0 1-.15-.105.1.1 0 0 0-.039-.025.3.3 0 0 1-.127-.088q-.004-.006-.012-.008c-.008-.002-.01 0-.014.003l-.013.007q-.009.005-.018-.001l-.123-.09-.392-.352h-.002q-.041-.01-.057-.03l-.516-.648q-.002-.025-.023-.036a.1.1 0 0 1-.022-.037q-.002-.024-.023-.028a.5.5 0 0 1-.078-.139q.002-.047-.022-.042a1.2 1.2 0 0 1-.229-.409 8 8 0 0 0-.092-.272 2 2 0 0 1-.085-.276q-.005-.024-.037-.036l-.013-.013q.036-.09-.024-.112-.022-.01-.02.027-.01.01-.018.008-.006 0-.008-.012a.2.2 0 0 1 .005-.056.1.1 0 0 0-.002-.047 8 8 0 0 1-.231-1.8q-.002-.1.046-1.093.015-.318.069-.957.07-.848.134-1.984.018-.315.001-.497a4 4 0 0 0-.07-.493c-.04-.175-.146-.337-.344-.347a.36.36 0 0 0-.31.133q-.096.117-.193.35-.138.332-.214.685-.102.478-.18 1.025a52 52 0 0 0-.373 3.54 114 114 0 0 0-.246 4.186l-.144 3.913a36 36 0 0 1-.284 3.46q-.168 1.245-.513 2.381a9.3 9.3 0 0 1-.598 1.474c-.705 1.4-1.914 2.564-3.386 3.118a7 7 0 0 1-1.794.41q-.75.073-1.734.005a1.3 1.3 0 0 1-.4-.085.1.1 0 0 0-.052-.01.26.26 0 0 1-.163-.036.06.06 0 0 0-.043-.012l-.116.009q-.021 0-.037-.02-.059-.077-.147-.017-.02.015-.031-.008-.056-.111-.168-.039-.031.021-.019-.015l.008-.017q.018-.03-.015-.032a.2.2 0 0 0-.11.017q-.031.014-.024-.019l.004-.015q.01-.03-.02-.032a.24.24 0 0 0-.12.02q-.037.016-.016-.018l.011-.02.003-.012-.004-.01-.01-.006a.1.1 0 0 0-.081.01q-.02.012-.035-.007l-.007-.017a.04.04 0 0 0-.02-.03.12.12 0 0 0-.087-.013q.005-.006 0-.02a.03.03 0 0 0-.024-.02.2.2 0 0 1-.081-.04.05.05 0 0 0-.044-.012.1.1 0 0 0-.051.021q-.024.017-.028-.014l-.004-.035q-.005-.036-.035-.026l-.058.02a.06.06 0 0 1-.044-.004.4.4 0 0 1-.16-.126q-.018-.025-.03-.023l-.02.005a.04.04 0 0 1-.04-.003l-.552-.377a6.5 6.5 0 0 1-1.348-1.41 6.7 6.7 0 0 1-.994-2.243 8 8 0 0 1-.207-1.2 34 34 0 0 1-.058-.815q-.052-1.143.104-2.27.043-.316.143-.736.088-.376.193-.727.18-.604.468-1.536.206-.665.374-1.323.21-.483.192-.974a.04.04 0 0 0-.024-.035.28.28 0 0 1-.156-.16.035.035 0 0 0-.036-.024.24.24 0 0 0-.106.022q-.024.012-.015-.014l.009-.024q.01-.03-.022-.033a3 3 0 0 1-.43-.049q-.02-.004-.096.024-.03.011-.025-.02l.002-.019q.005-.028-.03-.034a.12.12 0 0 0-.084.015q-.03.017-.032-.01l-.001-.023q-.002-.025-.032-.03a.16.16 0 0 0-.11.028q-.027.017-.022-.015a.04.04 0 0 1 .01-.02.03.03 0 0 0 .006-.017.024.024 0 0 0-.024-.024.3.3 0 0 0-.097.029q-.05.02-.029-.026l.005-.026q0-.03-.029-.024a.27.27 0 0 1-.192-.034.06.06 0 0 1-.028-.035q-.015-.042-.065-.024l-.025.014q-.03.016-.033-.014l-.002-.015q-.001-.015-.02-.024a3 3 0 0 1-.182-.089 2 2 0 0 0-.182-.076.7.7 0 0 1-.205-.123l-.268-.197-.005-.01a.2.2 0 0 0-.15-.105l-.01-.012-.012-.03a.1.1 0 0 0-.02-.023 2 2 0 0 1-.256-.237 5.14 5.14 0 0 1-1.243-2.225q-.08-.296-.195-1.03l-.035-.545.147-1.564a.14.14 0 0 1 .02-.073.1.1 0 0 0 .004-.032q0-.056.006-.11.18-1.478.369-2.953c.008-.068 0-.123-.007-.188a.2.2 0 0 0 .003-.063l.024-.314v-.12l-.007-.12v-.033a.14.14 0 0 0-.007-.087c-.118-.477-.608-.758-1.063-.505a2.4 2.4 0 0 0-.739.643A5.8 5.8 0 0 0 18 63.137q-.082.417-.136.893-.21 1.892-.237 2.571a5 5 0 0 0 .146 1.3c.156.693.47 1.704.673 2.56q.276 1.16.319 1.38c.32 1.63.563 3.071.563 4.604q0 .504-.055 1.092c-.092.989-.372 1.988-.864 2.844-.821 1.432-2.187 2.41-3.769 2.902a12.4 12.4 0 0 1-3.299.554c-.335.011-.755-.023-1.056-.04a6.1 6.1 0 0 1-1.667-.329l-.345-.132-.205-.12a4.8 4.8 0 0 1-1.3-.974 5.5 5.5 0 0 1-1.118-1.76 7 7 0 0 1-.414-1.517 11 11 0 0 1-.125-1.476q-.003-.09.01-.192.015-.142.013-.192A8 8 0 0 1 5.147 76q.087-1.207.257-2.303.255-1.652.691-3.361.334-1.305 1.027-3.6.194-.64.383-1.3.153-.53.36-1.655.099-.54.247-1.754.05-.407.085-.927.057-.806.058-.928a7 7 0 0 0-.07-1.14 4 4 0 0 0-.406-1.252 9 9 0 0 0-.578-.935 4.2 4.2 0 0 1-.525-1.08 6 6 0 0 1-.101-.345 1 1 0 0 0-.063-.144q-.02-.04.008-.094l.005-.061-.06-.766a.3.3 0 0 0-.062-.18.27.27 0 0 0-.184-.1q-.212-.022-.67-.076a7 7 0 0 1-1.912-.493l-.578-.256a.1.1 0 0 1-.036-.031q-.017-.025-.044-.019-.023.006-.033-.014a.09.09 0 0 0-.066-.046 8 8 0 0 0-.293-.202 4.7 4.7 0 0 1-.796-.652 5.95 5.95 0 0 1-1.644-3.373 7 7 0 0 1-.02-1.504q.035-.387.11-.933.144-1.044.465-2.082a10.1 10.1 0 0 1 1.994-3.63c.626-.735 1.302-1.328 2.072-2.033a20.5 20.5 0 0 0 2.388-2.616A15.3 15.3 0 0 0 8.969 32.9q.507-1.222.85-2.447.218-.783.265-.969.288-1.14.696-3.078l.381-1.706q.523-2.329 1.523-5.555a61 61 0 0 1 1.492-4.256q.35-.89.872-2.007a27 27 0 0 1 2.166-3.798 19.6 19.6 0 0 1 2.525-3.02 17 17 0 0 1 4.113-2.946 24 24 0 0 1 4.198-1.643A34 34 0 0 1 31.584.65Q34.3.167 36.922.073q.794-.03 1.634 0a37 37 0 0 1 2.232.148q2.079.2 4.38.663 2.03.409 4.057.99.968.279 1.8.566a15.4 15.4 0 0 1 3.703 1.868M9.299 55.945q.045.026.092.107.305.54.464.936c.484 1.203.538 2.488.475 3.81a27 27 0 0 1-.34 3.175 18 18 0 0 1-.42 1.964l-.97 3.359q-.4 1.38-.676 2.568a34 34 0 0 0-.574 3.11c-.151 1.123-.223 2.298-.079 3.427.172 1.343.796 2.613 2.171 3.052.917.292 1.96.219 2.914.08 1.157-.17 2.295-.484 3.195-1.179a3.82 3.82 0 0 0 1.405-2.18c.25-1.023.236-2.09.124-3.122a28 28 0 0 0-.647-3.65q-.099-.4-.637-2.444c-.284-1.075-.411-2.07-.289-3.118a57 57 0 0 0 .206-2.131c.042-.526.116-1.03.22-1.498a6.7 6.7 0 0 1 1.338-2.776 5.5 5.5 0 0 1 1.778-1.464 2.46 2.46 0 0 1 1.707-.229c.527.118 1.091.468 1.526.826q.77.635.817 1.653.028.654-.056 1.308a132 132 0 0 1-.33 2.421q-.07.461-.184 1.476a8 8 0 0 0-.046.88q.006.93.462 1.667a2.48 2.48 0 0 0 1.581 1.13q.417.085.725.092.512.011.696.029c.712.064 1.062.553 1.133 1.222q.041.39.007.756a11.7 11.7 0 0 1-.416 2.165q-.291 1.004-.814 2.57a6.3 6.3 0 0 0-.324 1.576q-.075 1.111.06 2.328.098.896.393 1.592c.363.857 1.032 1.583 1.889 1.95.922.394 1.979.421 2.943.252q1.358-.237 2.24-1.229c.814-.914 1.242-2.101 1.499-3.301q.263-1.242.374-2.673.11-1.455.138-2.327l.106-3.372q.11-2.88.38-5.748.116-1.218.293-2.384c.151-.994.38-2 .974-2.818q.248-.344.617-.498.466-.196 1.157-.277a3.4 3.4 0 0 1 1.102.044q.942.195 1.314 1.09.253.61.325 1.28.106.993.027 1.967c-.083 1.014-.219 1.923-.265 2.892q-.033.674.107 1.287.133.586.466 1.035.635.858 1.712.941a3 3 0 0 0 1.027-.1c.642-.175 1.175-.671 1.491-1.253a5.8 5.8 0 0 0 .533-1.375q.275-1.111.371-2.542.075-1.101.175-2.853.046-.805.168-1.75.084-.648.247-1.274c.161-.62.464-1.325 1.003-1.655.445-.273.95-.129 1.241.284q.255.36.373.909.114.525.14 1.076a21 21 0 0 1-.042 2.218q-.023.388 0 1.008.022.56.235 1.039.278.624.883.878.39.165.942.12c.687-.052 1.205-.314 1.958-.624.47-.193 1.127-.32 1.491.144.294.373.385.944.39 1.42q.009.615-.032.982a33 33 0 0 1-.41 2.675c-.624 3.237-.869 4.368-1.227 6.656a25 25 0 0 0-.196 1.65 7.3 7.3 0 0 0 .055 1.845c.204 1.222.86 2.163 2.051 2.59.63.226 1.349.278 2.04.239a12.5 12.5 0 0 0 2.644-.438c1.288-.36 2.472-1.056 3.17-2.21.345-.571.57-1.338.63-1.987a9 9 0 0 0-.146-2.553 25 25 0 0 0-.645-2.59q-.264-.855-.763-2.392a23 23 0 0 1-.4-1.406 9.7 9.7 0 0 1-.3-2.162q-.007-.367.003-1.054l.065-3.034q.03-1.276.144-2.54c.151-1.656.561-3.326 1.388-4.722q.606-1.024 1.368-1.862a31 31 0 0 1 1.08-1.12q.48-.478.668-.689.504-.567.93-1.199.51-.757.814-1.657a5.25 5.25 0 0 0 .168-2.847 10 10 0 0 0-.28-1.041 25 25 0 0 0-.646-1.717q-.738-1.774-1.091-2.629a48 48 0 0 1-.359-.89 48 48 0 0 1-1.997-6.485 86 86 0 0 1-.556-2.553q-.75-3.75-1.242-6.127a52 52 0 0 0-2.145-7.556c-.681-1.843-1.536-3.634-2.61-5.3a18.8 18.8 0 0 0-3.635-4.168 13.6 13.6 0 0 0-4.566-2.563 40 40 0 0 0-1.502-.47c-2.906-.829-5.794-1.399-8.748-1.606a29.6 29.6 0 0 0-5.518.136q-1.674.197-3.083.48a30 30 0 0 0-3.124.812q-1.399.442-2.691 1.065a15 15 0 0 0-3.687 2.493c-1.446 1.335-2.655 2.962-3.637 4.68a31.5 31.5 0 0 0-2.19 4.732 76 76 0 0 0-1.823 5.602 53 53 0 0 0-.783 3.096l-.695 3.195a44 44 0 0 1-.702 2.754q-.293 1.012-.734 2.158a16.6 16.6 0 0 1-3.284 5.318 26 26 0 0 1-1.495 1.505q-.839.77-1.31 1.21a8.2 8.2 0 0 0-1.943 2.727 9 9 0 0 0-.327.902q-.204.644-.361 1.478a7.5 7.5 0 0 0-.14 1.78q.07 1.297.973 2.248c.785.827 1.897 1.199 3.038 1.254q.505.024 1.116-.009.262-.015.547.035c.688.118.795.775.743 1.357q-.057.624-.079.988-.03.508.125.945.167.468.631.72"/><path fill="#322f18" d="M9.299 55.989a1.3 1.3 0 0 1-.63-.72 2.4 2.4 0 0 1-.125-.946q.021-.362.078-.988c.052-.582-.054-1.24-.743-1.357a2.4 2.4 0 0 0-.547-.035q-.611.033-1.116.009c-1.141-.055-2.253-.427-3.038-1.254a3.44 3.44 0 0 1-.973-2.247 7.5 7.5 0 0 1 .14-1.78 13 13 0 0 1 .36-1.479q.172-.544.328-.901a8.2 8.2 0 0 1 1.943-2.728q.471-.44 1.31-1.21.696-.637 1.495-1.505a16.6 16.6 0 0 0 3.284-5.318q.443-1.146.734-2.158a44 44 0 0 0 .702-2.753l.695-3.196q.306-1.411.783-3.095a76 76 0 0 1 1.823-5.602 31.5 31.5 0 0 1 2.19-4.733c.982-1.717 2.192-3.344 3.637-4.68a15 15 0 0 1 3.687-2.493 20.5 20.5 0 0 1 2.692-1.065 30 30 0 0 1 3.123-.812 39 39 0 0 1 3.083-.48q2.79-.326 5.518-.135c2.954.206 5.842.777 8.748 1.605q.555.158 1.502.47a13.6 13.6 0 0 1 4.566 2.563 18.8 18.8 0 0 1 3.635 4.169c1.074 1.666 1.93 3.457 2.61 5.3a52 52 0 0 1 2.146 7.555q.49 2.378 1.242 6.128.235 1.178.555 2.552a48 48 0 0 0 1.998 6.486q.13.335.358.89.353.855 1.091 2.628.371.891.646 1.717.159.477.28 1.041.311 1.43-.168 2.847a7 7 0 0 1-.814 1.657 11 11 0 0 1-.93 1.2q-.188.21-.668.688-.627.623-1.08 1.12-.762.84-1.368 1.862c-.826 1.396-1.236 3.066-1.387 4.722a37 37 0 0 0-.144 2.54 883 883 0 0 0-.065 3.034q-.013.688-.004 1.054.025 1.083.3 2.162.202.794.4 1.406.5 1.539.763 2.392.373 1.209.646 2.59.256 1.306.144 2.553c-.058.65-.283 1.416-.63 1.988-.697 1.153-1.88 1.849-3.168 2.209q-1.293.36-2.645.438c-.69.039-1.41-.013-2.04-.24-1.19-.426-1.847-1.367-2.05-2.589a7.3 7.3 0 0 1-.056-1.846q.08-.906.197-1.65c.358-2.287.602-3.418 1.226-6.655q.276-1.428.41-2.675.04-.366.033-.983c-.006-.475-.097-1.046-.39-1.419-.364-.463-1.021-.336-1.491-.143-.754.309-1.272.57-1.959.624q-.552.043-.941-.12a1.63 1.63 0 0 1-.884-.879 2.8 2.8 0 0 1-.234-1.039 11 11 0 0 1 0-1.008q.081-1.329.04-2.218a6.5 6.5 0 0 0-.139-1.076 2.5 2.5 0 0 0-.372-.909c-.291-.413-.797-.557-1.242-.284-.539.33-.842 1.035-1.003 1.655q-.164.627-.247 1.275a25 25 0 0 0-.168 1.749q-.1 1.753-.175 2.853a15 15 0 0 1-.371 2.542q-.18.727-.533 1.375c-.316.582-.849 1.078-1.491 1.253a3 3 0 0 1-1.027.1q-1.077-.083-1.712-.94a2.7 2.7 0 0 1-.466-1.036 4.7 4.7 0 0 1-.107-1.287c.046-.97.182-1.878.265-2.892q.08-.974-.027-1.967a4.6 4.6 0 0 0-.325-1.28q-.372-.895-1.314-1.09a3.4 3.4 0 0 0-1.102-.044q-.69.08-1.157.277-.368.156-.617.498c-.594.819-.823 1.824-.974 2.818a43 43 0 0 0-.292 2.384 102 102 0 0 0-.38 5.748q-.008.201-.107 3.372a55 55 0 0 1-.138 2.327 20 20 0 0 1-.374 2.673c-.257 1.2-.685 2.387-1.5 3.302q-.88.99-2.24 1.228c-.963.17-2.02.142-2.942-.252-.857-.367-1.526-1.093-1.89-1.95a5.7 5.7 0 0 1-.393-1.592q-.135-1.216-.059-2.328a6.3 6.3 0 0 1 .324-1.575q.523-1.565.814-2.57.316-1.092.416-2.166.034-.366-.007-.756c-.071-.67-.42-1.158-1.133-1.222a13 13 0 0 0-.696-.029 4 4 0 0 1-.725-.093 2.48 2.48 0 0 1-1.58-1.129 3.14 3.14 0 0 1-.463-1.667 8 8 0 0 1 .046-.88q.114-1.015.184-1.476.127-.85.33-2.42.084-.654.056-1.309-.046-1.018-.817-1.653c-.435-.358-1-.708-1.526-.826a2.47 2.47 0 0 0-1.707.229 5.5 5.5 0 0 0-1.778 1.464 6.7 6.7 0 0 0-1.337 2.776c-.105.468-.179.972-.22 1.498q-.09 1.134-.207 2.13c-.122 1.05.005 2.044.289 3.119q.54 2.043.637 2.445a28 28 0 0 1 .647 3.65c.112 1.032.126 2.098-.124 3.12q-.33 1.35-1.405 2.182c-.9.695-2.038 1.008-3.195 1.177-.954.14-1.997.213-2.914-.08-1.375-.438-2-1.708-2.17-3.05-.144-1.13-.073-2.305.078-3.428q.199-1.485.574-3.11.276-1.189.675-2.568.265-.912.971-3.359a18 18 0 0 0 .42-1.963q.264-1.595.34-3.177c.063-1.321.01-2.606-.475-3.81a8 8 0 0 0-.464-.935.3.3 0 0 0-.092-.106M32.422 3.39a3 3 0 0 1-.358.067.16.16 0 0 0-.11.064q-.434.015-1.173.19-1.924.456-3.142.886-1.28.455-2.448 1.058a14 14 0 0 0-3.56 2.608 17.6 17.6 0 0 0-1.91 2.28 26.3 26.3 0 0 0-2.655 4.833 48 48 0 0 0-1.257 3.315c-.756 2.224-1.374 4.33-1.858 6.42a364 364 0 0 0-.843 3.806c-.432 1.983-1.01 3.975-1.81 5.794a16.4 16.4 0 0 1-1.61 2.852q-1.023 1.45-2.53 2.882-.655.624-1.167 1.089-.23.208-.838.794a9 9 0 0 0-.734.836 1 1 0 0 0-.207.287 3 3 0 0 0-.227.362 10 10 0 0 0-1.134 3.742q-.03.305-.023.803.014.872.472 1.504.214.291.44.486.21.218.612.45c.622.361 1.41.5 2.128.511q.42.007.903-.002c.214-.005.483.01.66.052q1.015.243 1.149 1.26.063.484.018 1.112-.085.444-.102.919-.012.364.188.66c.398.593 1.09.12 1.236-.38q.088-.307.079-.595a56 56 0 0 1-.036-1.452 9.4 9.4 0 0 1 .195-1.922.06.06 0 0 1 .047-.048q.012-.001.014.066-.023 1.007.055 2 .048.618.084 1.236c.044.737-.116 1.396-.864 1.687q-.01.003-.016.012c-.006.01-.006.012-.007.019q0 .01.005.02.353.612.551 1.302.261.909.345 1.842a18.6 18.6 0 0 1-.072 4.129q-.164 1.247-.428 2.124a731 731 0 0 0-1.101 3.683q-.269.915-.61 2.212a32 32 0 0 0-.777 3.962c-.149 1.13-.213 2.35-.005 3.42q.12.627.394 1.109.51.902 1.578 1.087.626.108 1.352.063a9.8 9.8 0 0 0 2.25-.386c1.294-.395 2.264-1.16 2.632-2.504a6.2 6.2 0 0 0 .197-1.686 15.6 15.6 0 0 0-.188-2.321 32 32 0 0 0-.571-2.777q-.152-.597-.452-1.72c-.26-.97-.433-1.94-.417-2.943.007-.422.079-.984.12-1.38q.015-.155.083-.956.056-.648.15-1.322a8.2 8.2 0 0 1 .904-2.779q.724-1.335 2.05-2.296.338-.246.793-.455c.982-.45 1.964-.386 2.893.116q.75.406 1.274.981.52.57.67 1.392a9.4 9.4 0 0 1-.036 1.803c-.125 1.187-.306 2.363-.46 3.55l-.046.448a4.4 4.4 0 0 0 .023 1.27q.011.075.067.248.42 1.216 1.709 1.374.462.056.988.05.171.045.371.09.244.056.365.11.747.341.96 1.163.154.6.107 1.215a10 10 0 0 1-.142 1.102q-.25 1.274-.67 2.546l-.488 1.48a4.7 4.7 0 0 0-.257 1.51 8.4 8.4 0 0 0 .36 2.51q.275.879.878 1.602.124.15.232.219.21.222.389.328 1.1.658 2.403.544a2.97 2.97 0 0 0 2.047-1.034q.513-.587.839-1.345a8 8 0 0 0 .365-1.015q.315-1.125.437-2.288.128-1.22.183-2.448.075-1.634.133-3.692.079-2.819.443-6.56.072-.741.21-1.712.105-.744.253-1.406.1-.45.306-1.002.247-.669.677-1.196c.512-.625 1.184-.96 1.978-1.118q.862-.171 1.457-.122c.674.057 1.274.307 1.616.895q.24.41.34.906.152.76.132 1.66l-.016.794q-.084 1.095-.193 2.189a8 8 0 0 0 .02 1.741q.06.501.238.968.178.472.477.846.48.6 1.234.727c1.33.222 1.928-1.387 2.138-2.392q.128-.603.189-1.14.105-.909.175-2.136.096-1.713.184-2.64c.075-.806.182-1.553.39-2.324q.188-.69.561-1.264.286-.44.73-.71a1.64 1.64 0 0 1 1.187-.216c.707.153 1.19.839 1.377 1.496q.21.728.248 1.566.045.953-.03 2.402c-.027.496-.044 1.023.116 1.487l.166.341q.394.488 1.054.404.096-.013.196-.034.205-.031.34-.08.44-.157 1.13-.443.313-.129.726-.217a1.7 1.7 0 0 1 1.17.154q.498.303.713.819.25.602.257 1.358.015 1.263-.2 2.508a278 278 0 0 1-.31 1.776q-.316 1.574-.603 3.154-.215 1.113-.41 2.229a33 33 0 0 0-.274 1.913q-.073.63-.063 1.149-.008.7.165 1.294.394 1.356 1.776 1.694.692.17 1.45.132.819-.04 1.77-.253c1.063-.238 2.106-.656 2.89-1.393a3.75 3.75 0 0 0 1.001-1.582q.14-.423.182-.94.054-.675-.022-1.314a15.6 15.6 0 0 0-.449-2.267 65 65 0 0 0-.904-2.993 33 33 0 0 1-.516-1.752 11.5 11.5 0 0 1-.363-2.263 18 18 0 0 1-.008-1.712q.077-2.356.11-3.171.065-1.641.286-3.044.167-1.064.48-2.035a10.1 10.1 0 0 1 2.086-3.64q.62-.698 1.22-1.296.434-.432.575-.585.277-.302.539-.62a7.5 7.5 0 0 0 1.063-1.707q.591-1.325.393-2.685a7 7 0 0 0-.224-.93 17 17 0 0 0-.52-1.47 204 204 0 0 0-1.067-2.57 49 49 0 0 1-2.453-7.353 64 64 0 0 1-.571-2.514q-.414-2.06-1.006-4.93a14 14 0 0 0-.129-.562q.047-.075.014-.228-.1-.449-.214-.872a29 29 0 0 0-.502-2.178l-.013-.065a52 52 0 0 0-1.247-4.268q-.481-1.416-1.038-2.72c-.826-1.93-1.869-3.746-3.19-5.386a16.2 16.2 0 0 0-3.531-3.259 11 11 0 0 0-1.763-.98 20 20 0 0 0-2.544-.892q-.204-.074-.783-.23a52 52 0 0 0-3.903-.895q-4.84-.899-9.738-.364-.599.066-1.67.228"/><path fill="#b1ddb4" d="M48.515 4.652q.279.33.588.604l.435.385a16 16 0 0 1 1.706 1.907q1.308 1.73 2.33 3.92.643 1.375 1.125 2.671l1.223 3.29q.649 1.676.893 3.488c.072.53.143 1.031.208 1.547q.009.071.174.961.022.12.067.262c.058.183.122.31.06.469a.59.59 0 0 1-.4.368q-.261.078-.536.083a.9.9 0 0 1-.434-.1 1.4 1.4 0 0 1-.196-.145.6.6 0 0 1-.144-.182 2.4 2.4 0 0 0-.204-.315q-.332-.85-.665-1.717a11 11 0 0 0-.48-1.085 4.6 4.6 0 0 0-.445-.702c-.312-.406-.752-.71-1.264-.506a3 3 0 0 0-.269.115 61 61 0 0 0-1.232.698 6 6 0 0 0-.52-.11 1.1 1.1 0 0 0-.319-.005 3 3 0 0 0-.318.053q-.96.226-1.396.296-.407.065-.897-.004-.255-.036-.368-.131a.52.52 0 0 1-.176-.391q-.033-.648.02-1.35.037-.48.018-.677a2.4 2.4 0 0 0-.142-.666q-.193-.462-.575-.66a2.6 2.6 0 0 0-1.09-.281q-.135-.007-.66-.018a18 18 0 0 0-2.046.169q-.285.039-1.328.189-.885.127-1.625.205-.766.08-1.769.11a8 8 0 0 1-.822-.017q-.437-.031-.822-.07a10 10 0 0 1-2.582-.613 3 3 0 0 1-.356-.172 5 5 0 0 0-.357-.174q-.432-.34-.595-.743c-.319-.794.061-1.515.602-2.092.36-.382.888-.875 1.265-1.362.315-.408.534-.9.233-1.393-.23-.377-.53-.568-.94-.88-.32-.242-.55-.5-.599-.862a4.2 4.2 0 0 1 .01-1.134q.08-.585.154-.844.222-.775.373-1.566.126-.364.074-.79-.087-.714-.652-1.02l-.428-.274q1.07-.162 1.669-.228a33.3 33.3 0 0 1 9.738.364q1.799.332 3.903.896.579.155.783.23M34.068 8.381a.6.6 0 0 1-.033-.257q.035-.576.138-1.08.08-.39.23-1.092.036-.174.085-.507.055-.384.062-.512.035-.645.003-.794a2 2 0 0 0-.148-.432c-.076-.16-.283-.422-.482-.425h-.144a.04.04 0 0 0-.028.014.05.05 0 0 0-.012.032q0 .019.012.034l.188.237q.284.357.243.866a5.7 5.7 0 0 1-.248 1.26q-.16.507-.489 1.387-.186.497-.239.755a4 4 0 0 0-.09.79q0 .216.044.343c.095.268.32.503.611.327q.261-.158.445-.314.194-.164.071-.369a1 1 0 0 0-.116-.124.5.5 0 0 1-.103-.14m1.602 5.593q-.1.253.02.424.155.219.503.336.36.118.808-.02.51-.157.89-.593c.256-.292.4-.767.2-1.112q-.168-.292-.593-.241a.86.86 0 0 0-.38-.444q-.662-.4-1.238.097-.316.273-.417.66-.136.525.207.893m-2.084 1.37c.198.07.416.056.607-.038a.823.823 0 0 0 .272-1.26.78.78 0 0 0-.945-.197.823.823 0 0 0-.271 1.26c.09.107.206.188.337.234m14.275 4.24a.35.35 0 0 0 .211-.284.365.365 0 0 0-.308-.402.347.347 0 0 0-.392.306.364.364 0 0 0 .308.403c.061.008.124 0 .18-.023"/><path fill="#fff" d="M34.068 8.38q.03.067.103.14.1.098.116.124.123.205-.07.37-.185.156-.446.313c-.291.176-.516-.06-.61-.327a1 1 0 0 1-.044-.343q0-.358.09-.79.052-.258.238-.755.329-.881.49-1.387.195-.62.247-1.26.04-.51-.243-.866l-.188-.237a.06.06 0 0 1-.012-.034q0-.018.012-.032a.04.04 0 0 1 .028-.014h.144c.2.003.406.266.482.425q.101.21.148.432.032.148-.003.794a7 7 0 0 1-.062.512q-.048.333-.085.507-.15.704-.23 1.092-.104.504-.138 1.08a.6.6 0 0 0 .033.257"/><path fill="#356a09" d="m32.422 3.39.428.276q.55.546.582 1.278.012.263-.004.531-.15.79-.373 1.566-.075.26-.155.844a4.2 4.2 0 0 0-.009 1.134c.049.362.28.62.598.862.411.312.71.503.94.88.302.494.083.985-.232 1.393-.377.487-.906.98-1.265 1.362-.54.577-.92 1.298-.602 2.092q.163.404.595.743.339.305.74.505c.393.196.903.375 1.378.485q.988.23 2.026.265a21.5 21.5 0 0 0 3.105-.123l.7-.077q1.988-.22 2.609-.293.61-.073 1.145-.093c.546-.02 1.433-.006 1.824.45q.17.196.235.43.087.307.096.657.01.409-.006.873-.015.465.046.99c.066.558.354 1.006.918 1.15q.275.071.5.055.67-.044 1.318-.29.668-.256 1.19-.502.096-.045.306-.165.863-.498 1.232-.698.052-.028.27-.115c.51-.205.951.1 1.263.506q.256.334.446.702.245.477.479 1.085.333.867.665 1.717.09.253.2.483.493 1.037 1.655 1.26.758.146.947.203.838.247.966 1.119.035.232.045.72-.012.394-.012.79 0 .234.042.445c.092.455.403.81.893.808.525-.001.82-.565.907-1.015a6.4 6.4 0 0 0 .103-1.076q.014-.801.062-1.92.028-.678.226-1.215c.05-.133.238-.4.413-.412a.3.3 0 0 1 .128.01q.182.086.358.335.114.424.213.872.034.154-.013.228a.25.25 0 0 1-.058-.098 3 3 0 0 0-.412-.666 1 1 0 0 0-.205-.173q-.054-.034-.086.021a1 1 0 0 0-.12.347q-.13.794-.14 1.686a36 36 0 0 1-.028 1.327q-.023.396-.102.785a2.15 2.15 0 0 1-1.113 1.515c-.413.047-.795-.016-1.1-.313a1.6 1.6 0 0 1-.335-.567 2.8 2.8 0 0 1-.118-.675q-.03-.547-.042-1.032a3.8 3.8 0 0 0-.14-.93l-.085-.161a.6.6 0 0 0-.305-.252 4 4 0 0 0-.372-.076 18 18 0 0 0-.626-.102 5 5 0 0 1-.652-.172 2 2 0 0 1-.406-.17q-.31-.183-.367-.245l-.373-.413q-.146-.163-.314-.551-.15-.349-.315-.804l-.293-.808-.332-.884a6 6 0 0 0-.22-.52c-.199-.396-.401-.799-.728-1.1-.162-.149-.341-.233-.542-.124a8 8 0 0 0-.31.186 5 5 0 0 1-.313.18 8 8 0 0 0-.396.223q-.16.097-.4.217-1 .498-2.121.788-.503.13-1.033.138c-.359.004-.743-.096-.993-.305q-.59-.492-.664-1.361c-.039-.463-.018-.852-.02-1.474a3.2 3.2 0 0 0-.062-.677.93.93 0 0 0-.42-.59q-.18-.113-.53-.146a5 5 0 0 0-.555-.03q-.824.012-1.52.108l-.848.116q-.681.093-2.108.247l-.709.083q-1.567.18-3.077.097a9 9 0 0 1-2.788-.591 5 5 0 0 1-1.078-.596 2.3 2.3 0 0 1-.548-.513 2.8 2.8 0 0 1-.37-.683q-.24-.676.022-1.409a1 1 0 0 1 .092-.186q.018-.027.103-.183c.024-.045.075-.088.098-.12.154-.218.235-.34.413-.484a4 4 0 0 0 .356-.323c.341-.356.8-.775 1.16-1.223q.217-.273.194-.529c-.027-.304-.182-.4-.393-.579a3 3 0 0 0-.205-.16 8 8 0 0 1-.617-.471 1.64 1.64 0 0 1-.52-.787 2.8 2.8 0 0 1-.123-1.08q.054-.656.144-.966c.107-.373.225-.78.307-1.206q.054-.285.112-.524c.068-.283.014-.467-.033-.717q-.031-.674-.556-1.036a6 6 0 0 1-.35-.257.16.16 0 0 1 .109-.064q.232-.03.358-.067"/><path fill="#fff" d="M31.955 3.522q.09.075.35.257.525.362.556 1.036l-.075.798-.65.139a12 12 0 0 0-.646.152 17.5 17.5 0 0 0-3.712 1.486q-.765.412-.973.54-.419.255-1.447.99-.687.49-1.105.85a22 22 0 0 0-2.03 2.008q-.364.404-.618.735-1.27 1.652-2.04 2.9a119 119 0 0 0-2.023 3.403q-.57 1.004-.891 1.615a29.7 29.7 0 0 0-1.91 4.494 37 37 0 0 0-.968 3.5 384 384 0 0 1-.532 2.327 30 30 0 0 1-.385 1.428q-.154.533-.263.923-.3 1.077-.401 1.396-.173.553-.668 1.926a31 31 0 0 1-.797 1.91q-.138.309-.348.7-.068.125-.365.691-.387.736-.824 1.444-.27.435-.928 1.282a3.2 3.2 0 0 0-.806.849l-.579.908q-.188.296-.344.447c-.117.113-.358.259-.517.16q-.063-.038-.057-.156c.017-.342.117-.677.193-1.01q.01-.04.02-.187c.013-.167-.35-.237-.499-.263q-.46-.08-1.254-.035a9 9 0 0 1 .734-.836q.609-.585.838-.794.511-.465 1.167-1.089 1.507-1.433 2.53-2.882a16.4 16.4 0 0 0 1.61-2.852c.8-1.819 1.378-3.81 1.81-5.794q.593-2.719.843-3.806c.484-2.09 1.102-4.196 1.858-6.42q.601-1.773 1.257-3.315a26.3 26.3 0 0 1 2.656-4.833 17.6 17.6 0 0 1 1.91-2.28 14 14 0 0 1 3.56-2.608 20 20 0 0 1 2.447-1.058q1.217-.43 3.142-.886.738-.175 1.174-.19"/><path fill="#ffe7bb" d="M33.428 5.475q.016-.268.004-.531-.032-.732-.582-1.278.564.305.652 1.02.052.424-.074.79"/><path fill="#b1ddb4" d="M54.2 3.719a.012.012 0 0 1 .017-.011q.017.004.02.028 0 .005-.002.009l-.008.005-.01-.002a.03.03 0 0 1-.016-.029"/><path fill="#82b963" d="M54.387 3.863q.023.015-.021.007a.006.006 0 0 1-.004-.01q.01-.009.025.003"/><path fill="#b1ddb4" d="M54.552 3.936a.2.2 0 0 1-.082-.031q-.017-.012.003-.01a.15.15 0 0 1 .079.041"/><path fill="#a4a5ae" d="M54.552 3.936q.036 0 .044.006.042.039-.013.024-.01-.002-.031-.03"/><path fill="#b1ddb4" d="M54.687 3.959q-.004-.018.02-.011a.012.012 0 0 1 .004.02q-.02.015-.024-.009"/><path fill="#e9f0ed" d="M55.127 4.176a2 2 0 0 1-.194-.082q-.17-.09.01-.023.072.027.184.105m0 0q.047.005.06.022.035.044-.019.011a.2.2 0 0 1-.041-.033"/><path fill="#8bbf82" d="m61.84 22.222-.02-.016q-.011-.015-.027-.003-.015.012-.016.036a.7.7 0 0 0 .071.267q.015.034.025.087l.02.087.24.959q.048.194-.054.023a1 1 0 0 0-.156-.065.5.5 0 0 0-.17-.015 1.06 1.06 0 0 0-.637.203 1.24 1.24 0 0 0-.421.587q-.105.3-.167.661-.087.505-.11.971-.066 1.268.086 2.592a.8.8 0 0 1-.07.398.6.6 0 0 0-.046.141c-.021.17-.042.287-.186.4q-.103.08-.264.049a.64.64 0 0 1-.5-.414 1.8 1.8 0 0 1-.139-.732q.019-.729-.036-1.227 0-.01-.007-.01t-.007.007l-.026.442a7 7 0 0 0-.045-.72q-.127-.871-.966-1.12a14 14 0 0 0-.947-.202q-1.161-.223-1.656-1.26a5 5 0 0 1-.2-.483q.117.15.205.315.06.114.144.182.144.12.196.145.203.105.434.1.274-.005.537-.083a.59.59 0 0 0 .399-.368c.062-.16-.002-.286-.06-.469a2 2 0 0 1-.067-.262q-.165-.89-.174-.961c-.065-.516-.136-1.017-.208-1.547a15.3 15.3 0 0 0-.893-3.488l-1.223-3.29a36 36 0 0 0-1.124-2.67q-1.023-2.19-2.33-3.92a16 16 0 0 0-1.707-1.908l-.435-.385a6 6 0 0 1-.588-.604q1.425.402 2.544.892.9.395 1.763.98 1.998 1.356 3.531 3.26c1.32 1.639 2.364 3.454 3.19 5.386q.557 1.302 1.037 2.719.711 2.094 1.248 4.268.008.032.013.065"/><path fill="#509d26" d="m58.459 26.566-.55.038a5.2 5.2 0 0 1-1.529-.289c-.54-.193-.982-.493-1.28-.953a5.5 5.5 0 0 1-.536-1.076q-.33-.89-.417-1.116a12 12 0 0 0-.457-1.238c-.167-.385-.358-.775-.655-1.075q-.155-.158-.328-.152-.112.003-.309.115l-.361.194q-.089.048-.358.203-.569.329-1.262.602a8.7 8.7 0 0 1-1.754.502 4.3 4.3 0 0 1-.745.052c-.77-.008-1.337-.404-1.612-1.144a2.6 2.6 0 0 1-.133-.483 6 6 0 0 1-.067-.8l-.03-1.153a.83.83 0 0 0-.21-.564 1.1 1.1 0 0 0-.62-.315 3 3 0 0 0-.61-.052q-.828.027-1.771.15-.42.055-1.957.271a32 32 0 0 1-3.262.297c-1.115.041-2.238-.033-3.291-.336-.878-.253-1.774-.728-2.365-1.44-.464-.556-.726-1.315-.524-2.018q.146-.51.509-.98.324-.422.663-.789.513-.557.747-.824.252-.286.36-.466c.08-.133.17-.364.109-.519a.9.9 0 0 0-.212-.302 10 10 0 0 0-.58-.498 2.7 2.7 0 0 1-.494-.557c-.589-.842-.382-1.834-.173-2.741q.049-.21.188-.706.111-.394.203-.791l.075-.798c.047.25.101.434.033.717q-.058.239-.112.524c-.082.426-.2.833-.307 1.206q-.09.31-.144.966-.046.54.122 1.08.145.47.52.787.305.256.618.472.093.063.205.16c.21.178.366.274.393.578q.023.256-.195.529c-.359.448-.818.867-1.159 1.223a4 4 0 0 1-.356.323c-.178.144-.26.266-.413.484-.023.032-.074.075-.098.12a4 4 0 0 1-.103.183 1 1 0 0 0-.092.186q-.262.732-.022 1.409.114.324.37.683.185.258.548.513.567.397 1.078.596a9 9 0 0 0 2.788.591 18 18 0 0 0 3.077-.097l.71-.083a86 86 0 0 0 2.955-.363q.696-.096 1.52-.108.208-.003.556.03.348.032.528.146a.93.93 0 0 1 .421.59c.047.187.06.453.061.677.003.622-.018 1.01.021 1.474q.073.869.664 1.361c.25.209.634.31.993.305q.53-.007 1.033-.138a10.8 10.8 0 0 0 2.12-.788q.242-.12.401-.217a8 8 0 0 1 .396-.223q.137-.072.312-.18.235-.145.31-.186c.202-.109.38-.025.543.125.327.3.53.703.727 1.099q.103.205.221.52l.332.884.293.808q.165.454.315.804.168.388.314.551.243.273.373.413.057.063.367.245.165.096.406.17.487.15.652.172.315.045.626.102.325.058.372.076a.6.6 0 0 1 .305.252"/><path fill="#c6d875" d="M32.787 5.612q-.09.398-.202.791a18 18 0 0 0-.188.706c-.21.907-.416 1.9.173 2.741q.255.365.493.558.394.318.58.497.15.144.212.302c.061.155-.029.387-.109.52q-.108.18-.36.466-.233.266-.747.823-.338.367-.663.789-.361.471-.508.98c-.203.703.06 1.462.523 2.019.592.71 1.488 1.187 2.366 1.44 1.053.302 2.176.376 3.29.335a32 32 0 0 0 3.262-.297q1.539-.216 1.957-.27.945-.124 1.77-.15.28-.01.612.05.393.073.62.316a.83.83 0 0 1 .209.565l.03 1.153q.01.46.068.8.038.23.132.482c.276.74.842 1.136 1.613 1.145q.405.003.745-.052a8.7 8.7 0 0 0 1.753-.502 9.5 9.5 0 0 0 1.263-.603 16 16 0 0 1 .719-.397q.197-.11.309-.115.172-.005.328.152c.296.3.487.69.654 1.075q.255.585.458 1.238a2.6 2.6 0 0 1-.368-.685l-.163-.452a5 5 0 0 0-.26-.552c-.184-.324-.533-.714-.958-.532q-.12.05-.651.32-.016.007-.021.022c-.005.015-.005.021-.001.031q.205.603.401 1.305.41 1.467.196 2.972a4.7 4.7 0 0 1-.823 2.08q-.297.42-.33.498c-.217.512.098.95.436 1.326l.653.727c.389.432.77.964.762 1.58a1.3 1.3 0 0 1-.27.8c-.575.746-1.747.701-2.346 1.09-.406.264-.283.797-.16 1.23q.213.755.283.993.117.398.183.723c.09.438.166.9.146 1.35a1.32 1.32 0 0 1-.342.843q-.2.225-.434.466c-.413.425-.403 1.08-.245 1.637.154.538.572.8 1.11.876.324.046.932.108 1.158-.154q.17-.196.305-.476c.3-.624.531-1.215.39-1.895a8 8 0 0 0-.108-.469q-.123-.468.28-.694.372-.209.946-.33c.417-.088.805.024 1 .428q.257.537.286 1.138.027.555-.29 1.159l-.377.715c-.204.388-.336.875.19 1.092.476.197 1.066.284 1.464.409.345.108.706.321.911.624.252.37.296.915.243 1.368-.102.861-.416 1.8-.595 2.523-.154.622-.257 1.148-.25 1.726q.013.897.575 1.568.25.299.71.78c.656.684 1.072 1.78.617 2.691l-.263.526a6.7 6.7 0 0 0-.572 1.686 8 8 0 0 0-.138 2.082q.02.354.086.925a.1.1 0 0 1-.008.043.07.07 0 0 1-.03.031l-.188.109a.07.07 0 0 0-.03.039.24.24 0 0 0-.001.123q.01.044.09.09c.114.069.21.104.198.232a.05.05 0 0 1-.023.038.42.42 0 0 1-.435.026c-.676-.34-.89-.932-1.084-1.626q-.138-.492-.682-.433c-.55.06-1.164.203-1.58.593a3.5 3.5 0 0 0-.389.416 11.4 11.4 0 0 0-1.098 1.768 43 43 0 0 0-1.19 2.582l-.167-.34a3 3 0 0 1 .024-.633q.186-.945.288-1.594.148-.952.178-2.05.018-.597.007-.959a10 10 0 0 0-.175-1.621c-.21-1.09-.867-2.293-2.148-2.271a2.7 2.7 0 0 0-.552.053q-.25.06-.647.18c-.414.125-.655-.05-.803-.407-.092-.223-.19-.47-.374-.614-.453-.354-1.278-.006-1.737.22-.39.19-.76.388-1.094.624q-1.078.76-.958 2.042c.03.322.157.677.229.949l.036.169a.05.05 0 0 1-.01.042c-.078.089-.198.06-.275-.019-.44-.448-.618-.995-.763-1.602a2 2 0 0 0-.105-.222l-.015-.018-.022-.007a1 1 0 0 0-.252.003q-.222.03-.64.1a4.5 4.5 0 0 1-.667.048c-.324.003-.533.009-.782-.096a.1.1 0 0 1-.06-.098q.017-.223.098-.663.036-.195-.012-.482c-.065-.386-.35-.742-.667-.967-.38-.269-.768-.296-1.093.05q-.24.254-.541.7c-.213.315-.361.51-.595.778a1.86 1.86 0 0 1-.95.603c-.415.107-.875.06-1.398.004-.351-.037-.649-.01-.883.266-.299.354-.43.774-.64 1.308-.158.406-.36.797-.86.564a3.2 3.2 0 0 1-.71-.438c.24-.09.38-.347.225-.56a.45.45 0 0 0-.64-.106q-.178.128-.147.38a4 4 0 0 0-.57-.373 1.3 1.3 0 0 0-.383-.129.1.1 0 0 0-.063.01.1.1 0 0 0-.043.047 1.3 1.3 0 0 0-.092.316 24 24 0 0 1-.355 1.793q-.545 2.255-.981 4.28-.064.291-.19.392c-.172.136-.463.199-.65.319-.385.244-.643.63-.913.964a.76.76 0 0 1-.416.266.135.135 0 0 1-.162-.09 2 2 0 0 1-.082-.526c-.021-1.125-.004-1.672-.108-2.49-.066-.51-.18-.967-.609-1.272a.1.1 0 0 1-.037-.101c.077-.304.18-.667.227-.972q.189-1.232-.167-2.403a7 7 0 0 0-.417-1.107l-.347-.69a1.5 1.5 0 0 1-.155-.774.07.07 0 0 1 .02-.044.07.07 0 0 1 .045-.02q.166-.012.362.025l1.114.211q.198.034.313.038.09.003.028-.063c-.239-.257-.575-.45-.894-.625a9.7 9.7 0 0 0-2.912-1.035c-.585-.108-1.134-.193-1.706-.211a13.6 13.6 0 0 0-4.059.495 9 9 0 0 0-1.18.414 3.53 3.53 0 0 0-1.436 1.08 4 4 0 0 0-.474.831q-.283.64-.424 1.3c-.079.367-.135.703.075 1.028q.163.251.495.487a34 34 0 0 0-.425 2.663q-.207 1.755-.386 3.965-.044.535-.069.957a148 148 0 0 1-.432 5.413 31 31 0 0 1-.465 3.127q-.084.415-.212.848c-.166.566-.36 1.113-.65 1.62q-.324.566-.803.995c-.462.414-1.03.628-1.661.821a.6.6 0 0 0-.197.108.05.05 0 0 0-.02.04.8.8 0 0 0 .033.274q.258.908 1.135 1.275c.539.225 1.113.28 1.692.243.863-.056 1.678-.206 2.447-.543q1.488-.654 1.937-2.213a5.8 5.8 0 0 0 .221-1.566 12 12 0 0 0-.055-1.23q-.03-.31-.114-.885a11 11 0 0 0-.169-.874 85 85 0 0 0-.269-1.143 77 77 0 0 1-.514-2.03 12 12 0 0 1-.323-3.083q.009-.36.081-.954.137-1.101.194-1.617.109-.964.15-1.15.152-.702.301-1.099.217-.574.316-.823.153-.381.59-1.104.039-.063.431-.66.041-.061.399-.52.225-.29.432-.493.321-.315.686-.598a2 2 0 0 1 .23-.163 3 3 0 0 0 .24-.148q.175-.123.371-.2a10 10 0 0 1 .428-.156 3.8 3.8 0 0 1 1.085-.18q.405-.008.81.105a3.8 3.8 0 0 1 .753.33q.506.275.967.725.293.287.46.534.04.06.077.134.015.03.075.134.056.097.099.205.048.123.104.24.14.294.102.57a2.76 2.76 0 0 0-.67-1.393 4.8 4.8 0 0 0-1.273-.98c-.93-.503-1.912-.567-2.893-.116q-.456.208-.794.454-1.326.962-2.05 2.297a8.1 8.1 0 0 0-.904 2.779q-.094.674-.15 1.321-.068.801-.083.956c-.04.397-.113.958-.12 1.38-.015 1.004.158 1.973.417 2.943q.3 1.124.452 1.72.34 1.342.571 2.777.176 1.095.189 2.322.009.929-.198 1.685c-.368 1.343-1.337 2.11-2.632 2.505a9.8 9.8 0 0 1-2.25.385q-.725.046-1.352-.062-1.068-.185-1.578-1.088a3.7 3.7 0 0 1-.394-1.11c-.207-1.069-.143-2.29.005-3.418q.264-2.005.778-3.963.34-1.298.61-2.212.248-.846 1.1-3.683.265-.877.429-2.124a18.6 18.6 0 0 0 .072-4.129 10 10 0 0 0-.345-1.842 5.8 5.8 0 0 0-.551-1.302.04.04 0 0 1-.005-.02q0-.01.007-.019a.03.03 0 0 1 .015-.012c.748-.29.909-.95.865-1.687a67 67 0 0 0-.085-1.236 20 20 0 0 1-.054-2 1.5 1.5 0 0 0-.216-.66q-.405-.653-1.209-.663a8 8 0 0 0-1.19.079q-.483.07-1.304.173a10 10 0 0 1-.598.058l-.604.039q-.877.055-1.833-.057a5 5 0 0 1-.286-.052 2 2 0 0 0-.291-.033q-.46-.632-.473-1.505-.007-.498.023-.803.2-1.984 1.134-3.742.105-.194.227-.362a4.1 4.1 0 0 1 1.418.031.04.04 0 0 1 .03.03.4.4 0 0 1-.001.148 6 6 0 0 0-.126.834q-.019.321.18.504c.32.295.82.226 1.145-.03q.217-.17.436-.464.077-.104.567-.897.204-.331.478-.637a1.78 1.78 0 0 1 1.403-.623q.454.005.898.233c.475.244.901.587 1.298.942q.011.026.029.039a.012.012 0 0 0 .018 0 .012.012 0 0 0 0-.019.1.1 0 0 0-.035-.02 4.8 4.8 0 0 0-1.142-.987 3 3 0 0 0-.56-.284q-1.013-.35-1.986.2.658-.846.928-1.282.438-.708.824-1.444l.365-.692q.21-.39.349-.699a31 31 0 0 0 .796-1.91q.495-1.373.668-1.926.101-.32.402-1.396.108-.39.262-.923.273-.945.385-1.428.356-1.536.533-2.327a37 37 0 0 1 .967-3.5 29.7 29.7 0 0 1 1.91-4.494 61 61 0 0 1 1.092-1.967q.843-1.465 1.822-3.051.77-1.248 2.04-2.9.255-.33.619-.735a22 22 0 0 1 2.03-2.008q.418-.36 1.105-.85 1.027-.735 1.447-.99.207-.127.972-.54a17.5 17.5 0 0 1 3.713-1.485q.262-.072.645-.153zm-4.032 2.854c-.07-.088-.165-.153-.276-.188s-.236-.04-.36-.014a.85.85 0 0 0-.587.464c-.055.115-.08.236-.07.353s.05.225.119.313.164.153.276.188.236.04.36.014a.85.85 0 0 0 .587-.464c.055-.114.079-.236.07-.353s-.05-.225-.119-.313m-3.971 2.154a5.84 5.84 0 0 0-1.806 1.82 3.2 3.2 0 0 0-.465 1.168q-.047.278.005.598c.102.642.694.922 1.283.84q.633-.09 1.19-.428a5.26 5.26 0 0 0 1.755-1.732q.24-.383.39-.833c.208-.624.125-1.445-.544-1.76-.56-.266-1.327.017-1.808.327m-4.165 4.634a.44.44 0 0 0 .337.114.52.52 0 0 0 .34-.168.53.53 0 0 0 .144-.35.44.44 0 0 0-.138-.33.44.44 0 0 0-.337-.113.53.53 0 0 0-.34.167.53.53 0 0 0-.143.351.44.44 0 0 0 .137.329m7.672 4.958c.115.14.171.338.188.516.03.3-.01.591-.29.738q-.25.129-.347.208-.022.016.001.03.287.182.539.095c.58-.198.671-.847.434-1.348-.118-.25-.32-.363-.593-.377q-.035-.002-.016.028.027.04.084.11m-.69 1.243a.64.64 0 0 0 .472-.173.7.7 0 0 0 .217-.47.7.7 0 0 0-.163-.492.635.635 0 0 0-.92-.051.7.7 0 0 0-.217.47c-.01.18.048.357.163.491a.64.64 0 0 0 .449.225m-5.997 3.64c.644-.902.814-2.105.535-3.157-.254-.959-1.014-1.804-2.066-1.665-.804.107-1.413.784-1.722 1.485a4.34 4.34 0 0 0-.362 2.135c.042.5.208 1.033.506 1.427.423.559 1.07.832 1.752.695.543-.109 1.042-.478 1.357-.92m22.21 2.164c.797-.051 1.453-.587 1.83-1.275q.59-1.077.477-2.362c-.063-.728-.376-1.539-.962-1.961q-.728-.525-1.6-.194c-.64.242-1.126.849-1.393 1.459a4.2 4.2 0 0 0-.299 2.507q.105.557.377.965c.35.526.933.903 1.57.861m-23.321-.88a5 5 0 0 1-1.6-.06c-.294-.06-.53-.168-.87-.308q-.069-.027-.08.045a1 1 0 0 0-.007.253q.07.67.575.931.281.147.757.15.408.005.778-.075a4.3 4.3 0 0 0 1.912-.932q.192-.165.3-.348a.051.051 0 0 0-.05-.077l-.144.022a1 1 0 0 0-.145.039 6 6 0 0 1-1.426.36m21.383 1.113a98 98 0 0 1-1.07-.216 1 1 0 0 0-.257-.025.05.05 0 0 0-.04.03l-.002.026a.63.63 0 0 0 .133.288q.225.275.574.476.582.334 1.243.373.696.041 1.365-.141a5.7 5.7 0 0 0 1.573-.722c.085-.055.163-.14.223-.203a.06.06 0 0 0-.04-.1.7.7 0 0 0-.23.029q-.412.123-.765.203-.78.181-1.594.118a10 10 0 0 1-1.113-.136m-.832 4.418a.55.55 0 0 0-.25-.333.5.5 0 0 0-.306-.054q-.175.015-.316.054-1.614.448-2.308.57-.974.174-1.539.235a35 35 0 0 1-3.28.201q-.432.008-.947-.009l-.947-.029a29 29 0 0 1-2.401-.204 63 63 0 0 1-.955-.12 16 16 0 0 1-.952-.158l-.969-.19a15 15 0 0 1-.932-.208q-.718-.183-1.286-.352a1.5 1.5 0 0 1-.228-.083 8 8 0 0 1-.611-.204l-.112-.047a10 10 0 0 1-1.161-.487 2 2 0 0 0-.283-.119c-.272-.09-.5-.198-.77-.016a.04.04 0 0 1-.044.003.05.05 0 0 0-.043-.002.04.04 0 0 1-.042-.006.7.7 0 0 0-.228-.133 62 62 0 0 1-.578-.418c-.309-.226-.756-.429-1.116-.288-.459.18-.47.664-.354 1.095q.215.795.665 2.388.204.724.485 1.549.428 1.26 1.022 2.289a8.84 8.84 0 0 0 2.8 2.965q1.421.945 3.151 1.421c.982.27 1.956.452 2.99.551a20.6 20.6 0 0 0 3.142.067 15 15 0 0 0 2.295-.316 11 11 0 0 0 4.046-1.763q1.819-1.281 2.93-3.32.58-1.062 1.02-2.238.19-.505.296-.797.187-.51.266-.806.075-.278.042-.542c-.067-.537-.599-.725-1.066-.63q-.253.051-.387.105a5 5 0 0 0-.74.38M13.23 33.266a.4.4 0 0 0 .281-.114.42.42 0 0 0 .012-.58.387.387 0 0 0-.557-.011.42.42 0 0 0-.012.579.4.4 0 0 0 .276.126m3.367.158q-.042-.023-.177-.006-.025.003-.016.028.046.12.06.132.341.299.173.771-.075.212-.473.308-.153.037-.037.145l.048.043a.36.36 0 0 0 .24.044q.424-.078.57-.462a.76.76 0 0 0-.004-.552.8.8 0 0 0-.384-.45m-.8 1.1a.55.55 0 0 0 .415-.08.566.566 0 0 0 .165-.776.546.546 0 0 0-.762-.162.566.566 0 0 0-.165.776c.08.124.204.211.347.241m-3.042 2.133a.24.24 0 1 0-.482 0 .24.24 0 0 0 .482 0m-2.03 5.234a.6.6 0 0 0 .473 0c.174-.065.353-.19.52-.366.165-.175.312-.394.425-.633.113-.24.189-.492.22-.731.03-.24.013-.458-.048-.633s-.164-.302-.3-.366a.6.6 0 0 0-.472 0c-.174.065-.353.19-.519.366a2.5 2.5 0 0 0-.426.633 2.5 2.5 0 0 0-.219.732c-.03.239-.014.457.047.633s.164.3.3.365m23.742 3.124c.227-.096.618-.198.832-.033.138.108.193.263.225.429q.02.104.078.014.156-.241.254-.448c.14-.287.358-1.012-.19-1.043a1.4 1.4 0 0 0-.483.079q-1.095.353-2.003.535-.435.087-1.12.136a15 15 0 0 1-3.028-.088 13 13 0 0 1-2.061-.452c-.439-.131-1.006-.361-1.443-.5a1.5 1.5 0 0 0-.485-.066c-.463.012-.73.318-.689.788q.027.307.158.645.022.06.066.096a.03.03 0 0 0 .041 0 .03.03 0 0 0 .01-.02c.049-.325.218-.59.572-.624q.403-.038.775.13.492.223 1.02.627.487.37.976.693c.762.502 1.63.774 2.535.748a4.3 4.3 0 0 0 1.576-.348 6 6 0 0 0 .592-.283l1.113-.663q.378-.223.68-.352M10.231 46.63l.072.011q-.025.21-.048.261-.163.368-.214.524-.261.795-.797 1.41-.051.058.026.048.363-.045.726-.193a4.5 4.5 0 0 0 1.241-.77 2.7 2.7 0 0 0 .598-.723c.22-.395.31-.916.175-1.364q-.2-.66-.94-.874-.1-.03-.124.033a.08.08 0 0 1-.019-.06c-.228-.703-.863-1.098-1.58-.93-.693.163-1.082.844-1.033 1.545q.048.707.624 1.076.588.377 1.25.066a.06.06 0 0 0 .025-.024zm-4.768-.74a.47.47 0 0 0-.11-.29.7.7 0 0 0-.293-.21 1 1 0 0 0-.397-.072 1 1 0 0 0-.394.084.7.7 0 0 0-.286.219c-.068.09-.103.191-.102.294s.04.203.111.29c.07.089.172.161.293.21a1.02 1.02 0 0 0 .791-.012.7.7 0 0 0 .286-.219.47.47 0 0 0 .101-.294m21.378 10.912c-.01.556.014 1.084.046 1.626q0 .008.005.014.009.01.024.008.005 0 .01-.004.006-.004.006-.01.077-.256.152-.655.132-.691.184-1.255a2.7 2.7 0 0 0-.04-.795.05.05 0 0 0-.018-.03q-.015-.011-.033-.01a.04.04 0 0 0-.033.013.7.7 0 0 0-.19.298 3 3 0 0 0-.113.8M9.315 77.076c.096-.002.19-.033.273-.09s.15-.137.196-.233a.69.69 0 0 0-.014-.623.6.6 0 0 0-.207-.225.5.5 0 0 0-.277-.077c-.096.003-.19.033-.273.09s-.15.137-.196.233a.69.69 0 0 0 .014.624c.05.094.122.17.207.224q.13.08.277.077"/><ellipse cx="15.59" cy="13.3" fill="#ffe7bb" rx="15.59" ry="13.3" transform="rotate(-38.3 26.397 -34.693)scale(.048)"/><path fill="#ffe7bb" d="M24.782 10.621c.481-.31 1.248-.593 1.809-.328.668.316.752 1.136.543 1.761q-.15.45-.39.833a5.26 5.26 0 0 1-1.755 1.732 3.1 3.1 0 0 1-1.19.427c-.588.083-1.18-.197-1.283-.839a1.8 1.8 0 0 1-.004-.598q.098-.587.464-1.169a5.84 5.84 0 0 1 1.806-1.819"/><path fill="#356a09" d="M37.498 12.768q.1.413-.08.733-.375.668-1.178.683a.9.9 0 0 1-.57-.21q-.344-.367-.207-.894.102-.386.417-.659.576-.497 1.238-.097.277.167.38.444"/><path fill="#8bbf82" d="M35.67 13.974a.9.9 0 0 0 .57.21q.803-.015 1.178-.683.18-.32.08-.733.425-.05.593.241c.2.345.056.82-.2 1.112q-.38.435-.89.593-.45.138-.808.02-.348-.117-.504-.336-.12-.17-.019-.424"/><ellipse cx="16.92" cy="16.51" fill="#fff" rx="16.92" ry="16.51" transform="rotate(109.5 12.463 19.362)scale(.048)"/><ellipse cx="10.44" cy="9.56" fill="#ffe7bb" rx="10.44" ry="9.56" transform="rotate(133 7.593 12.121)scale(.048)"/><path fill="#8bbf82" d="M51.055 20.668q-.21.12-.306.165-.522.246-1.19.501a4.5 4.5 0 0 1-1.318.291q-.225.015-.5-.055c-.564-.144-.852-.592-.918-1.15a6.5 6.5 0 0 1-.046-.99q.017-.464.006-.873a2.6 2.6 0 0 0-.096-.657 1.1 1.1 0 0 0-.235-.43c-.39-.456-1.278-.47-1.824-.45q-.537.02-1.145.093a385 385 0 0 1-3.31.37q-1.583.176-3.104.123a10.6 10.6 0 0 1-2.026-.265 6.6 6.6 0 0 1-1.379-.485 3.3 3.3 0 0 1-.739-.505q.182.081.357.174.226.122.356.172a10 10 0 0 0 2.582.613q.385.039.822.07.407.03.822.017 1.002-.03 1.77-.11.738-.078 1.624-.205l1.328-.19q.572-.078.95-.106.909-.066 1.096-.062.525.01.66.018.606.03 1.09.28.382.2.575.661.1.24.142.666a4.5 4.5 0 0 1-.017.677q-.054.702-.021 1.35a.52.52 0 0 0 .176.39q.112.096.368.132.49.069.897.004.436-.07 1.396-.296.111-.026.318-.053.16-.02.318.005.265.045.52.11"/><ellipse cx="7.48" cy="7.33" fill="#fff" rx="7.48" ry="7.33" transform="rotate(67.3 9.844 45.378)scale(.048)"/><path fill="#afce6f" d="M28.29 20.212a1 1 0 0 1-.084-.11q-.02-.03.016-.027c.272.013.474.126.593.377.237.5.145 1.15-.435 1.348q-.252.086-.538-.094-.023-.015-.002-.032.099-.078.347-.207c.281-.147.32-.438.29-.738a.97.97 0 0 0-.188-.517"/><ellipse cx="14.19" cy="13.57" rx="14.19" ry="13.57" transform="rotate(93.2 4.644 23.46)scale(.048)"/><path fill="#322f18" d="M21.603 25.095c-.316.442-.815.812-1.357.921-.683.137-1.33-.136-1.753-.696-.297-.393-.464-.925-.505-1.426a4.3 4.3 0 0 1 .361-2.136c.31-.7.919-1.377 1.723-1.484 1.052-.14 1.811.706 2.065 1.665.28 1.052.11 2.254-.534 3.156m-1.233-1.988c-.005-.14-.075-.273-.195-.369s-.279-.145-.443-.14a.67.67 0 0 0-.431.172.5.5 0 0 0-.168.382c.005.141.076.274.195.37s.28.145.443.139a.67.67 0 0 0 .431-.172.5.5 0 0 0 .168-.382"/><path fill="#afce6f" d="M54.147 23.17q.088.226.417 1.116.215.58.536 1.076c.298.46.74.76 1.28.953q.712.253 1.53.289.225.72.318 1.343.093.612.186 1.736l.08.978q.18 2.28.467 6.287c.031.445.105 1.07.14 1.558q.18 2.492.347 4.982.028.426.074 1.315l.144 3.041q.09 1.923.086 5.64 0 1.122.009 2.244.008.946.059 1.431.063.606.098.77.084.396.272 1.05.195.683.254.926.328 1.352.423 2.831.077 1.17.13 2.34.014.31-.01.564a13 13 0 0 0-.046.559c-.008.292-.009.563-.034.84a27 27 0 0 1-.384 2.725 114 114 0 0 0-.452 2.417 19 19 0 0 0-.237 2.184q-.018.33-.021.958-.006 1.136-.028 1.32a7 7 0 0 1-.534 1.996.7.7 0 0 0-.068.23q0 .09.043.24.036.126-.029.176a1.5 1.5 0 0 1-.409.213c-.735.258-1.526.312-2.228-.029a1.15 1.15 0 0 1-.393-.303q-.15-.181-.324-.365a.7.7 0 0 0-.142-.127.07.07 0 0 0-.044-.008.07.07 0 0 0-.04.018.1.1 0 0 0-.022.038c-.05.21 0 .442.103.641q.263.507.777.808a2.3 2.3 0 0 1-.905-.658 2.5 2.5 0 0 1-.485-.832 3.7 3.7 0 0 0-.296-.72 9 9 0 0 1 .063-1.15q.12-1.038.273-1.912.197-1.117.41-2.229a.1.1 0 0 1 .024-.032q.024-.02.027.011c.023.313.024.646.195.922a5 5 0 0 0-.11.793c-.018.3.073.678.426.66q.178-.01.372-.176c.136-.116.366-.389.295-.58q-.039-.107-.117-.144.21-1.036.614-2.465.136-.475.598-2.331.09-.361.18-.783.13-.606.173-.785c.042-.168.061-.35.095-.538q.05-.275.066-.405.163-1.277.06-2.574a8.4 8.4 0 0 0-.996-3.377 1.04 1.04 0 0 0-.507-.477 2.44 2.44 0 0 0-1.515-.148 3.4 3.4 0 0 0-1.127.456q-.708.45-1.223 1.093A10 10 0 0 0 52 63.435a1 1 0 0 0-.071.159.03.03 0 0 0 .012.035.03.03 0 0 0 .02.004l.363-.05-.059.021q-.048.018.002.028l.046.01a2 2 0 0 1-.197.033q-.66.085-1.053-.404.555-1.318 1.19-2.582.475-.945 1.099-1.769.138-.181.388-.416c.416-.39 1.031-.533 1.581-.592q.544-.06.682.433c.193.694.408 1.286 1.083 1.626a.42.42 0 0 0 .435-.026.05.05 0 0 0 .023-.038c.012-.128-.083-.163-.197-.231q-.081-.048-.09-.091a.24.24 0 0 1 0-.124.07.07 0 0 1 .03-.038l.189-.109a.08.08 0 0 0 .037-.074q-.066-.57-.085-.925a8 8 0 0 1 .138-2.082q.194-.945.572-1.686l.263-.526c.455-.911.039-2.007-.617-2.69a17 17 0 0 1-.71-.78 2.42 2.42 0 0 1-.575-1.57c-.008-.577.095-1.103.25-1.725.179-.723.493-1.662.594-2.523.053-.453.01-.997-.242-1.368-.205-.303-.567-.516-.911-.624-.398-.125-.989-.213-1.465-.409-.525-.217-.393-.704-.19-1.092l.377-.716q.317-.602.29-1.158-.03-.601-.286-1.138c-.194-.404-.583-.516-1-.428q-.575.12-.945.33-.405.225-.28.694.057.218.109.468c.14.681-.09 1.272-.392 1.895a2.2 2.2 0 0 1-.304.477c-.226.262-.834.2-1.159.154-.538-.076-.956-.338-1.109-.876-.158-.558-.168-1.212.244-1.638q.233-.24.434-.465.322-.36.343-.843c.02-.45-.057-.912-.146-1.35a9 9 0 0 0-.183-.723q-.07-.24-.284-.992c-.123-.434-.245-.968.16-1.23.6-.39 1.772-.345 2.346-1.091a1.3 1.3 0 0 0 .27-.8c.01-.616-.373-1.149-.761-1.58l-.653-.727c-.339-.377-.654-.814-.436-1.326q.032-.078.33-.497.66-.935.823-2.082a7.2 7.2 0 0 0-.196-2.97q-.197-.703-.402-1.306a.05.05 0 0 1 .001-.031.04.04 0 0 1 .021-.023q.532-.268.651-.319c.426-.182.775.207.96.531q.107.19.259.553l.163.452q.135.375.367.685m2.076 15.336q.094.306.355.367c.402.094.79-.27.686-.68a.51.51 0 0 0-.317-.354.6.6 0 0 0-.266-.184q-.222-.09-.39-.015a.43.43 0 0 0-.253.473.68.68 0 0 0 .185.393M59.9 65.14q.057.214.244.283c.32.118.627-.125.562-.468a.39.39 0 0 0-.268-.314.5.5 0 0 0-.208-.217.3.3 0 0 0-.209-.027q-.386.101-.272.496.034.12.151.247"/><path fill="#322f18" d="M45.642 25.985c-.377.688-1.033 1.223-1.829 1.275-.638.042-1.22-.335-1.57-.861a2.6 2.6 0 0 1-.377-.965q-.24-1.275.299-2.507c.267-.61.753-1.218 1.393-1.46q.87-.33 1.6.194c.586.423.898 1.234.962 1.962q.111 1.285-.478 2.362m-1.43-1.75a.5.5 0 0 0-.203-.373.72.72 0 0 0-.767-.05.6.6 0 0 0-.222.208.5.5 0 0 0-.072.274.5.5 0 0 0 .203.372.72.72 0 0 0 .767.05.6.6 0 0 0 .222-.208.5.5 0 0 0 .072-.274"/><path fill="#b1ddb4" d="M61.84 22.222q.293 1.07.503 2.178-.175-.25-.358-.335a.3.3 0 0 0-.128-.01c-.175.011-.364.279-.413.412a4 4 0 0 0-.226 1.214 85 85 0 0 0-.062 1.92 6.4 6.4 0 0 1-.103 1.077c-.087.45-.382 1.014-.907 1.015-.49.002-.801-.353-.893-.808a2.3 2.3 0 0 1-.042-.445q0-.396.012-.79l.026-.442q0-.008.007-.006.006 0 .007.01.056.497.036 1.226-.01.363.139.732a.64.64 0 0 0 .5.414q.16.032.264-.049c.144-.113.165-.23.186-.4a.6.6 0 0 1 .046-.141.8.8 0 0 0 .07-.398 15.6 15.6 0 0 1-.087-2.592q.024-.465.11-.971.062-.362.168-.661.127-.36.421-.587a1.06 1.06 0 0 1 .637-.203.5.5 0 0 1 .17.015q.153.06.156.065.102.17.054-.023l-.24-.959-.02-.087a.5.5 0 0 0-.025-.087.7.7 0 0 1-.07-.267q0-.024.015-.036.016-.012.028.003l.02.016"/><ellipse cx="12.89" cy="11.07" fill="#fff" rx="12.89" ry="11.07" transform="rotate(-2.1 626.684 -510.123)scale(.048)"/><ellipse cx="13.18" cy="11.25" fill="#fff" rx="13.18" ry="11.25" transform="rotate(-2.7 525.453 -898.793)scale(.048)"/><path fill="#82b963" d="M62.485 25.402q.004.138.039.324.15.825.476 2.64.18 1.004.353 2.013.086.496.17.945.245 1.305.348 1.758.33 1.455.607 2.499.132.493.26.924a43 43 0 0 0 1.33 3.81q.332.825 1.13 2.766.496 1.203.67 1.825.182.648.248 1.1.078.536-.032 1.161a4 4 0 0 1-.284.914 7.2 7.2 0 0 1-.8 1.4q-.446.594-.8.962-.678.702-1.08 1.127c-.064.066-.161.134-.227.213l-.148.178q-.774.843-1.049 1.247-.419.615-.612 1.02l-.281.585q-.162.33-.258.593-.315.864-.407 1.246-.102.424-.26 1.432-.068.429-.105.954a80 80 0 0 0-.109 1.634c-.027.959-.054 2.244-.104 3.445a33 33 0 0 0-.033 1.466q.005.837.081 1.463.075.605.28 1.539.082.379.372 1.333.093.304.202.61.097.276.201.615.053.174.157.463.076.208.153.465.043.142.197.592.105.306.175.603.116.502.203.963.198 1.056.075 2.19a4.15 4.15 0 0 1-.742 1.943 2.6 2.6 0 0 1-.426.485 5.3 5.3 0 0 1-1.621.97q-.614.234-1.263.394a7.7 7.7 0 0 1-1.898.23 2.7 2.7 0 0 1-1.198-.27q-.514-.3-.777-.808c-.103-.199-.153-.432-.103-.641a.07.07 0 0 1 .063-.056.1.1 0 0 1 .043.008.7.7 0 0 1 .142.127q.174.184.324.365.156.188.393.303c.702.34 1.493.287 2.228.029q.242-.086.409-.213.065-.05.029-.175a1 1 0 0 1-.043-.242.7.7 0 0 1 .068-.229 7 7 0 0 0 .534-1.995q.022-.184.028-1.32.004-.628.02-.96.063-1.156.238-2.183.135-.797.452-2.417.26-1.335.384-2.726c.025-.276.026-.547.034-.84q.004-.115.046-.558.025-.254.01-.564-.053-1.17-.13-2.34a16.6 16.6 0 0 0-.423-2.831q-.059-.243-.254-.925a16 16 0 0 1-.272-1.052q-.035-.164-.098-.769a16 16 0 0 1-.059-1.431 262 262 0 0 1-.009-2.244q.004-3.717-.086-5.64a845 845 0 0 0-.144-3.04q-.045-.89-.074-1.316-.165-2.49-.347-4.982c-.035-.488-.109-1.113-.14-1.558a793 793 0 0 0-.547-7.265 28 28 0 0 0-.186-1.736 9 9 0 0 0-.318-1.343l.549-.038.086.16a1 1 0 0 0 .03.16q.03.097.03.16.004.573-.023 1.079-.04.747.141 1.328c.144.458.445.818.928.917q.29.059.628-.126a2.15 2.15 0 0 0 1.113-1.515q.08-.39.102-.785.018-.307.029-1.327.008-.892.14-1.686.03-.194.119-.347.031-.055.086-.021c.063.039.15.106.205.173q.25.305.412.666m-2.274 12.096c.156.524.569 1.03 1.112 1.162.467.113.835-.144 1.007-.57a1.38 1.38 0 0 0-.026-1.082c-.237-.526-.76-.943-1.366-.944a.74.74 0 0 0-.642.378 1.38 1.38 0 0 0-.085 1.056m6.737 11.16q.222-.309.394-.646a3.2 3.2 0 0 0 .327-1.025q.028-.195.01-.422a.33.33 0 0 0-.056-.165.09.09 0 0 0-.128-.023.4.4 0 0 0-.114.125q-.132.228-.286.565a7 7 0 0 1-.598 1.076q-.505.72-1.179 1.25a5.5 5.5 0 0 1-1.822.94q-.12.038-.053.132.124.178.377.187.392.012.75-.124a5.3 5.3 0 0 0 1.18-.631q.368-.26.724-.651.249-.276.474-.587m-3.858 3.864a.35.35 0 0 0-.166-.22.38.38 0 0 0-.55.21.35.35 0 0 0 .16.406.378.378 0 0 0 .55-.21.35.35 0 0 0 .006-.186m-.354 20.248a.377.377 0 1 0-.755 0 .377.377 0 0 0 .755 0m-1.403 3.33q.076.162.24.285.008.006.017.006c.01 0 .012-.002.017-.005s.008-.01.01-.015v-.02c.426.239.926.099 1.135-.348a.8.8 0 0 0 .044-.632q-.185-.498-.76-.534a1.3 1.3 0 0 0-.29-.13.7.7 0 0 0-.542.068.674.674 0 0 0-.234.914q.045.083.171.213zm1.35 1.808a.285.285 0 0 0-.285-.25.7.7 0 0 0-.49.174q-.15.128-.135.26c.014.138.12.23.246.266.21.06.466.055.604-.125q.088-.115.06-.325m-1.71.64a.12.12 0 0 0-.07-.054.25.25 0 0 0-.113-.006.4.4 0 0 0-.237.124.25.25 0 0 0-.06.097.12.12 0 0 0 .005.088.12.12 0 0 0 .07.054q.047.015.113.006a.4.4 0 0 0 .237-.124.25.25 0 0 0 .06-.097.12.12 0 0 0-.006-.088m.452.687q.131-.065.3-.184c.1-.071.117-.176.003-.24q-.303-.173-.623.046c-.22.15.125.474.32.378m-1.16.062a.35.35 0 0 0 .026-.271.375.375 0 0 0-.362-.265q-.097 0-.18.048a.27.27 0 0 0-.13.13.35.35 0 0 0-.026.27.377.377 0 0 0 .543.218.34.34 0 0 0 .128-.13"/><path fill="#c6d875" d="M62.485 25.402a.25.25 0 0 0 .058.098q.07.282.129.563.592 2.87 1.005 4.93.197.979.572 2.513a49 49 0 0 0 2.453 7.352q.622 1.474 1.066 2.572.295.728.52 1.468.17.555.224.931.198 1.36-.392 2.685a7.5 7.5 0 0 1-1.063 1.707q-.262.318-.54.62-.14.153-.575.585-.6.599-1.22 1.296a10.1 10.1 0 0 0-2.084 3.64q-.315.97-.481 2.035a27 27 0 0 0-.286 3.044q-.032.814-.11 3.171-.034 1.032.008 1.712.074 1.182.363 2.263.261.975.516 1.752.51 1.56.904 2.993.315 1.143.448 2.267.077.639.022 1.314a4 4 0 0 1-.181.94 3.75 3.75 0 0 1-1.001 1.582c-.784.737-1.828 1.155-2.89 1.393q-.951.213-1.77.253a5 5 0 0 1-1.45-.132q-1.383-.338-1.777-1.694a4.4 4.4 0 0 1-.164-1.294q.15.26.296.72.129.41.485.832a2.3 2.3 0 0 0 .905.659q.543.266 1.198.27a7.7 7.7 0 0 0 1.898-.23q.648-.162 1.263-.395.9-.342 1.621-.97.226-.197.426-.485.63-.91.742-1.943a7.4 7.4 0 0 0-.075-2.19 24 24 0 0 0-.203-.962q-.069-.299-.175-.604-.154-.45-.197-.592a9 9 0 0 0-.152-.465 10 10 0 0 1-.158-.463 14 14 0 0 0-.201-.615q-.11-.306-.202-.61a20 20 0 0 1-.373-1.333 18 18 0 0 1-.278-1.539 13 13 0 0 1-.082-1.463q-.002-.64.033-1.466c.05-1.2.077-2.486.104-3.445q.005-.186.11-1.634.036-.525.104-.954.158-1.008.26-1.432.092-.382.407-1.246.096-.263.258-.593l.281-.585q.194-.405.612-1.02.275-.405 1.05-1.247l.147-.178c.066-.079.163-.147.226-.213q.404-.425 1.08-1.127.356-.368.801-.961a7.2 7.2 0 0 0 .8-1.4 3.9 3.9 0 0 0 .316-2.077 9 9 0 0 0-.247-1.099q-.176-.621-.67-1.825a395 395 0 0 1-1.13-2.766 43 43 0 0 1-1.331-3.81 33 33 0 0 1-.26-.924 70 70 0 0 1-.607-2.5 59 59 0 0 1-.348-1.757 64 64 0 0 1-.17-.945q-.173-1.01-.353-2.013-.326-1.815-.476-2.64a2.4 2.4 0 0 1-.039-.324"/><path fill="#82b963" d="M20.491 26.379a6 6 0 0 0 1.427-.36 1 1 0 0 1 .144-.039l.144-.022a.051.051 0 0 1 .05.078 1.4 1.4 0 0 1-.3.348 4.3 4.3 0 0 1-1.911.931 3.5 3.5 0 0 1-.779.076q-.476-.005-.756-.15-.505-.261-.576-.931a1 1 0 0 1 .008-.253q.011-.072.08-.045c.339.14.575.247.87.307a5 5 0 0 0 1.6.06"/><path fill="#509d26" d="M60.28 30.244q-.34.185-.629.126c-.483-.1-.784-.459-.928-.917q-.181-.58-.141-1.328.027-.505.022-1.08a.6.6 0 0 0-.03-.158 1 1 0 0 1-.03-.16q.128.45.14.93.012.485.042 1.032.02.362.118.675c.053.17.196.431.336.567.304.297.686.36 1.1.313"/><path fill="#82b963" d="M41.875 27.493q.4.08 1.112.135a5.2 5.2 0 0 0 1.595-.117q.353-.081.764-.203a.7.7 0 0 1 .23-.03.06.06 0 0 1 .04.1c-.06.065-.138.149-.223.204a5.7 5.7 0 0 1-1.573.722 4.2 4.2 0 0 1-1.365.14 2.8 2.8 0 0 1-1.242-.372 2 2 0 0 1-.575-.476.63.63 0 0 1-.133-.288.05.05 0 0 1 .018-.047l.025-.01a1 1 0 0 1 .257.025q.223.049 1.07.217"/><path fill="#322f18" d="M20.132 30.22q.167.133.29.202a16.4 16.4 0 0 0 3.669 1.515q1.672.463 3.412.73 4.093.63 8.185.33a25 25 0 0 0 3.4-.482 18 18 0 0 0 1.079-.281q.525-.15.875-.323.386-.237.74-.38.133-.052.386-.105c.468-.094 1 .094 1.067.63q.033.265-.042.543-.08.296-.266.806-.106.291-.296.797-.441 1.176-1.02 2.238-1.112 2.038-2.93 3.32-1.818 1.28-4.046 1.762-1.168.254-2.295.317-1.536.087-3.142-.067a17.4 17.4 0 0 1-2.99-.551 10.8 10.8 0 0 1-3.151-1.421 8.84 8.84 0 0 1-2.8-2.965 13 13 0 0 1-1.023-2.29 31 31 0 0 1-.485-1.548q-.449-1.593-.664-2.388c-.117-.43-.105-.915.353-1.095.36-.14.808.062 1.116.288q.294.214.578.418m1.228 1.68q-.026.504.07.884c.078.303.239.557.494.72.386.25.91.179 1.253-.115q.41-.35.462-.872a.096.096 0 0 0-.07-.102q-1.17-.33-2.17-.811a.016.016 0 0 0-.024.014zm1.223 3.692q-.255.34-.444.77a1.55 1.55 0 0 0-.144.694c.007.172.101.423.283.49.21.077.408-.063.498-.252q.096-.2.115-.406a2.17 2.17 0 0 0-.264-1.293q-.02-.035-.044-.003m2.471 1.833q.052.01.1-.009a.17.17 0 0 0 .085-.06.217.217 0 0 0-.016-.291.18.18 0 0 0-.19-.037.2.2 0 0 0-.084.06.22.22 0 0 0-.04.204q.017.052.056.087a.15.15 0 0 0 .09.046m.45 2.093q-.389.227-.754.485a.036.036 0 0 0-.011.045q.006.012.018.017 1.815.765 3.822 1.018 2.063.259 3.942.127 1.585-.111 3.13-.609.664-.215 1.414-.578a.044.044 0 0 0 .024-.049.04.04 0 0 0-.015-.025 6.3 6.3 0 0 0-2.402-1.264 11.6 11.6 0 0 0-2.091-.369c-1.748-.15-3.556-.042-5.229.423a7.7 7.7 0 0 0-1.849.779"/><path fill="#82b963" d="M41.042 31.91a5.3 5.3 0 0 1-.875.324q-.708.202-1.079.28a25 25 0 0 1-3.4.483q-4.092.3-8.185-.33a30 30 0 0 1-3.412-.73 16.4 16.4 0 0 1-3.669-1.515 2 2 0 0 1-.29-.202.7.7 0 0 1 .229.132q.019.016.042.007a.05.05 0 0 1 .042.002q.023.01.044-.003c.271-.182.499-.073.77.016q.131.043.283.118.565.28 1.162.488l.111.047q.043.019.114.043.308.109.497.16l.11.045q.037.014.119.039.567.168 1.285.352.501.128.932.207l.97.19q.503.1.951.16.477.063.955.119 1.474.174 2.401.204l.947.029q.516.015.948.009a35 35 0 0 0 3.28-.201q.565-.063 1.538-.235.695-.123 2.308-.57.142-.039.316-.054a.5.5 0 0 1 .307.054q.18.104.25.333"/><path fill="#fff" d="m21.36 31.9.015-.282a.016.016 0 0 1 .023-.014q1.002.482 2.171.81a.095.095 0 0 1 .07.103q-.053.521-.462.872c-.343.294-.867.364-1.253.115-.255-.163-.416-.417-.493-.72a3 3 0 0 1-.071-.883"/><ellipse cx="8.53" cy="8.21" rx="8.53" ry="8.21" transform="rotate(91.2 -9.071 22.907)scale(.048)"/><path fill="#afce6f" d="M16.596 33.425q.27.142.385.451.104.28.003.552-.145.384-.57.462a.36.36 0 0 1-.24-.044l-.047-.044q-.117-.107.037-.144.397-.096.472-.308.169-.474-.172-.771a.6.6 0 0 1-.06-.133q-.01-.024.016-.027.134-.017.176.006"/><ellipse cx="11.68" cy="11.48" rx="11.68" ry="11.48" transform="rotate(102 -5.297 23.48)scale(.048)"/><path fill="#d18c66" d="M22.583 35.592q.024-.032.044.003.333.6.264 1.293a1.2 1.2 0 0 1-.115.406c-.09.19-.288.33-.498.252-.182-.067-.276-.318-.283-.49q-.014-.337.144-.695a4 4 0 0 1 .444-.769"/><path fill="#322f18" d="M60.21 37.498a1.38 1.38 0 0 1 .086-1.056.74.74 0 0 1 .642-.378c.606.001 1.13.418 1.366.944.156.346.165.74.026 1.081-.172.427-.54.684-1.007.57-.543-.13-.956-.637-1.112-1.161m.484.176c.151.29.415.549.736.604q.274.047.422-.153c.226-.305.224-.745.048-1.081-.174-.335-.534-.59-.914-.579q-.249.007-.367.26c-.138.294-.077.658.075.949"/><circle cx="12.514" cy="36.658" r=".241"/><path fill="#c6d875" d="M61.9 37.044c.176.336.178.776-.048 1.081q-.149.201-.422.153c-.321-.055-.585-.314-.736-.604s-.213-.655-.075-.95q.118-.252.367-.259c.38-.01.74.244.914.579"/><ellipse cx="4.31" cy="4.04" fill="#afce6f" rx="4.31" ry="4.04" transform="rotate(101 -2.611 28.966)scale(.048)"/><path fill="#fff" d="M56.947 37.839a.56.56 0 0 0-.477.092q-.274.206-.247.575a.68.68 0 0 1-.185-.393.43.43 0 0 1 .252-.473q.17-.075.39.015.19.075.267.184"/><path d="M56.947 37.839q.255.109.317.353c.105.411-.284.775-.686.68q-.26-.06-.355-.366-.027-.37.247-.575a.56.56 0 0 1 .477-.092"/><path fill="#d18c66" d="M25.503 39.518a7.7 7.7 0 0 1 1.85-.78c1.672-.464 3.48-.571 5.228-.422q1.09.093 2.091.37a6.3 6.3 0 0 1 2.402 1.263.044.044 0 0 1-.009.074q-.75.363-1.414.578-1.545.498-3.13.61a20.3 20.3 0 0 1-3.942-.128 14.4 14.4 0 0 1-3.822-1.018.036.036 0 0 1-.007-.062q.366-.258.753-.485"/><ellipse cx="31.44" cy="17.8" fill="#fff" rx="31.44" ry="17.8" transform="rotate(115.3 -6.125 23.814)scale(.048)"/><path fill="#356a09" d="M11.95 43.523h-.012c-.397-.355-.824-.698-1.299-.942a2 2 0 0 0-.897-.233 1.78 1.78 0 0 0-1.404.623 4.5 4.5 0 0 0-.478.637q-.49.794-.566.897-.22.293-.436.464c-.326.256-.826.324-1.146.03q-.198-.183-.179-.504.02-.327.125-.834a.4.4 0 0 0 .002-.148.04.04 0 0 0-.03-.03 4.1 4.1 0 0 0-1.418-.031 1 1 0 0 1 .207-.287q.794-.045 1.254.035c.15.026.512.096.5.263q-.012.147-.02.187c-.077.333-.177.668-.194 1.01q-.006.118.057.157c.16.098.4-.048.517-.161q.157-.151.344-.447l.58-.908q.304-.476.805-.85.972-.55 1.985-.199.236.083.56.284.65.402 1.143.987"/><path fill="#afce6f" d="M11.95 43.523a.1.1 0 0 1 .034.02.013.013 0 0 1-.018.018.1.1 0 0 1-.028-.038z"/><path fill="#82b963" d="M35.298 44.983c-.214-.165-.605-.064-.831.033q-.301.128-.68.352l-1.112.663a6 6 0 0 1-.593.282 4.3 4.3 0 0 1-1.576.35c-.905.025-1.772-.247-2.534-.75a17 17 0 0 1-.976-.692 5.3 5.3 0 0 0-1.02-.627 1.5 1.5 0 0 0-.776-.13c-.353.033-.523.299-.57.624a.032.032 0 0 1-.053.02.23.23 0 0 1-.066-.096 2.4 2.4 0 0 1-.157-.646c-.041-.47.226-.775.689-.787q.26-.006.484.065c.438.14 1.005.37 1.443.501q1.08.324 2.061.452 1.52.196 3.028.088.685-.049 1.12-.137.909-.18 2.003-.534.282-.092.483-.08c.549.032.33.757.191 1.044q-.098.205-.255.448-.057.09-.078-.015c-.032-.166-.086-.32-.225-.428"/><path fill="#fff" d="M10.926 44.933q.004.044-.038.06a1.36 1.36 0 0 0-.68.555q-.267.428-.037.937.031.072.059.145l-.018.036a.06.06 0 0 1-.026.024q-.662.31-1.25-.066-.575-.37-.624-1.076c-.048-.702.341-1.382 1.033-1.544.717-.17 1.353.226 1.58.93"/><path fill="#b1ddb4" d="M10.945 44.993q.072.403-.024.802-.06.252-.198.425a3 3 0 0 1-.422.421l-.071-.01a2 2 0 0 0-.06-.146q-.229-.51.038-.937a1.36 1.36 0 0 1 .68-.555q.041-.016.038-.06a.08.08 0 0 0 .019.06"/><path fill="#afce6f" d="M10.301 46.641q.264-.225.422-.421.138-.173.198-.425.096-.399.024-.802.024-.062.124-.033.74.214.94.873c.135.449.044.97-.176 1.365a2.7 2.7 0 0 1-.597.722 4.5 4.5 0 0 1-1.242.771 3 3 0 0 1-.726.193q-.077.01-.026-.049.537-.615.797-1.41a7 7 0 0 1 .215-.523q.023-.051.047-.26"/><ellipse cx="16.48" cy="12.19" fill="#fff" rx="16.48" ry="12.19" transform="rotate(-.9 2887.664 -223.756)scale(.048)"/><path fill="#c6d875" d="M66.474 49.246a4.5 4.5 0 0 1-.725.651 5.3 5.3 0 0 1-1.18.63q-.356.137-.749.125-.253-.009-.377-.187-.066-.095.053-.131a5.5 5.5 0 0 0 1.822-.94 6 6 0 0 0 1.179-1.251 7 7 0 0 0 .598-1.076q.154-.337.286-.565a.4.4 0 0 1 .114-.125.09.09 0 0 1 .128.023.33.33 0 0 1 .057.165q.017.227-.01.422a3.2 3.2 0 0 1-.328 1.025q-.172.336-.394.647a7 7 0 0 1-.474.587"/><path fill="#82b963" d="M10.831 50.98q-.002-.068-.014-.065a.06.06 0 0 0-.047.047 9.4 9.4 0 0 0-.195 1.922q0 .4.036 1.452.01.288-.08.595c-.145.5-.837.973-1.235.38a1.1 1.1 0 0 1-.188-.66q.017-.475.102-.919.126-.423.154-.854c.032-.485-.09-1.044-.43-1.388a1.56 1.56 0 0 0-.967-.451 4 4 0 0 0-.728-.015q-.492.034-.828.033a6.3 6.3 0 0 1-1.656-.235 3 3 0 0 1-.519-.21q-.246-.127-.497-.263a3 3 0 0 1-.439-.486q.15.006.291.033.232.047.287.053a10 10 0 0 0 1.832.056l.605-.038q.292-.02.598-.058.82-.105 1.304-.173a8 8 0 0 1 1.19-.079q.804.009 1.209.663.18.294.215.66"/><path fill="#c6d875" d="M9.21 53.732q.045-.629-.018-1.112-.134-1.017-1.15-1.26a3 3 0 0 0-.659-.052q-.483.01-.903.002c-.718-.011-1.506-.15-2.128-.51a3 3 0 0 1-.613-.45q.251.135.497.261.29.148.52.21a6.3 6.3 0 0 0 1.655.236q.336 0 .828-.033a4 4 0 0 1 .728.015q.589.066.967.45c.34.345.462.904.43 1.389q-.028.43-.154.854"/><ellipse cx="7.73" cy="7.45" rx="7.73" ry="7.45" transform="rotate(-13.7 249.036 -233.066)scale(.048)"/><path fill="#afce6f" d="M30.767 56.587q.157.371.562.286.288.24.71.438c.499.232.701-.158.86-.564.209-.535.341-.954.64-1.308.234-.277.531-.303.882-.266.524.055.984.103 1.398-.005q.55-.143.95-.602c.234-.268.382-.463.595-.778q.301-.447.541-.7c.326-.347.714-.32 1.094-.05.317.225.602.58.667.967q.048.287.012.482a7 7 0 0 0-.099.663.1.1 0 0 0 .06.098c.25.105.459.099.782.096q.418-.006.667-.048.42-.072.64-.1.13-.015.252-.004a.05.05 0 0 1 .037.025q.098.188.105.223c.146.607.323 1.154.763 1.602.078.079.197.107.275.019a.05.05 0 0 0 .01-.042l-.036-.17c-.071-.271-.198-.627-.229-.948q-.12-1.282.958-2.042a8 8 0 0 1 1.094-.625c.46-.225 1.284-.573 1.737-.22.185.145.282.391.374.614.149.358.39.533.803.408q.397-.12.647-.18.196-.048.553-.053c1.28-.022 1.937 1.18 2.148 2.27q.154.798.175 1.622.01.36-.007.96a16 16 0 0 1-.179 2.049q-.101.65-.287 1.594a3 3 0 0 0-.024.632c-.16-.464-.143-.99-.117-1.487q.075-1.45.03-2.402a7 7 0 0 0-.247-1.566c-.188-.657-.67-1.343-1.377-1.496l-.024-.047a.3.3 0 0 1 .162.05.02.02 0 0 0 .02 0l.013-.006q.02-.012.001-.024c-.145-.108-.252-.228-.421-.334a6 6 0 0 0-1.12-.545 2.56 2.56 0 0 0-1.978.077 2.1 2.1 0 0 0-.561.367c-.24.217-.353.498-.388.807q-.075.672-.074 1.252v2.4q-.006.892-.148 2.525a66 66 0 0 1-.283 2.427 8.5 8.5 0 0 1-.308 1.424q-.138.445-.41.691a.73.73 0 0 1-.558.192.6.6 0 0 1-.375-.152 2.7 2.7 0 0 1-.422-.423.2.2 0 0 0-.076-.06q-.01-.006-.022-.003c-.012.003-.014.005-.019.01a.04.04 0 0 0-.01.02l-.072.472q-.005.044-.02.002a.7.7 0 0 0-.068-.144q-.066-.1-.035.015.014.057.062.163a.5.5 0 0 0-.131.093 4 4 0 0 1-.239-.968 8 8 0 0 1-.02-1.741q.11-1.095.195-2.19a.2.2 0 0 1 .059.047q.023.032.027-.007a97 97 0 0 0 .101-.917 13.6 13.6 0 0 0 .057-2.098 13 13 0 0 0-.09-.955q-.048-.369-.166-1.243a6 6 0 0 0-.145-.779.79.79 0 0 0-.491-.561 1 1 0 0 0-.348-.057c-.458-.004-.902.145-1.322.353q-.776.383-.957.47c-.289.138-.715.295-.985.118q-.4-.262-.64-.404-1.014-.609-1.946-.103-.366.199-.714.631-.373.465-.6.91-.555 1.09-.918 2.35-.178.616-.36 1.201a1.3 1.3 0 0 0-.493.065.7.7 0 0 0-.358.287.83.83 0 0 0-.117.42q-.028.72.683.948-.04.075-.062.301a30 30 0 0 0-.128 2.394l-.022 1.968a8 8 0 0 1-.11 1.19q-.09.567-.416.97c-.387.476-1.065.721-1.683.768-.196.015-.305-.085-.423-.236a2 2 0 0 1-.128-.177c-.44-.717-.763-1.256-1.24-1.85a5.5 5.5 0 0 0-.695-.705q-.27-.234-.678-.43-.594-.29-.731-.34a39 39 0 0 1-.532-.198q-.27-.104-.535-.183-.487-.147-1.038-.346c-.19-.07-.391-.143-.516-.287a.1.1 0 0 1-.018-.042l-.018-.15.046-.448q.045-.099.072-.189l.18-.58q.093-.298.2-.571.48-1.23.789-2.178.408-1.248.54-2.016a8.3 8.3 0 0 0-.037-2.969c-.086-.45-.225-.904-.475-1.286a1.37 1.37 0 0 0-.673-.54 2.3 2.3 0 0 0-.541-.136 4 4 0 0 0-.81-.02q-1.089.086-2.209.42-.977.292-1.649.583-.711.31-1.413.65-1.538.747-3.212.967a.215.215 0 0 0-.188.16q-.075.234-.16.46a1.9 1.9 0 0 1-.495-.489c-.21-.324-.154-.66-.076-1.026q.142-.66.425-1.301.226-.514.474-.831a3.54 3.54 0 0 1 1.436-1.08 9 9 0 0 1 1.18-.415 13.6 13.6 0 0 1 4.058-.495c.572.02 1.122.104 1.707.212a9.7 9.7 0 0 1 2.912 1.035c.319.175.655.368.894.625q.062.066-.028.063a3 3 0 0 1-.314-.038l-1.114-.211a1.4 1.4 0 0 0-.361-.026.07.07 0 0 0-.065.065q-.028.396.155.774l.347.69q.2.397.416 1.106.357 1.173.168 2.403c-.047.306-.15.668-.228.972a.095.095 0 0 0 .038.102c.43.305.543.761.608 1.272.104.818.087 1.365.109 2.49q.004.279.081.525a.136.136 0 0 0 .163.091.76.76 0 0 0 .415-.266c.271-.334.529-.72.913-.965.188-.12.478-.182.65-.318q.127-.1.19-.392.436-2.025.981-4.28.196-.81.355-1.793.029-.172.092-.316a.1.1 0 0 1 .107-.057q.214.04.382.129.309.165.57.373m12.151 2.254q-.012.42-.02.562-.014.275-.042.56a45 45 0 0 1-.339 2.497q-.109.684-.146 1.404-.012.238.037.492c.065.342.408.521.696.275.165-.142.406-.431.375-.663a.05.05 0 0 0-.011-.026 1 1 0 0 0-.242-.209q-.094-.06-.106-.147a7.6 7.6 0 0 1-.035-1.123q.03-1.046.068-1.935a15 15 0 0 0-.027-1.818l-.006-.15a.65.65 0 0 0-.064-.268.237.237 0 0 0-.402-.037c-.155.209.028.44.217.515a.08.08 0 0 1 .047.07m.067 7.71c.297.005.492.101.683.333a.037.037 0 0 0 .063-.013q.158-.53.29-1.098.135-.579.154-.696.061-.372.037-.716a.1.1 0 0 0-.04-.072 2.4 2.4 0 0 0-.394-.233.05.05 0 0 0-.058.01q-.583.6-.714 1.417-.09.556-.062 1.03a.04.04 0 0 0 .041.039m-17.596-1.539a.4.4 0 0 0-.095-.243q-.09-.111-.239-.171c-.149-.06-.207-.057-.318-.052a.8.8 0 0 0-.311.08q-.142.074-.223.192c-.08.118-.077.165-.073.252a.4.4 0 0 0 .096.243q.09.111.239.171c.149.06.207.057.317.052a.8.8 0 0 0 .312-.08q.143-.074.222-.192c.08-.118.077-.165.073-.252"/><path fill="#82b963" d="M3.378 53.64a.004.004 0 0 1 .005-.005q.009 0 .012.005.004.011-.009.01-.005-.001-.008-.01m19.829 11.564c.154-1.187.335-2.363.46-3.55a9.4 9.4 0 0 0 .036-1.803 1 1 0 0 0-.103-.57 4 4 0 0 1-.104-.24 2 2 0 0 0-.098-.205l-.075-.133a1 1 0 0 0-.077-.134 3.6 3.6 0 0 0-.46-.534q-.462-.45-.967-.726a3.8 3.8 0 0 0-.754-.33 2.8 2.8 0 0 0-.809-.104q-.552.01-1.085.18a10 10 0 0 0-.428.157q-.197.075-.371.198-.087.06-.24.15a2 2 0 0 0-.23.161q-.366.285-.687.599a5 5 0 0 0-.432.492q-.357.46-.398.521-.393.597-.432.66-.435.723-.59 1.104-.097.248-.315.823-.15.396-.302 1.099-.04.186-.15 1.15-.057.515-.193 1.617-.073.592-.082.954-.036 1.575.323 3.083.24 1.003.515 2.03.03.114.269 1.143.114.493.169.874.082.573.114.884.06.595.055 1.231a5.8 5.8 0 0 1-.222 1.566q-.448 1.56-1.937 2.213c-.768.337-1.583.487-2.446.542-.58.038-1.154-.017-1.693-.242a1.87 1.87 0 0 1-1.135-1.275.8.8 0 0 1-.033-.274.05.05 0 0 1 .02-.04.6.6 0 0 1 .197-.108c.63-.193 1.2-.407 1.662-.821q.478-.429.803-.996c.29-.506.483-1.053.65-1.62q.128-.432.212-.847.305-1.494.465-3.127.264-2.686.432-5.413.025-.42.069-.957.18-2.211.385-3.965.15-1.27.426-2.663.084-.225.16-.46a.215.215 0 0 1 .188-.16 10.4 10.4 0 0 0 3.212-.966q.702-.34 1.413-.65.672-.291 1.649-.583a10.6 10.6 0 0 1 2.21-.42q.4-.03.809.02.273.033.54.136.426.164.674.54c.25.382.39.836.475 1.286a8.3 8.3 0 0 1 .036 2.969q-.13.768-.54 2.016-.31.948-.788 2.178a9 9 0 0 0-.2.572l-.18.579q-.027.09-.072.189m25.955-9.272a1.66 1.66 0 0 0-.809-.091q-.504.063-.897.352a3 3 0 0 0-.836.925q-.29.495-.466 1.131-.126.455-.182.744a23 23 0 0 0-.134.816q-.08.518-.1.818-.036.563-.071.91-.043.431-.074.912a128 128 0 0 1-.12 1.74q-.1 1.268-.36 2.202a4.5 4.5 0 0 1-.498 1.156q-.313.507-.75.713-.562.262-1.084-.114a1.95 1.95 0 0 1-.73-1.011 1 1 0 0 1-.061-.162q-.03-.117.035-.016.04.06.068.144.014.041.02-.002l.072-.471a.04.04 0 0 1 .03-.031.04.04 0 0 1 .021.002.2.2 0 0 1 .076.06q.209.256.422.424a.6.6 0 0 0 .375.152.73.73 0 0 0 .558-.192q.272-.246.41-.691.21-.678.308-1.424.217-1.674.283-2.427.142-1.633.148-2.525v-2.4q0-.58.074-1.252c.035-.309.147-.59.388-.807q.255-.23.561-.367a2.56 2.56 0 0 1 1.978-.077q.58.208 1.12.545c.169.106.276.226.421.334q.018.012-.001.024l-.013.007a.02.02 0 0 1-.02 0 .3.3 0 0 0-.162-.051"/><path fill="#a4a5ae" d="m6.525 55.165-.005.06z"/><path fill="#afce6f" d="M26.885 58.428a21 21 0 0 1-.046-1.626q.009-.453.114-.8a.7.7 0 0 1 .19-.298.05.05 0 0 1 .084.027q.078.389.04.794-.052.565-.184 1.256-.075.398-.153.656a.02.02 0 0 1-.016.013.03.03 0 0 1-.023-.009.02.02 0 0 1-.006-.013"/><path fill="#82b963" d="m41.856 62.33.016-.794q.021-.9-.133-1.66a3 3 0 0 0-.339-.906c-.342-.588-.942-.838-1.616-.895q-.594-.05-1.457.122c-.794.158-1.466.493-1.978 1.118q0-.022-.004-.025a.03.03 0 0 0-.018-.006q-.01 0-.019.003a.04.04 0 0 0-.015.014q-.127.18-.394.514-.27.336-.533.943a8 8 0 0 0-.41 1.245q-.077.302-.167.896a52 52 0 0 0-.2 1.42q-.03.244-.037.326-.024.257-.19 2.124a61 61 0 0 0-.12 1.953l-.05.958q-.05.85-.052.964-.023.872-.081 2.665-.019.59-.05.958l-.1 1.446q-.058.811-.094 1.027a16 16 0 0 0-.111.816 11 11 0 0 1-.173 1.021q-.014.069-.182.667-.07.256-.161.487l-.189.478a5 5 0 0 1-.402.76q-.446.72-1.161 1.191a3.4 3.4 0 0 1-1.003.461q-.408.105-.936.073a3.7 3.7 0 0 1-.98-.187 7 7 0 0 1-.423-.189 5 5 0 0 0-.43-.177 1.1 1.1 0 0 1-.232-.218 4.7 4.7 0 0 1-.878-1.603 8.4 8.4 0 0 1-.36-2.51 4.7 4.7 0 0 1 .257-1.51l.489-1.48q.418-1.273.67-2.545.092-.475.14-1.103a3.7 3.7 0 0 0-.107-1.215q-.21-.822-.96-1.163a2 2 0 0 0-.364-.11 12 12 0 0 1-.37-.09 3.6 3.6 0 0 0-.641-.094 2.6 2.6 0 0 1-1.13-.29 1.2 1.2 0 0 1-.306-.213 5 5 0 0 1-.25-.288 1.7 1.7 0 0 1-.294-.484q-.021-.057-.077-.055a2 2 0 0 1-.067-.247 4.4 4.4 0 0 1-.023-1.271l.018.15q.003.024.018.042c.125.145.325.218.516.287q.55.2 1.038.346.264.08.535.184.163.062.532.197.137.05.731.34.408.197.678.43.416.36.695.705c.477.594.8 1.133 1.24 1.85q.04.066.128.177c.118.15.227.25.422.236.619-.047 1.297-.292 1.684-.768q.326-.403.416-.97.103-.65.11-1.19l.022-1.968a30 30 0 0 1 .128-2.394q.021-.226.062-.3.12-.046-.1-.194l.088-.136q.149.24.386.273c.466.065.87-.276.926-.738q.045-.36-.182-.568c-.232-.213-.545-.3-.832-.151l-.192-.021q.166-.06.19-.186.183-.585.36-1.2.365-1.262.919-2.351.227-.445.6-.91.348-.433.714-.63.932-.507 1.947.102.238.143.64.404c.27.177.695.02.984-.119q.18-.086.957-.47c.42-.207.864-.356 1.322-.352q.21.002.348.057.381.15.491.561.083.31.145.779l.166 1.243q.068.525.09.955a13.6 13.6 0 0 1-.057 2.098 97 97 0 0 1-.1.917q-.006.04-.028.008a.2.2 0 0 0-.06-.047m-13.421 8.44a.07.07 0 0 1 .03.066q-.08.68-.23 1.355-.135.605-.551 2.109c-.14.507-.273 1.001-.336 1.458a2 2 0 0 0-.026.519c.048.356.386.459.662.257a1.1 1.1 0 0 0 .264-.273c.124-.18.054-.328-.059-.468-.079-.097-.082-.244-.08-.35q0-.253.046-.575c.143-1.016.4-2.19.51-3.204q.077-.712.038-1.174-.02-.22-.213-.26c-.28-.054-.366.293-.183.449q.043.037.128.091m3.908 2.453a.44.44 0 0 0-.219-.262.47.47 0 0 0-.667.293.43.43 0 0 0 .222.493.47.47 0 0 0 .668-.293.43.43 0 0 0-.004-.23m-4.781 6.236a1.7 1.7 0 0 0-.298.206q-.193.18-.125.362.05.135.23.234.27.15.557.125.35-.032.798-.236.21-.096.269-.211.102-.202-.072-.398-.212-.24-.613-.255a1.36 1.36 0 0 0-.746.173m2.94 2.02c-.012-.064-.075-.116-.174-.143a.88.88 0 0 0-.583.078q-.104.054-.156.123c-.052.07-.048.092-.04.134.013.064.076.116.174.143s.225.029.352.003a1 1 0 0 0 .232-.08.5.5 0 0 0 .156-.124q.052-.07.04-.134"/><path fill="#c6d875" d="m49.162 55.932.024.047a1.64 1.64 0 0 0-1.187.217q-.445.27-.73.709a4.4 4.4 0 0 0-.56 1.264c-.21.77-.316 1.519-.391 2.323q-.087.928-.184 2.641-.07 1.227-.175 2.137-.061.535-.189 1.14c-.21 1.004-.808 2.613-2.138 2.39a1.94 1.94 0 0 1-1.234-.726q-.299-.375-.477-.846a.5.5 0 0 1 .13-.093q.202.63.73 1.011.522.377 1.083.114.439-.206.75-.713a4.5 4.5 0 0 0 .499-1.156q.26-.934.36-2.202.05-.648.12-1.74.03-.48.074-.911.034-.348.072-.911.02-.3.1-.819.09-.594.133-.815.056-.289.182-.744.177-.636.466-1.13.318-.547.836-.926.393-.29.897-.352.425-.054.81.091"/><path fill="#fff" d="M31.33 56.873q-.406.085-.563-.286-.032-.252.147-.38a.45.45 0 0 1 .64.105c.154.214.015.472-.225.56m11.589 1.968a.07.07 0 0 0-.047-.07c-.19-.075-.372-.306-.217-.515a.237.237 0 0 1 .402.037q.057.114.064.268l.006.15q.067.873.027 1.818-.038.89-.068 1.935-.02.679.035 1.123.012.086.106.147.142.09.242.21l.01.025c.032.232-.209.521-.374.663-.288.246-.63.067-.696-.275a2 2 0 0 1-.037-.492q.037-.72.146-1.404.24-1.512.339-2.497.028-.285.043-.56.007-.143.02-.562"/><path fill="#c6d875" d="M36.349 59.315q-.43.527-.677 1.196a8 8 0 0 0-.306 1.002q-.148.662-.254 1.406a40 40 0 0 0-.21 1.712q-.362 3.74-.442 6.56a222 222 0 0 1-.133 3.692 41 41 0 0 1-.183 2.448 14 14 0 0 1-.437 2.288q-.134.474-.365 1.015a5 5 0 0 1-.84 1.345 2.97 2.97 0 0 1-2.046 1.034 3.9 3.9 0 0 1-2.403-.544 2 2 0 0 1-.39-.328q.227.081.431.177.342.16.424.19.447.153.98.186.527.032.935-.073.495-.127 1.003-.46.715-.47 1.161-1.192.278-.447.402-.76l.189-.478q.09-.231.161-.487.168-.598.182-.667.12-.567.173-1.021.057-.495.111-.817.036-.215.093-1.026l.102-1.446q.03-.367.049-.958.059-1.793.081-2.665.004-.114.051-.964.026-.444.051-.958.072-1.419.12-1.953l.19-2.125q.007-.08.037-.325.057-.477.2-1.42.09-.594.167-.896.18-.713.41-1.245.263-.608.533-.943.267-.333.394-.514a.04.04 0 0 1 .015-.014.04.04 0 0 1 .02-.003q.01 0 .017.006.004.003.004.025"/><path fill="#82b963" d="M56.647 74.124q-.159-.33-.094-.864a34 34 0 0 1 .437-2.777c.184-.894.35-1.764.46-2.49q.01-.062.076-.685c.014-.131.073-.258.065-.38q-.015-.225-.211-.256-.215-.035-.299.141-.088.186.063.352c.028.032.101.07.145.106a.04.04 0 0 1 .014.042q-.379 1.834-.593 2.596-.3 1.066-.592 2.134-.104.376-.182.761l-.155.767c-.17-.275-.172-.61-.195-.922q-.002-.03-.027-.011a.1.1 0 0 0-.023.032q.286-1.58.602-3.154.02-.102.31-1.776.216-1.245.201-2.508a3.6 3.6 0 0 0-.258-1.358 1.7 1.7 0 0 0-.713-.82q.049-.055-.129-.133a1.66 1.66 0 0 0-.877-.125q-.375.045-.877.235-.35.135-.685.287a4 4 0 0 1-.786.264l-.363.05a.03.03 0 0 1-.032-.019.03.03 0 0 1 0-.02q.02-.06.07-.158.45-.875 1.066-1.645a5 5 0 0 1 1.223-1.093 3.4 3.4 0 0 1 1.127-.456 2.44 2.44 0 0 1 1.515.148q.323.14.507.477a8.4 8.4 0 0 1 .995 3.377q.105 1.298-.059 2.574-.016.13-.066.405c-.034.189-.053.37-.094.538q-.044.178-.173.785-.09.421-.18.783a110 110 0 0 1-.599 2.331q-.404 1.429-.614 2.465M20.928 60.685l-.006-.003-.002-.083a.14.14 0 0 1 .008.086"/><path d="m20.928 60.685-.001.034a.1.1 0 0 1-.005-.037zm.006.193v-.04zm0 .048v.032z"/><path fill="#b1ddb4" d="M20.91 61.272a.2.2 0 0 1-.003.063z"/><path fill="#fff" d="M32.418 61.285q-.024.126-.19.186a.92.92 0 0 0-.387.586.81.81 0 0 0 .193.755q.22.148.1.193-.711-.226-.683-.949a.83.83 0 0 1 .117-.42.7.7 0 0 1 .358-.286q.204-.075.492-.065"/><path d="M32.122 62.676a.78.78 0 0 1-.12-.6.87.87 0 0 1 .418-.584c.287-.148.6-.062.832.151q.226.208.182.568c-.055.462-.46.803-.926.738a.53.53 0 0 1-.386-.273"/><path fill="#b1ddb4" d="M32.42 61.492a.87.87 0 0 0-.417.584.78.78 0 0 0 .12.6l-.089.136a.81.81 0 0 1-.193-.755.92.92 0 0 1 .387-.586z"/><path fill="#c6d875" d="M55.678 63.055a1.7 1.7 0 0 0-1.17-.154q-.412.087-.726.217-.69.285-1.13.443-.135.048-.34.08l-.045-.009q-.05-.01-.002-.028l.059-.022q.402-.09.786-.264.334-.153.685-.287.503-.191.877-.235.463-.057.877.125.177.078.13.134m-12.011 3.829c-.192-.232-.386-.328-.683-.332a.04.04 0 0 1-.04-.04 4.7 4.7 0 0 1 .061-1.029 2.58 2.58 0 0 1 .714-1.416.05.05 0 0 1 .058-.011q.209.099.394.233a.1.1 0 0 1 .04.072q.024.345-.037.716-.018.117-.154.696-.132.57-.29 1.098a.037.037 0 0 1-.063.013"/><path fill="#fff" d="M60.438 64.642c-.3-.043-.535.21-.538.499a.64.64 0 0 1-.151-.247q-.114-.395.272-.496a.3.3 0 0 1 .209.027.5.5 0 0 1 .208.217"/><ellipse cx="13.13" cy="10.33" fill="#fff" rx="13.13" ry="10.33" transform="rotate(-2.6 1434.823 -498.883)scale(.048)"/><path fill="#a4a5ae" d="m64.603 64.608-.004.346z"/><path d="M60.438 64.642q.223.08.268.314c.065.343-.242.586-.562.468a.39.39 0 0 1-.244-.283c.003-.29.238-.542.538-.499"/><path fill="#a4a5ae" d="m64.597 64.99.01.507z"/><path fill="#82b963" d="m64.614 65.578-.007.002a.13.13 0 0 1 0-.062q.013.015.007.06"/><path fill="#a4a5ae" d="M64.614 65.578v.15a.27.27 0 0 1-.007-.148z"/><path fill="#82b963" d="M64.626 66.135q-.02-.029-.005-.078.013.03.005.078"/><path fill="#fff" d="M56.647 74.124q.077.037.117.144c.071.192-.159.464-.295.58q-.194.166-.372.176c-.353.018-.444-.359-.427-.66q.023-.401.11-.793l.156-.767q.078-.384.182-.761.292-1.068.592-2.134.213-.762.593-2.596a.04.04 0 0 0-.014-.042c-.044-.036-.117-.074-.145-.106q-.151-.165-.063-.352.084-.176.299-.141.197.032.21.256c.009.122-.05.249-.064.38q-.066.623-.076.686c-.11.725-.276 1.595-.46 2.489a34 34 0 0 0-.437 2.777q-.065.534.094.864"/><path fill="#c6d875" d="M25.948 68.595a8 8 0 0 1-.988-.051q-1.29-.158-1.71-1.374.057-.002.078.054.082.228.294.485.162.197.25.288.107.11.306.214.507.265 1.13.29.264.01.64.094"/><path fill="#8bbf82" d="M39.275 68.49a.1.1 0 0 0-.02.028q-.002-.037.02-.028"/><path fill="#a4a5ae" d="m39.299 68.602.013.014q-.002.01-.012.007-.006-.002-.007-.007 0-.008.006-.014"/><path fill="#fff" d="M28.435 70.771a1 1 0 0 1-.128-.091c-.183-.156-.097-.503.183-.448q.194.038.213.26.039.46-.038 1.172c-.11 1.015-.367 2.189-.51 3.204q-.044.323-.047.576c0 .106.002.252.081.35.113.14.183.288.06.468q-.11.158-.265.273c-.276.202-.614.099-.662-.257a2 2 0 0 1 .026-.519c.063-.457.196-.951.336-1.458a50 50 0 0 0 .551-2.11q.15-.674.23-1.354a.07.07 0 0 0-.03-.066"/><path fill="#e9f0ed" d="M43.302 71.813c.057.012.096.052.157.06v.001a.3.3 0 0 1-.165-.043q-.043-.03.008-.018"/><circle cx="62.358" cy="72.77" r=".378"/><ellipse cx="9.58" cy="9.25" rx="9.58" ry="9.25" transform="rotate(-16.5 267.61 -71.526)scale(.048)"/><path fill="#fff" d="M62.036 74.837a.8.8 0 0 0-.53.278q-.361.44-.12.972-.027.034-.053.013l-.192-.198a1 1 0 0 1-.17-.213.674.674 0 0 1 .233-.914.7.7 0 0 1 .541-.067q.102.024.29.129"/><path d="M62.036 74.837q.575.036.76.535a.8.8 0 0 1-.044.631c-.21.447-.709.587-1.135.348a.9.9 0 0 1-.23-.264q-.243-.533.12-.972a.8.8 0 0 1 .529-.278"/><ellipse cx="13" cy="11.46" fill="#fff" rx="13" ry="11.46" transform="rotate(88.7 -33.86 42.939)scale(.048)"/><path fill="#b1ddb4" d="M61.617 76.351v.02a.028.028 0 0 1-.043.014.76.76 0 0 1-.241-.285q.026.021.053-.013.097.165.231.264"/><path fill="#afce6f" d="M62.398 77.659a.285.285 0 0 1 .286.249q.027.21-.061.325c-.138.18-.394.185-.604.125-.126-.035-.232-.128-.246-.266q-.013-.132.134-.26a.7.7 0 0 1 .491-.173"/><ellipse cx="5.57" cy="3.33" fill="#c6d875" rx="5.57" ry="3.33" transform="rotate(-27.6 190.324 -83.675)scale(.048)"/><path fill="#c6d875" d="M61.425 79.235c-.195.096-.54-.227-.32-.378q.319-.217.623-.046c.114.065.098.17-.004.24q-.167.119-.3.184"/><ellipse cx="7.68" cy="7.36" rx="7.68" ry="7.36" transform="rotate(29 -122.125 154.912)scale(.048)"/><path fill="#322f18" d="M36.925 79.07q.01-.015.02-.002a.015.015 0 0 1-.013.024q-.025 0-.007-.022"/><path fill="#afce6f" d="M27.562 79.46q.327-.19.746-.173.401.015.613.255.174.195.072.398-.059.115-.27.211a2.5 2.5 0 0 1-.797.236.95.95 0 0 1-.557-.125.47.47 0 0 1-.23-.234q-.068-.182.125-.362.096-.09.298-.206"/><ellipse cx="10.13" cy="5.15" fill="#afce6f" rx="10.13" ry="5.15" transform="rotate(-11.4 422.66 -107.063)scale(.048)"/><path fill="#a4a5ae" d="M8.617 83.511q-.132.06-.345-.132zm.031.067.027-.003q.04.01.002.023a.03.03 0 0 1-.031-.007q-.01-.009.002-.013"/><path fill="#82b963" d="m8.791 83.62.026.003q.018.003.004.015-.018.015-.038 0a.01.01 0 0 1-.003-.013l.004-.005z"/><path fill="#b1ddb4" d="M9.16 83.826q.009-.011.03.005.012.01 0 .02-.012.007-.028-.005-.014-.008-.003-.02m17.882 1.628a.03.03 0 0 1 .015-.01q.011-.003.009.008-.003.018-.017.017-.005 0-.006-.002l-.003-.006zm.127.032q-.001.02-.004.022a.01.01 0 0 1-.014-.015z"/><path fill="#a4a5ae" d="M28.594 85.927a.1.1 0 0 1-.048.025q-.05.004-.006-.017a.1.1 0 0 1 .062-.008z"/></svg>