<svg xmlns="http://www.w3.org/2000/svg" viewBox="0 0 1590 1855"><path fill="#eaf0f0" d="M777.84 1769.56q-1.47-.44-3.05 2.74-1.01.46-1.55 1.45-.84.47-1.3 1.47-.54.46-.98 1.17l-.83 1.15-.36.59q-.86.55-1.35 1.36l-1.18 1.19q-1.3 1-2.25 2.44-1.63 1.8-3.34 3.57-1.05 1.08-3.64 3.24-1.8 1.5-3.4 3.27-.89.98-1.9 1.62-.89.56-2 1.54-1.06.93-3.07 2.15-3.97 2.42-7.25 5.78-22.67 14.09-48.95 18.23-9.34 1.47-19.9 2.08-30.93 1.78-59.55-9.37-9.55-3.72-17.8-8.87-25.19-15.75-40.67-40.67-4.94-7.96-8.93-17.91-10.47-26.12-12.32-54.78-.97-15.03-.8-27.26.44-33.72 11.84-68.43 9.6-29.2 17.89-61.86c.55-2.14 1.63-7.92.74-10.19q-1.55-3.96-5.84-4.49-16.25-1.99-29.57-8.3-7.26-3.45-12.54-7.24-5.74-4.12-11.44-8.99-6.97-5.96-12.93-14.51-10.74-15.41-15.91-33.24-2.5-8.62-3.4-19.65c-1.62-19.8.12-39.6 2.68-59.33q0-.02 4.92-37.24 1.75-13.2 2.97-24.69c.45-4.3.29-7.78-.54-11.9-.95-4.79-3.74-7.49-7.73-10.26-5.14-3.56-12.03-2.72-16.85.81q-5.96 4.37-10.22 9.29-8.81 10.15-14.26 20.74-.28.53-3.68 6.44-1.95 3.39-3.16 6.76-3.91 10.83-6.31 22.12-2.23 10.46-3.76 26.72-.89 9.44-2.47 25.75-1.09 11.29-1.06 20.03.03 13.83 2.65 25.79.51 2.36 3.95 14.3c1.38 4.82 2.44 10.48 3.85 15.43q2.6 9.15 2.96 10.54c1.21 4.72 2.19 8.4 3.55 14.17q1.17 4.93 3.61 13.8 1.44 5.25 5.02 24.73 2.93 15.98 3.62 19.66 2.98 15.75 4.09 29.62c.18 2.17 1.01 4.05 1.12 6.33q1.28 28.1.89 36.3c-.42 8.56-.49 13.81-1.48 20.34q-1.42 9.47-4.61 22.93-1.89 7.94-5.75 16.57-6.06 13.51-7.58 15.88-4.52 7.05-6.83 10.54-2.39 3.61-5.69 7.2-5.74 6.25-6.23 6.77-7.03 7.39-16.21 13.98c-2.65 1.9-5.55 2.59-8.32 4.3q-13.76 8.51-28.64 13.54-5.6 1.9-14.71 4.6-6.83 2.02-14.97 3.56-19.1 3.61-37.63 5.38-2.15.21-20.54.5-6.08.1-12.26-.69-11.17-1.43-12.21-1.62-24.23-4.38-44.07-18.72-2.26-1.63-2.77-2.23-.6-.7-1.72-1.39-1.17-.74-1.93-1.39-19.29-16.81-29.02-40.24c-9-21.67-12.2-46.05-12.01-70.05q.16-19.24.92-28.93c1.76-22.5 4.31-44.27 8.58-66q10.14-51.66 23.35-94.77 10.57-34.54 18.28-63.42c5.93-22.19 8.81-43.72 11.88-69.9q2.38-20.29 2.16-40.97-.12-11.63-1.96-19.82-3.23-14.38-11.64-28.6-2.12-3.6-10.28-15.94-6.84-10.33-11.4-27.23c-.54-1.98-.55-4.17-.87-6.43q-.23-1.66-.23-2.58.06-7.27-.68-12.97-.76-5.86-6.73-6.09-23.81-.92-47.19-9.14-11.11-3.9-20.08-9.33-43.68-26.48-55.68-76.5-.92-3.85-2.26-17.05-.9-8.8-.69-17.16c.51-20.67 4.1-42.38 9.6-62.65q13.08-48.15 45.51-85.73 8.27-9.57 20.66-21.33 7.02-6.66 31.38-29.37 12.34-11.5 28.19-30.49c21.53-25.77 38.6-54.81 51.02-86.05q14.64-36.79 24.56-79.11 6.91-29.43 11.62-52.65c3.98-19.56 9.63-44.2 15.6-66.91q10.35-39.32 13.75-50.32 9.07-29.35 11.25-36.3 10.19-32.41 20.95-61.96 11.15-30.63 24.48-59.54 24.42-52.98 56.94-97.56 11.02-15.09 26.06-32.06 7.06-7.97 13.7-14.57 48.87-48.52 111.8-75.82 31.19-13.53 61.37-22.36 65.94-19.31 134.74-26.44 18.71-1.93 20.88-2.18c2.87-.34 6.42-.23 9.63-.6q4.66-.54 9.94-.58 7.18-.06 9.91-.22 11.03-.63 21.26-.45 36.46.65 43.5 1.39 16.24 1.71 19.4 2.01 11.9 1.09 19.27 2.02 70.24 8.86 133.12 25.84 9.84 2.66 38.95 11.26 12.12 3.58 34.36 11.72 2.94 1.07 7.95 3.3c3.43 1.53 7.21 2.86 10.6 4.52q14.31 6.97 19.35 10.02 3.58 2.15 10.58 6.23 5.12 2.97 10.35 6.51 17.71 11.98 29.9 22.22 49.03 41.21 84.99 96.62 4.89 7.55 10.34 17.02 4.6 8 7.8 13.58 4.46 7.79 7.48 13.72 11.87 23.38 22.5 47.92c9.68 22.37 17.31 45.4 25.05 68.74q7.17 21.65 15.31 53.08c5.75 22.2 11.68 45.9 16.57 69.37q12.67 60.79 25.61 125.79 5.45 27.34 15.21 67.58 7.85 32.36 21.1 73.16 2.66 8.19 6.7 18.84c6.41 16.92 9.6 25.69 14.93 38.3q15.12 35.71 26.04 63.33 11.62 29.39 18.59 57.92 1.58 6.44 2.68 15.15 1.11 8.75 1.17 15.38.17 19.8-3.69 40.28c-1.25 6.58-3.4 13.22-5.74 20.8q-1.38 4.48-2.96 8.12-6.16 14.3-14.23 27.99c-3.87 6.58-7.59 11.42-13.4 19.43q-1.1 1.51-2.75 3.36-2.89 3.25-2.89 3.26-5.58 6.85-11.54 13-16.91 17.45-32.33 34.41-7.68 8.45-15.98 20.37-1.61 2.3-3.13 5.51-1.1 2.34-2.15 3.68c-1.95 2.49-2.6 5.48-4.46 8.21q-1.31 1.93-2.43 4.47-7.65 17.25-11.83 31.33-2.36 7.94-4.69 21.85-4.24 25.27-4.75 49.03-.18 7.84-.47 12.46c-.42 6.49-.84 11.23-.98 16.63q-.85 32.43-1.2 58.63-.06 4.44.48 10.01 2.4 25.07 9.69 48.99l19.93 62.79c2.67 8.41 6.06 21.7 7.68 27.94q8.48 32.82 10.74 65.44.47 6.79.5 11.76.02 3.88-.81 11.72c-1.48 14.06-3.12 28.14-6.94 41.68q-2.08 7.37-6.26 16.44-1.38 2.97-8.28 15.17-1.87 3.29-4.45 6.25-1.82 2.09-4.82 6.02-4.3 5.64-10.36 11.4c-.72.68-1.26 1.79-2.17 2.53q-5.1 4.17-6.26 5.22c-2.49 2.27-6.3 3.95-8.37 5.74q-2.67 2.31-5.87 3.84c-2.57 1.23-5.34 3.47-8.18 4.73q-5.17 2.29-12.31 5.99c-3.19 1.66-5.94 2.59-9.07 3.62q-1.31.43-16.94 5.34-9.83 3.09-17.1 4.53-21.69 4.31-44.37 6.23-13.89 1.17-25.21.52-21.72-1.25-41.71-8.95-9.32-3.59-17.93-8.86-32.6-19.96-45.14-58.13-5.88-17.88-7.11-34.49-2.06-27.74 1.66-56 3.64-27.71 8.39-54.57 3.63-20.51 17.94-94.68 4-20.72 7.44-44.59.2-1.33.02-3.09-.71-6.94-6.46-7.7-1.86-.25-8.36 1.43-15.19 3.93-32.19 2.05-25.21-2.8-45.21-19.39-3.38-2.81-6.32-3.69-2.29-.69-2.61 1.68-.13.95-2.48 16.89-2.77 18.76-8.46 37.36-.18.57-.92 4.87-.33 1.91-1.27 3.64-1.48 2.72-1.76 3.38-4.64 10.69-6.05 12.91-3.23 5.07-6.51 10.11-2.62 4.03-5.69 7.69-4.57 5.47-6.29 7.23-12.8 13.09-30.45 20.89-7.42 3.28-16.47 5.04-11.27 2.19-17.09 2.52-8.49.47-18.61-.85-34.77-4.55-57.86-30.53-10.1-11.37-16.01-25.7-8.29-20.11-9.34-40.08c-.66-12.66-.13-26.15.97-39.4q2.45-29.41 3.86-53.92.53-9.14-.73-17.69c-.87-5.93-3.03-12.01-10.02-11.57q-2.27.14-3.94 1.84c-4.49 4.57-5.95 10.24-8.06 17.1q-1.18 3.84-2.33 10.49-7.67 44.06-11.01 90.83-3.98 55.57-4.35 62.74-.5 9.5-.89 19-.53 12.79-1.46 62.2-.14 7.61-.71 15.21-.23 3.17-2.36 36.22-.54 8.5-1.58 16.7c-1.14 8.97-1.9 14.14-2.56 22.25q-1.22 15.04-4.76 30.94-4.48 20.12-4.71 21.67-.73 4.85-2.97 9.45-1.18 2.43-5.38 13.32-5.03 13.05-16.62 30.1"/><path fill="none" stroke="#18170b" stroke-width="2" d="M432.48 1247.08q-3.69.88-6.59 3.09-3.61 2.74-7.17 5.55-6.78 5.35-17.67 18.58-1.23 1.49-.51 2.85" vector-effect="non-scaling-stroke"/><path fill="#2f2e15" d="M432.48 1247.08q-3.69.88-6.59 3.09-3.61 2.74-7.17 5.55-6.78 5.35-17.67 18.58-1.23 1.49-.51 2.85-13.24 17.67-20.11 37.79-6.05 17.73-8.07 38.07-4.5 45.37-4.89 49.55-1.25 13.04-1.27 19.95c-.04 16.99 2.55 32.03 6.95 48.91q11.28 43.26 14.72 58.01 8.2 35.23 11.97 68.59c2.17 19.33 2.39 39.83-1.1 58.5q-7.81 41.8-45.5 61.48-11.61 6.06-24.03 9.57-7.31 2.07-19.52 4.32-17.62 3.25-36.13 3.69c-25.92.62-50.11-5.26-64.76-28.09-10.61-16.51-14.65-39.11-14.86-58.99q-.26-25.71 3.17-51.19c5.33-39.55 14.53-78.44 25.36-116.86q3.38-11.99 14.85-50.74 3.8-12.82 5.5-19.22 14.85-55.94 16.37-117.24.38-15.51-.25-26.49-2-34.86-19.46-64.18c-1.46-2.46-3.33-3.28-6.2-5.29-4.04-2.83-7.54-7.68-9.08-12.68q-2.78-9.01-2.59-16.58.14-5.67 2.05-23.59.61-5.65-.51-11.99c-2.26-12.83-11.53-16.21-23.68-16.23l-19.96.16q-20.74.18-39.95-6.66-19.45-6.92-33.62-24.35-15.59-19.19-16.09-44.57-.18-9.28.85-18.76 2.66-24.66 9.89-47.42 13.58-42.73 45.88-73.41 10.28-9.76 30.45-28.29 15.1-13.87 29.75-29.99 37.6-41.37 59.95-91.53c15.84-35.56 26.88-73.16 35.33-110.63q4.79-21.19 16.98-77.06 7.06-32.34 17.81-69.75 14.47-50.39 33.45-103.05 13.97-38.74 32.22-76.01 14.45-29.49 33.14-57.85 19.15-29.07 43.41-54.83 36.89-39.18 84.76-63.73 28.27-14.5 61.09-25.21 40.09-13.08 84.27-20.96 79.37-14.15 155.7-10.08 42.1 2.25 87.31 10.29 53.12 9.44 102.74 23.76 16.91 4.88 33.43 10.5 51.8 17.59 93.19 53.3 50.94 43.94 85.1 102.72 17.7 30.44 30.76 60.97 15.91 37.18 28.19 76.2 15.96 50.71 27.15 102.03 1.52 6.97 4.07 19.56 18.72 92.53 30.12 147.12 16.06 76.88 42.87 148.98c7.82 21.03 15.97 39.91 26.4 64.8q10.01 23.86 18.26 46.14c6.42 17.33 11.34 35.7 11.81 54.14.62 24.2-8.85 50.07-22.38 70.33q-12.7 19-28.5 34.73-14.23 14.17-21.47 21.76-22.22 23.31-36.96 49.57c-15.69 27.96-23.67 61.44-26.69 94.09q-1.97 21.31-2.64 37.27-.73 17.47-2.13 86.25-.81 39.89 11.12 77.32c9.27 29.1 16.14 51.31 18.59 59.26q11.01 35.72 15.46 63.05 3.37 20.7 2.54 39.61c-.6 13.61-3.79 28.57-9.59 40.8q-10.21 21.55-30.69 35.81c-12.11 8.42-25.99 14.69-40.38 18.61q-33.85 9.21-66.41 9-15.43-.1-30.65-5.47-22.97-8.12-34.06-28.9c-8.62-16.15-10.65-36.58-9.61-55.09q1-17.82 3.32-34.24 5-35.32 10.95-65.6.08-.41 16.53-85.86 5-25.93 7.42-49.3 1.13-10.83.85-22.44-.31-12.44-4.18-22.53-6-15.61-23.05-13.26-5.97.82-13.63 3.99-1.63.67-17.99 7.45c-12.72 5.26-31.07 7.56-43.41 1.14-11.04-5.75-17.46-16.7-19.43-28.92q-1.61-10-1.34-19.16.38-12.75 1.11-26.48 1.28-23.82-1.45-45.47-1.7-13.5-7.92-24.98c-4.68-8.64-13.75-13.14-23.37-10.01-12.39 4.04-20.5 20.4-23.67 32.16q-6.21 23.03-8.08 47.68-1.71 22.61-4.75 73.09-1.81 30-7.16 53.54-4.28 18.82-11.13 31.83c-11.63 22.05-31.87 33.41-56.98 29.93q-20.51-2.84-32.67-20c-8.68-12.26-11.77-27.37-11.72-42.05q.04-11.49 1.23-23.64.19-1.96 4.1-40.06 2.23-21.74-.22-43.58-1.63-14.51-7.39-27.58c-7.82-17.72-24.95-23.68-43.33-22.77q-15.29.76-29.1 5.65-7.79 2.77-12.84 9.15-7.99 10.13-12.39 22.37-5.7 15.86-8.78 35.21-2.92 18.43-4.54 34.64-7.34 73.79-8.8 113.85-3.57 97.33-4.04 109.25-.53 13.53-3.09 43.51-2.58 30.06-9.92 57.66-5.61 21.08-15.76 39.2-5.33 9.5-13.86 18.64-19 20.37-47.26 24.63-22.12 3.33-41.76-.01-22.85-3.88-39.16-20.1c-15.91-15.82-23.39-36.06-25.76-58.13q-2.67-24.82-1.86-42.65.91-20.1 7.27-39.52c9.76-29.79 15.95-47.25 21.38-71.58q4.54-20.37 4.47-38.63-.02-3.92-1.04-8.72c-2.71-12.8-10.79-20.62-24.54-21.27q-11.38-.55-14.46-.64c-17.12-.48-32.52-6.68-43.04-20.33q-13.03-16.91-13.03-38.55-.01-11.96 1.8-26.07 7.84-61.17 9.37-71.97 2.69-18.89 1.21-34.03-1.46-14.84-12.36-25.88-10.17-10.3-25.64-17.82c-12.16-5.9-24.15-6.82-36.58-2.69q-9.59 3.19-17.78 8.28"/><g fill="none" stroke-width="2"><path stroke="#a0d09b" d="M1054.83 130.75q1.2 1.36 2.39 2.91c3.05 4.02 7.35 7.54 11.21 10.77q4.41 3.68 8.5 7.73 21.29 21.04 37.2 42.59 17.4 23.56 31.57 49.8 18.62 34.47 33.07 71.43 9.72 24.87 32.92 88.08 9.23 25.16 13.35 47.44 1.51 8.15 5.44 39.51c1.12 8.95 3.25 19.92 4.43 26.56.83 4.59 1.8 8.14 3.12 12.51q1.05 3.49.7 5.51-.67 3.81-2.45 5.18-5.52 4.25-13.07 5.39-9.42 1.42-16.52-3.55-1.81-1.27-3.41-4.09-2.24-3.96-4.9-7.83" vector-effect="non-scaling-stroke"/><path stroke="#73a55e" d="M1198.38 530.69q-12.17-31.92-15.86-40.69-5.11-12.17-9.67-20.59-4.1-7.58-10.49-14.77c-6.09-6.85-14.68-10.46-23.41-6.92q-5.4 2.19-10.52 4.94-7.01 3.78-23.03 12.96" vector-effect="non-scaling-stroke"/><path stroke="#a0d09b" d="M1105.4 465.62q-7.44-3.48-10.02-3.83-2.69-.37-7.69.55-1.99.36-7.46 1.81-16.87 4.48-35.11 5.96-5.53.45-8.63-.13c-11.65-2.17-12.28-12.49-12.1-22.28q.16-9.22.9-26.19.35-7.94-2.72-17.77-1.98-6.37-5.61-9.91-5.01-4.9-9.74-7.1-5.36-2.5-11.96-3.51-9.55-1.46-18.83-1.32-11.99.19-13.51.2c-7.99.04-15.24.91-22.6 1.99q-43.66 6.42-65.29 8.95-32.56 3.81-59.51 2.93-19.95-.65-44.96-6.32-16.32-3.71-31.42-10.47-4.66-2.09-8.73-5.85-3.14-2.9-6.71-5.35" vector-effect="non-scaling-stroke"/><path stroke="#73a55e" d="M723.7 367.98q-11.12-12.21-7.55-28.12c1.01-4.51 3.22-9.29 5.77-13.2q4.66-7.16 10.75-13.49 14.49-15.05 21.3-22.92 4.79-5.55 8.1-12.77 2.4-5.21 2.14-9.68-.35-6.27-2.88-9.87-4.97-7.09-9.83-10.69-11.78-8.73-14.86-11.59-7.24-6.73-8.04-16.45-.78-9.63.38-19.15.71-5.76 3.96-18.64c4.48-17.74 7.36-26.68 7.44-41.14.1-16-6.88-28.38-21.3-35.65" vector-effect="non-scaling-stroke"/><path stroke="#9fc877" d="m1332.39 495.22-.22-.13a.61.59-76 0 0-.9.56q.74 12.87 5.07 24.81.83 2.3-.46 5.75" vector-effect="non-scaling-stroke"/><path stroke="#a0d09b" d="M1335.88 526.21c-5.47-.93-11.45.45-15.94 1.49-5.87 1.36-9.97 8.71-11.75 14.03q-2.65 7.93-3.81 16.21-4.62 33.22-.3 67.63c1.09 8.74.28 17.55-5.46 24.5a.71.71 0 0 0 .32 1.13l2.54.85" vector-effect="non-scaling-stroke"/><path stroke="#609644" d="M723.7 367.98q.59 1.52 1.7 2.64 10.95 11.17 25.97 17.27 19.66 7.99 41.57 10.98 27.97 3.81 58.31 1.87 20.31-1.3 37.98-3.33 40.86-4.68 64.53-7.32 13.34-1.49 31.83-1.17c2.78.04 7.15.6 10.58 1.25q20.06 3.83 22.04 24.33.58 5.92.57 7.75-.07 24.27.16 30.25.18 4.5 1.69 11.37 3 13.52 14.45 18.64c4.58 2.05 10.88 2.46 16.37 2.11q8.15-.52 15.83-2.9 19.75-6.1 38.12-16.1m92.98 65.07q2.59 7.77 6.94 15.51 6.44 11.46 17.54 16.86 4.21 2.04 15.03 4.53c13.73 3.16 30.07 4.61 36.12 18.39q3.54 8.08 3.45 14.52-.29 19.59-.41 24.3c-.25 9.14 1.34 18.14 8.25 23.89q7.3 6.07 16.18 3.36" vector-effect="non-scaling-stroke"/><path stroke="#73a55e" d="M1301.48 652.05q2.9-1.31 3.64-1.94 9.71-8.13 11.35-20.77 1.27-9.79 1.42-12.96.36-7.86.92-32.59c.18-7.7.89-17.46 1.32-23.12q.31-4.11 1.7-9.55c1.57-6.14 3.15-11.52 8.2-14.82q4.67-3.05 7.96.69 2.94 3.36 4.46 4.48" vector-effect="non-scaling-stroke"/><path stroke="#7da23e" d="M1346.59 562.8q-.81-1.49-2.21-2.71" vector-effect="non-scaling-stroke"/><path stroke="#5b9335" d="M1344.38 560.09q-4.08-8.04-11.2-14.8a.77.76-51.1 0 0-1.16.13q-2.7 4.05-3.73 8.37-.76 3.16-1.81 15.46-1.03 12.13-1.27 40.75-.11 13.92-3.42 26.06-5.31 19.48-23.65 28.79-.77.39-1.52.56" vector-effect="non-scaling-stroke"/><path stroke="#428717" d="M1296.62 665.41q-4.95-.52-9.64.85" vector-effect="non-scaling-stroke"/><path stroke="#5b9335" d="M1286.98 666.26q-5.53-.76-9.83-4.43c-7.8-6.67-10.79-16.93-11.94-26.86q-.46-4.02-.3-13.44.19-10.74 0-21.27" vector-effect="non-scaling-stroke"/><path stroke="#428717" d="M1264.91 600.26q.81-9.46-6.53-14.71c-3.16-2.25-7.42-3.37-11.36-4.3q-6.22-1.47-12.5-2.71-8.56-1.68-12.41-3-19.39-6.68-29.19-25.62-5.63-10.87-9.32-21.19-6.74-18.87-12.93-34.41-4.29-10.78-10.15-21.51-2.23-4.07-7.32-10.15-6.61-7.9-14.9-3.41c-3.73 2.02-7.39 3.68-11.2 5.92q-14.01 8.2-26.89 14.04-17.92 8.11-38.41 12.85-6.04 1.4-12.29 1.9c-16.76 1.33-31.23-6.63-36.59-23.04-3.91-11.98-3.27-23.11-3.06-36.85q.13-8.88-1.34-18.24-1.09-6.9-6.32-11.22-5.26-4.35-10.58-4.99-9.11-1.08-22.02-.66-6.86.22-19.91 1.86-33.81 4.24-48.19 5.95-28.2 3.37-55.51 5.5-10.67.83-19.97.86-7.71.03-24.01-.57-6.69-.24-15.99-1.82-15.68-2.67-27.81-6.49-18.08-5.69-32.78-16.14-8.34-5.93-11.9-10.37-15.72-19.66-7.95-42.52.96-2.85 2.92-6.46 2.45-4.54 3.7-6.06 10.13-12.28 19.59-25.64" vector-effect="non-scaling-stroke"/><path stroke="#7da23e" d="M731.79 297.06q3.79-4.59 8.4-9.63 3.2-3.49 7.6-10.67 2.19-3.58 1.61-9.21" vector-effect="non-scaling-stroke"/><path stroke="#428717" d="M749.4 267.55q2.39-4.79-.24-7.93-3.31-3.94-5.35-5.28-7.91-5.17-14.35-11.2-7.38-6.9-9.45-14.34-3.79-13.67-.98-30.47 2.18-13.11 9.52-40.58 3.61-13.54.1-27.15" vector-effect="non-scaling-stroke"/><path stroke="#99b583" d="M728.65 130.6q-2.15-9.7-8.5-15.5-3.51-3.21-11.3-8.39" vector-effect="non-scaling-stroke"/><path stroke="#b2d790" d="M1341.27 534.72q-3.26-3.67-5.39-8.51" vector-effect="non-scaling-stroke"/><path stroke="#a5ca6b" d="M1344.38 560.09q9.94 51.51 14.7 79.11 6.19 35.9 8.77 49.75 5.6 29.98 13.17 61.9 13.26 55.99 33.77 109.75c7.97 20.9 15.89 39.49 29.57 72.9q4.01 9.81 7.12 18.43 4.99 13.87 6.39 18.72 2.38 8.23 4.17 17.85 3.58 19.26-2.38 37.42-5.31 16.23-14.61 30.38-8.77 13.34-15.65 21.1-4.13 4.65-35.61 37.74-9.16 9.63-13.44 14.81-11.35 13.71-20.31 29.8-14.42 25.88-21.52 54.42-1.56 6.25-3.81 19.63-2.65 15.74-3.14 21.21-2.85 31.79-4.1 67.93-.07 1.9-1.77 51.81-.65 19.19.06 39.2.36 9.88 2 19.88 5.04 30.67 13.91 58.31 6.45 20.1 17.46 53.19 3.56 10.73 5.42 19.19 3.42 15.58 4.33 22.41 1.54 11.51 1.41 26.88-.27 29.8-16.67 53.07-7.66 10.86-19.89 18.59-13.32 8.41-27.16 13.11-15.7 5.33-28.07 7.9c-10.42 2.17-20.86 3.05-31.5 3.22q-7.44.11-12.87-.86-19.72-3.51-29.01-21.22-2.2-4.19-2.92-10.84" vector-effect="non-scaling-stroke"/><path stroke="#6bb044" d="M1286.98 666.26q5.49 1.49 9.64-.85" vector-effect="non-scaling-stroke"/><path stroke="#8dbf4d" d="M749.4 267.55q-2.37-4.63-6.4-8.05c-8.09-6.86-14.11-11.72-19.52-19.07-7.17-9.75-9.3-21.63-8.37-33.35q.82-10.25 4.02-22.8 4.29-16.89 8.51-33.73" vector-effect="non-scaling-stroke"/><path stroke="#a9d293" d="m728.65 130.6-1.01 19.95" vector-effect="non-scaling-stroke"/><path stroke="#e3ecba" d="M727.64 150.55q-28.29 5.7-43.15 10.93-16.38 5.76-28.68 10.84-31.96 13.19-62.34 32.9-23.91 15.52-48.41 35.98-8.13 6.78-14.77 13.46-13.58 13.63-21.09 22.28-21.33 24.6-40.36 51.74-4.21 6-11.06 16.67-9.12 14.21-13.65 21.78-16.16 26.97-30.75 52.08-5.05 8.69-9.85 17.4-11.25 20.42-14.32 26.36-8.13 15.79-19.03 40.65-23.23 53.02-37.04 113.83-9.76 42.94-17.53 74.24-1.04 4.17-3.78 12.83-2.12 6.67-3.76 12.88-4.8 18.11-12.04 41.57-2.69 8.71-6.48 18.93-2.11 5.68-7.26 19.66-11.42 31.04-27.46 60.04-10.54 19.06-13.01 23.47-8.17 14.63-21.66 31.64-1.57 1.99-4.52 4.87-2.37 2.32-4.52 4.9" vector-effect="non-scaling-stroke"/><path stroke="#99b583" d="M211.12 922.48c-9.6 8.29-15.04 18.62-22.22 30.16q-3.47 5.59-8.23 10.75-4.14 4.49-9.79 4.43a2.69 2.68-1.5 0 1-2.65-2.51q-.18-2.84.64-6.48 2.16-9.57 3.91-18.07.66-3.22-1.71-4.33-2.8-1.31-7.78-2.15-13.5-2.26-27.27-.94" vector-effect="non-scaling-stroke"/><path stroke="#8dbf4d" d="M731.79 297.06q-10.32 9.15-18.42 19.56-7.44 9.57-10.29 15.71-8.87 19.07-1.46 37.37c3.64 8.98 10.81 17.66 18.47 24.02q15.98 13.24 37.5 19.96 10.15 3.17 20.56 4.89 17.8 2.94 36.1 3.22 3.85.06 32.43-1.43 9.27-.48 19.6-1.71c11.39-1.36 26.06-2.8 39.4-4.74 23.3-3.4 41.34-5.93 61.59-7.31q11.88-.82 18.81.39c9.37 1.63 17.94 8.18 18.15 18.03q.47 22.33.93 32.68.69 15.42 7.65 26.95 7.55 12.49 22.79 15 7.26 1.2 12.69.71 18.34-1.67 36.07-8.03 19.7-7.06 35.42-15.73" vector-effect="non-scaling-stroke"/><path stroke="#bcd470" d="M1119.78 476.6q6.92 16.28 11.36 33.21c5.42 20.66 6.58 42.74 1.83 63.59q-1.39 6.13-5.88 18.7c-2.78 7.79-8.76 22.94-10.52 34.97q-2.16 14.83 7.45 26.45 13.32 16.11 14.49 17.65 4.45 5.85 7.19 12.42c6.63 15.85.52 32.7-15.35 39.46-7.32 3.12-12.95.51-18.94-2.27q-3.94-1.82-7.33-2.19c-10.3-1.15-15.44 6.91-15.51 16.2-.07 7.68 2.44 16.05 5.12 22.3q8.73 20.35 10.66 26.1 13.31 39.67.14 79.31-4.75 14.29-6.61 19.47c-3.85 10.69-5.59 29.44 9.73 30.62 12.99 1 24.15-12 29.48-22.24 6.75-12.99 9.8-27.25 6.67-41.26-2.06-9.24-4.7-16.38 5.61-21.48q11.01-5.45 21.37-6.44c11.17-1.08 16.44 5.58 19.56 15.05 2.85 8.67 4.49 18.39 2.98 27.17q-.89 5.17-1.73 7.13-4.12 9.63-8.86 18.18c-4.12 7.42-6.47 12.49-6.66 20.04q-.02.89.59 1.55 5.06 5.38 12.14 7.55 9.47 2.91 20.85 5.55c12.64 2.93 24.4 9.56 27.95 23.02q1.68 6.36 1.55 12.43-.31 14.44-5.31 31.76-3.32 11.49-9.13 34.56-1.86 7.37-3.12 19.89c-1.92 19 3.8 34.91 16.55 48.25 5.3 5.56 12.44 12.52 17.09 19.02 7.48 10.47 12.01 25.96 9.18 38.24q-1.02 4.41-5.31 12.8-5.79 11.32-6.28 12.43-7.76 17.6-10.44 36.55-2.61 18.53-1.94 33.92.39 9.06 1.9 22.22a1.22 1.2-14.5 0 1-.75 1.25l-4.71 1.91a1.65 1.64-30.1 0 0-.68 2.54l6.65 8.42a1 1 0 0 1-.54 1.58q-5.78 1.47-11.58-2.2-8.86-5.62-13.07-14.62-3.02-6.44-5.87-15.37c-2.32-7.29-6.4-12.08-14.66-11.55-12.91.84-26.57 5.29-35.59 14.81-11.77 12.44-20.93 28-28.79 43.73q-10.91 21.8-23.37 49.34-.76 1.67-2.22 3.4" vector-effect="non-scaling-stroke"/><path stroke="#bcd470" d="M1101.71 1336.79q1.95-3 2.67-5.72 3.53-13.32 5.91-28.48 5.6-35.63 4.36-71.72-.7-20.38-6.11-38.73-3.59-12.17-10.57-21.14-16.15-20.76-42.62-14.87-5.41 1.21-12.95 3.28c-6.15 1.69-12.29 1.63-15.73-4.56q-1.79-3.24-4.61-8.66-2.59-4.99-4.49-6.6-3.72-3.13-7.55-3.57-8.37-.97-18.81 2.88-16.81 6.21-31.82 16.46c-15.25 10.4-23.86 25.52-21.52 44.35.94 7.62 3.69 15.65 5.02 23.69a.43.43 0 0 1-.54.48q-5.49-1.5-8.9-6.06-4.91-6.57-8.77-18.21-.57-1.71-4.49-15.16a1.71 1.71 0 0 0-1.85-1.21q-17.87 2.22-34.52 3.73-6.37.58-13.39-1.66a2.23 2.23 0 0 1-1.54-2.39c.6-5.01 2.5-12.7 2.31-17.95q-.54-14.85-12.98-24.14c-5.4-4.04-10.89-6.72-17.24-5.18-3.6.88-8.18 4.79-10.41 7.93q-10.65 15-14.01 19.51c-7.55 10.17-15.52 17.1-28.16 19.8-10.18 2.18-18.5 1.17-30.45.2q-11.42-.92-17.13 8.47-3.92 6.46-5.36 10.19-6.08 15.73-7.65 18.78c-2.11 4.07-5.18 8.16-10.03 8.37q-2.39.1-6.38-1.61-7.68-3.31-14.41-8.6" vector-effect="non-scaling-stroke"/><path stroke="#e3ecba" d="M696.99 1218.69c4.12-1.68 6.83-5.48 5.27-9.89q-1.11-3.12-4.36-4.62c-5.81-2.68-12.8.24-13.4 7.16" vector-effect="non-scaling-stroke"/><path stroke="#bcd470" d="M684.5 1211.34q-7.88-4.82-15.82-9.04-1.46-.77-2.52-.75-.51.01-.85.39-3.65 4.08-4.73 9.96c-2.68 14.6-4.83 26.46-7.91 39.47q-10.85 45.9-20.12 87.95-.5 2.29-1.9 5.07a1.32 1.31-86.8 0 1-.7.63q-7.69 3-12.11 5.07c-6.28 2.93-10.49 7.34-14.56 13.27-4.35 6.34-8.62 12.84-16.81 13.76a1.51 1.5-13 0 1-1.58-.98q-1.21-3.3-1.27-5.79c-.46-19.01-.65-36.1-2.53-53.9q-1.08-10.25-3.04-16-1.94-5.7-3.48-7.76-2.38-3.17-5.81-7.39-.61-.76-.45-1.72c1.28-7.91 4.11-19.89 4.86-28.17q2-22.09-5.55-44.7c-3.64-10.88-8.52-22.08-14.05-33.31-3.07-6.21-4.57-11.45-4.1-17.9a.96.95 1 0 1 .92-.88q4.17-.16 8.48.51c6.65 1.03 19.18 4.61 29.05 4.92q2.09.07.56-1.35-7.04-6.56-16.17-11.55c-16.15-8.82-33.51-15.91-51.45-20.19q-36.09-8.62-72.21-6.53-41.33 2.38-79.63 17.01c-15.11 5.77-28.48 14.87-37.08 28.03-7.8 11.95-12.97 27.3-16.05 42-1.15 5.53-1.79 11.35.28 16.56q.89 2.23 3.99 6.31 3.45 4.54 6.92 9.27" vector-effect="non-scaling-stroke"/><path stroke="#a5ca6b" d="M327.08 1243.61q-5.51 29.3-8.76 59.15-2.04 18.74-4.04 37.49-1.82 17.1-6.12 79.23-3.05 43.94-7.09 86.33-2.49 26.15-7.87 59.95-3.21 20.13-11.57 44.14-5.92 17-17.21 31.04-11.32 14.07-29.55 20.68-7.46 2.71-13.42 5.05-3.99 1.57-3.29 6.07 3.07 19.63 20.66 28.27 6.48 3.17 13.21 4.55 15.12 3.09 31.48 1.25c18.46-2.08 35.68-5.95 51.83-15.01q21.39-12 30.34-35.33 4.25-11.07 5.62-22.46.64-5.4 1.14-17.99.34-8.72-.63-17.97-2.11-20.07-4.07-30.54-3.62-19.31-8.6-38.64-7.29-28.2-9.14-35.35-10.17-39.27-6.89-78.51 1.87-22.39 5.76-51.59 4.35-32.58 18.05-61.83 4.1-8.75 9.55-17.56 10.49-16.97 19.99-27.83 14.49-16.56 31.14-26.63 16.16-9.76 35.76-10.41 6.42-.21 12.68 1.1 9.35 1.96 11.66 2.93 14.4 6.03 27.28 17.11 17.42 15 23.05 36.47.68 2.6.36 6.92-.04.48-.38.81l-.31.3m-268.1-190.77q-1.11-8.03-5.75-13.89-9.07-11.47-23.63-11.92-7.68-.24-12.6.38-4.36.55-43.31 5.53-15.37 1.96-37.13 2.03-8.25.02-16.28-.88-6.24-.7-16.27-1.56-.42-.04-.66.08-.34.16-.54.43" vector-effect="non-scaling-stroke"/><path stroke="#7da23e" d="M132.34 938.46q1.07.32 2.66.19 13.11-1.07 25.97.91a1.44 1.44 0 0 1 1.2 1.67q-2 11.45-2.73 17.95-1.39 12.45 8.58 15.24c6.25 1.75 14.3-.35 19.25-4.42q6.26-5.17 10.63-12.06 9.02-14.21 10.73-16.82c6.45-9.87 14.36-19 25.91-23.07q9.77-3.44 20.42-.72 11.52 2.93 21.75 10.99 2.19 1.72 4.53 3.31" vector-effect="non-scaling-stroke"/><path stroke="#a5ca6b" d="m281.24 931.63 11.07 9.43q.14.12.27 0 .16-.14.08-.26-4.6-5.86-10.3-10.69" vector-effect="non-scaling-stroke"/><path stroke="#7da23e" d="M282.36 930.11q-11.29-10.96-24.56-15.91c-14-5.22-29.48-3.61-41.84 5.04q-2.36 1.65-4.84 3.24" vector-effect="non-scaling-stroke"/><path stroke="#6bb044" d="M1264.91 600.26q-3.46-11.06-14.71-11.43" vector-effect="non-scaling-stroke"/><path stroke="#81ba49" d="M1250.2 588.83q-6.13-.89-12.3-1.75-8.62-1.19-17.2-4.01-16.27-5.34-26.4-18.54-5.17-6.73-8.53-13.72c-7.06-14.72-11-27.25-17.79-46.55q-2.72-7.75-6.03-14.98c-4.24-9.31-7.75-16.06-14.32-22.64q-3.4-3.39-8.32-.83-13.93 7.27-19.53 10.79" vector-effect="non-scaling-stroke"/><path stroke="#9ac567" d="M1250.2 588.83q2.32 3.52 2.58 4.93 1.89 10.4 4.93 27.78c1.17 6.69 1.52 11.36 2.43 20q.72 6.91 1.28 15.02 1.15 16.85 2.42 33.68 13.15 174.43 13.8 183.27 2.39 32.45 4.57 63.28.7 9.84 1.18 19.98 4.57 97.48 5.44 139.98.53 26.08.57 103.25.01 17.83.1 19.99.46 11.72 2.94 21.38 5.23 20.35 10.5 40.7 4.71 18.19 8.11 46.08 1.19 9.73 2.82 37.76.29 5.02.93 13.16.77 9.82.45 13.19-1.37 14.36-1.93 29.6-.41 11.14-1.49 19.27-4.16 31.3-9.44 59.36-4.59 24.43-5.94 31.92-4.59 25.46-6.21 52.35-.47 7.71-.38 19.98c.13 16.1-.02 28.13-3.23 41.45q-2.61 10.87-8.43 27.51-1.12 3.18-1.04 8.95c.04 2.61-1.25 4.3-3.48 5.23q-21.84 9.11-44.24 4.31-9.51-2.03-15.75-9.17-3.54-4.05-7.41-8.08a2.36 1.86 33.7 0 0-3.7.29l-.38 1.55" vector-effect="non-scaling-stroke"/><path stroke="#bcd470" d="M1202.2 1676.78q-4.69-5.74-9.8-10.93-1.54-1.57-3.26-2.63a1.29 1.29 0 0 0-1.67.27l-2.09 2.53" vector-effect="non-scaling-stroke"/><path stroke="#9ac567" d="m1200.2 1549.53 7.96 6.16" vector-effect="non-scaling-stroke"/><path stroke="#d8e7b6" d="M1208.16 1555.69q-2.88 12.4-4.67 25.56c-.67 4.93-.31 10.57 3.56 13.88 2.95 2.52 7.61 2.34 10.78.16q3.47-2.37 6.14-5.41c3.14-3.57 4.15-6.55 1.16-10.53q-2.08-2.77-3.01-3.67" vector-effect="non-scaling-stroke"/><path stroke="#9ac567" d="M1222.12 1575.68q3.55-2.43 4.3-6.04 3.21-15.55 4.67-20.78 13.87-49.76 22.39-87.74.47-2.12.84-4.27.51-3 .82-4.28 10.98-45.14 5.13-91.08-3.03-23.8-13.12-46.51-5.77-13-9.74-17.39-6.99-7.71-19.54-9.21-20.98-2.5-38.99 8-8.11 4.72-12.89 8.6-14.09 11.44-24.2 26.54-7.56 11.28-14.6 24.42-.6 1.12-.87 2.1a1.15 1.15 0 0 0 1.36 1.43q2.4-.52 7.22-1.48 3.66-.73 7.04-2.07 7.24-2.86 14.35-5.98 7.81-3.43 11.89-4.6 7.04-2.03 12.45-2.98 6.95-1.21 13.61.87 2.17.68 3.47 2.23" vector-effect="non-scaling-stroke"/><path stroke="#5b9335" d="M282.36 930.11q-.57 1.19-1.12 1.52" vector-effect="non-scaling-stroke"/><path stroke="#a5ca6b" d="M235.51 1153.3q.66-.69 1.03-1.8 5.33-16.07.82-32.35-.98-3.57-2.93-6.12c-.74-.97-.93-2.23-1.52-2.94q-3.03-3.68-6.67-6.59-3.17-2.54-8.23-4.01-8.92-2.6-17.72-2.41c-14.03.3-26.3.85-38.91-.68q-9.95-1.2-11.69-1.55-15.91-3.19-30.12-14.04" vector-effect="non-scaling-stroke"/><path stroke="#d8e7b6" d="M684.5 1211.34q.6 4.88 4.98 6.93 3.49 1.63 7.51.42" vector-effect="non-scaling-stroke"/><path stroke="#bcd470" d="M1067.33 1200.11q-.21-.44-.14-1.15" vector-effect="non-scaling-stroke"/><path stroke="#9ac567" d="M1067.19 1198.96q2.37-.06 1.14-2.27a1.15 1.09 6.7 0 0-.3-.36q-17.15-13.71-37.43-17.71-11.89-2.35-23.53 1.2c-8.48 2.59-19.06 8.2-23.62 15.87q-3.73 6.3-4.04 12.53-.5 10.24-.65 13.03-.38 7.09-.31 13.03.51 43.56-.65 62.47-1.77 28.66-4.79 55.29-3.44 30.33-4.13 36.43-1.07 9.56-4.35 21.78-1.85 6.89-4.71 12.81-4.27 8.84-13.39 10.92c-9.79 2.22-15.61-4.17-20.88-11.23a1.36 1.36 0 0 0-2.16-.02c-2.01 2.6-1.49 7.34-.84 10.02q1.88 7.79 6.21 14.42" vector-effect="non-scaling-stroke"/><path stroke="#bcd470" d="m928.76 1447.17-4.48 1.04" vector-effect="non-scaling-stroke"/><path stroke="#9ac567" d="M916.27 1331.11q.19-2.1.63-4.11.61-2.84.77-4.06 2.68-19.91 3.11-25.94 1.17-16.05-1.14-37.73-.96-8.97-4.67-39.64c-.48-3.99-1.33-8.99-2.53-12.31q-3.94-10.92-15.69-11.45-6.45-.29-11.1.81-8.51 2.01-17.01 5.99-6.68 3.12-22.73 11.03c-2.6 1.28-7.23 3.13-9.91 3.35q-3.92.31-6.27-.74-3.51-1.59-9.88-5.8-6.47-4.28-15.54-8.02c-8.23-3.39-17.88-3.51-26.07 0q-9.74 4.16-15.89 10.88-5.46 5.96-12.77 17.68-4.15 6.65-8.95 17.86-11.31 26.37-16.93 47.78-2.98 11.39-3.84 14.35" vector-effect="non-scaling-stroke"/><path stroke="#d8e7b6" d="M719.86 1311.04q-5.85-2.1-10.51.28-14.03 7.19-9.43 23.25 2.66 9.29 13.16 11.43" vector-effect="non-scaling-stroke"/><path stroke="#9ac567" d="M713.08 1346c-.02 2.38-.6 5.12-.78 7q-2.59 27.47-2.72 46.54-.01.73-.15 43.31-.04 13.33-2.63 27.32-.9 4.86-3.94 11.47-4.46 9.73-13.38 14.85-10.13 5.82-22.5 7.68-5.89.88-7.86.23-3.27-1.09-5.01-3.98-8.07-13.33-15.58-25.27-7.17-11.41-13.66-18.86-14.96-17.2-37.19-26.96-14.03-6.16-27.56-10.45-19.89-6.31-34.49-11.71m1.22-11.55q1.56-2.09 2.13-4.62.92-4.14 1.14-5.88.38-2.93 1.56-5.73.71-1.7 2.37-7.66c2.06-7.35 4.58-12.83 7.89-21.23q6.23-15.77 12.76-35.74 6.15-18.84 9.96-39.11 2.05-10.86 2.34-19.85.74-22.67-3.41-42.65-1.46-7.02-5.4-16.83c-6.98-17.34-20.53-22.53-38.3-22.53q-10.65 0-22.52 1.85-20.86 3.26-40.66 10.04-16.22 5.56-24.49 9-9.17 3.8-33.13 14.91-11.57 5.37-18.41 7.84-20.72 7.51-42.74 10.23-5.71.7-7.39 6.18-1.5 4.94-3.47 9.77" vector-effect="non-scaling-stroke"/><path stroke="#c1ddb1" d="M1222.12 1575.68q-.72-12.68 1.03-24.91 1.86-12.93 2.54-17.51 1.22-8.18 3.1-17.4 7.25-35.64 11.61-60.78.75-4.33 1.81-12.85.7-5.58 1.89-12.84.5-3.02-1.97-5.03c-4.41-3.61-12.02 1.74-9.49 7.04.85 1.77 3.32 3.09 5.12 3.82a.58.57 18.1 0 1 .34.66q-4.57 20.42-8.21 37-3.01 13.72-15.46 55.35-2.23 7.45-6.27 27.46" vector-effect="non-scaling-stroke"/><path stroke="#a5ca6b" d="M1067.19 1198.96q-6.53-1.9-13.29-1.46-6.55.42-12.19 2.19c-6.42 2.02-13.76 7.55-18.17 12.62-9.21 10.61-15.31 23.42-18.92 37.72q-3.99 15.83-5.95 32.08-4.44 36.78-6.88 78.69c-1.05 18.1-2.78 34.96-6.76 51.47-3.5 14.52-8.87 26.71-18.4 37.09-6.61 7.22-18.46 12-27.61 6.9q-5.63-3.14-10.26-9.09m-117.84-186.63q-.59-.07-1.13.28-3.33 2.17-6.28 4.85-2.57 2.33-5.13 6c-2.77 3.97-7.49 9.22-10.17 13.72-5.62 9.41-8.9 18.5-12.94 30.22q-2.71 7.87-4.77 19.38-4.6 25.74-5.14 30.53-5.31 47.42-7.73 92.77-.99 18.63-1.85 31.48-.9 13.33-1.11 19.95-1.47 45.92-3.28 85.05-.58 12.58-1.35 19.97-1.68 16.18-4.89 39.72-3.71 27.19-14.15 51.23-4.69 10.81-9.52 17.53-8.94 12.48-21.02 21.25-8.14 5.91-18.58 9.8-7.14 2.66-14.73 2.78-9.88.14-18.31-.95-1.14-.15-3.11-.7c-2.84-.79-5.12-1.36-7.57-2.39q-10.69-4.49-13.62-5.51-.83-.29-1.48-.91-.37-.35-1.4-1.23-1.1-.95-1.98-.23m-44.66-281.83q-1.97-1.82-5.4-1.99-9.2-.44-17.53-3.92-5.77-2.41-9.65-6.4c-5.67-5.86-10.12-11.85-12.45-19.49q-.61-2.02-1.59-9.34-.73-5.4-2.57-10.67" vector-effect="non-scaling-stroke"/><path stroke="#c1ddb1" d="M713.08 1346q3.11.33 5.59-.73" vector-effect="non-scaling-stroke"/><path stroke="#425e31" d="M718.67 1345.27q6.9 1.33 12.77-1.58 6.35-3.16 8.22-10.16c3.37-12.59-5.55-22.01-18.21-19.6" vector-effect="non-scaling-stroke"/><path stroke="#9ac567" d="M721.45 1313.93q-.29-.58-.96-.98" vector-effect="non-scaling-stroke"/><path stroke="#c1ddb1" d="M720.49 1312.95q.48-.82-.63-1.91" vector-effect="non-scaling-stroke"/><path stroke="#d8e7b6" d="M720.49 1312.95c-8 3.04-14.6 10.9-13.04 19.86q1.28 7.39 7.54 10.49" vector-effect="non-scaling-stroke"/><path stroke="gray" d="m714.99 1343.3 3.68 1.97" vector-effect="non-scaling-stroke"/><path stroke="#586836" d="M721.45 1313.93q-3.12.77-4.49 2.3-10.84 12.21-1.97 27.07" vector-effect="non-scaling-stroke"/></g><path fill="#b3dfb4" d="M1054.83 130.75q1.2 1.36 2.39 2.91c3.05 4.02 7.35 7.54 11.21 10.77q4.41 3.68 8.5 7.73 21.29 21.04 37.2 42.59 17.4 23.56 31.57 49.8 18.62 34.47 33.07 71.43 9.72 24.87 32.92 88.08 9.23 25.16 13.35 47.44 1.51 8.15 5.44 39.51c1.12 8.95 3.25 19.92 4.43 26.56.83 4.59 1.8 8.14 3.12 12.51q1.05 3.49.7 5.51-.67 3.81-2.45 5.18-5.52 4.25-13.07 5.39-9.42 1.42-16.52-3.55-1.81-1.27-3.41-4.09-2.24-3.96-4.9-7.83-12.17-31.92-15.86-40.69-5.11-12.17-9.67-20.59-4.1-7.58-10.49-14.77c-6.09-6.85-14.68-10.46-23.41-6.92q-5.4 2.19-10.52 4.94-7.01 3.78-23.03 12.96-7.44-3.48-10.02-3.83-2.69-.37-7.69.55-1.99.36-7.46 1.81-16.87 4.48-35.11 5.96-5.53.45-8.63-.13c-11.65-2.17-12.28-12.49-12.1-22.28q.16-9.22.9-26.19.35-7.94-2.72-17.77-1.98-6.37-5.61-9.91-5.01-4.9-9.74-7.1-5.36-2.5-11.96-3.51-9.55-1.46-18.83-1.32-11.99.19-13.51.2c-7.99.04-15.24.91-22.6 1.99q-43.66 6.42-65.29 8.95-32.56 3.81-59.51 2.93-19.95-.65-44.96-6.32-16.32-3.71-31.42-10.47-4.66-2.09-8.73-5.85-3.14-2.9-6.71-5.35-11.12-12.21-7.55-28.12c1.01-4.51 3.22-9.29 5.77-13.2q4.66-7.16 10.75-13.49 14.49-15.05 21.3-22.92 4.79-5.55 8.1-12.77 2.4-5.21 2.14-9.68-.35-6.27-2.88-9.87-4.97-7.09-9.83-10.69-11.78-8.73-14.86-11.59-7.24-6.73-8.04-16.45-.78-9.63.38-19.15.71-5.76 3.96-18.64c4.48-17.74 7.36-26.68 7.44-41.14.1-16-6.88-28.38-21.3-35.65q.41-.61 1.78-.52 1.11.08 1.82-.04 111.34-17.65 222.48 1.34 39.45 6.74 75.06 15.93 17.28 4.46 34.61 9.42"/><path fill="none" stroke="#609644" stroke-width="2" d="M824.7 299.24c4.66 17.51-10.99 31.44-27.57 30.42q-4.58-.28-9.87-4.22" vector-effect="non-scaling-stroke"/><path fill="#fff" d="M754.83 209.96c3.01 3.42 6.33 7.16 2.06 11.42q-2.63 2.62-8.67 6.54-4.62 3-8.43-.25-5.09-4.35-5.56-10.62c-.61-7.96 1.03-16.3 2.89-24.21q1.15-4.93 3.68-12.04c4.06-11.41 11.25-30.42 14.42-45.06q1.02-4.74.82-12.47-.29-11.57-8.09-18.45-2.8-2.47.93-2.59 2.45-.08 5.19 1.57c6.65 4.02 8.95 11.31 9.58 18.6q1.2 13.76-1.83 29.03-6.55 33.06-8.18 43.77-.77 5.05-.42 11.26.09 1.79 1.61 3.5"/><path fill="#326a07" d="M719.08 104.62c14.42 7.27 21.4 19.65 21.3 35.65-.08 14.46-2.96 23.4-7.44 41.14q-3.25 12.88-3.96 18.64-1.16 9.52-.38 19.15.8 9.72 8.04 16.45 3.08 2.86 14.86 11.59 4.86 3.6 9.83 10.69 2.53 3.6 2.88 9.87.26 4.47-2.14 9.68-3.31 7.22-8.1 12.77-6.81 7.87-21.3 22.92-6.09 6.33-10.75 13.49c-2.55 3.91-4.76 8.69-5.77 13.2q-3.57 15.91 7.55 28.12.59 1.52 1.7 2.64 10.95 11.17 25.97 17.27 19.66 7.99 41.57 10.98 27.97 3.81 58.31 1.87 20.31-1.3 37.98-3.33 40.86-4.68 64.53-7.32 13.34-1.49 31.83-1.17c2.78.04 7.15.6 10.58 1.25q20.06 3.83 22.04 24.33.58 5.92.57 7.75-.07 24.27.16 30.25.18 4.5 1.69 11.37 3 13.52 14.45 18.64c4.58 2.05 10.88 2.46 16.37 2.11q8.15-.52 15.83-2.9 19.75-6.1 38.12-16.1 16.02-9.18 23.03-12.96 5.12-2.75 10.52-4.94c8.73-3.54 17.32.07 23.41 6.92q6.39 7.19 10.49 14.77 4.56 8.42 9.67 20.59 3.69 8.77 15.86 40.69 2.59 7.77 6.94 15.51 6.44 11.46 17.54 16.86 4.21 2.04 15.03 4.53c13.73 3.16 30.07 4.61 36.12 18.39q3.54 8.08 3.45 14.52-.29 19.59-.41 24.3c-.25 9.14 1.34 18.14 8.25 23.89q7.3 6.07 16.18 3.36 2.9-1.31 3.64-1.94 9.71-8.13 11.35-20.77 1.27-9.79 1.42-12.96.36-7.86.92-32.59c.18-7.7.89-17.46 1.32-23.12q.31-4.11 1.7-9.55c1.57-6.14 3.15-11.52 8.2-14.82q4.67-3.05 7.96.69 2.94 3.36 4.46 4.48l-.66 2.05q-.15.48.05.95 3.35 7.83 4.67 16.23.09.52.81 1.46.4.53-.26.6l-.47.04q-.81-1.49-2.21-2.71-4.08-8.04-11.2-14.8a.77.76-51.1 0 0-1.16.13q-2.7 4.05-3.73 8.37-.76 3.16-1.81 15.46-1.03 12.13-1.27 40.75-.11 13.92-3.42 26.06-5.31 19.48-23.65 28.79-.77.39-1.52.56-4.95-.52-9.64.85-5.53-.76-9.83-4.43c-7.8-6.67-10.79-16.93-11.94-26.86q-.46-4.02-.3-13.44.19-10.74 0-21.27.81-9.46-6.53-14.71c-3.16-2.25-7.42-3.37-11.36-4.3q-6.22-1.47-12.5-2.71-8.56-1.68-12.41-3-19.39-6.68-29.19-25.62-5.63-10.87-9.32-21.19-6.74-18.87-12.93-34.41-4.29-10.78-10.15-21.51-2.23-4.07-7.32-10.15-6.61-7.9-14.9-3.41c-3.73 2.02-7.39 3.68-11.2 5.92q-14.01 8.2-26.89 14.04-17.92 8.11-38.41 12.85-6.04 1.4-12.29 1.9c-16.76 1.33-31.23-6.63-36.59-23.04-3.91-11.98-3.27-23.11-3.06-36.85q.13-8.88-1.34-18.24-1.09-6.9-6.32-11.22-5.26-4.35-10.58-4.99-9.11-1.08-22.02-.66-6.86.22-19.91 1.86-33.81 4.24-48.19 5.95-28.2 3.37-55.51 5.5-10.67.83-19.97.86-7.71.03-24.01-.57-6.69-.24-15.99-1.82-15.68-2.67-27.81-6.49-18.08-5.69-32.78-16.14-8.34-5.93-11.9-10.37-15.72-19.66-7.95-42.52.96-2.85 2.92-6.46 2.45-4.54 3.7-6.06 10.13-12.28 19.59-25.64 3.79-4.59 8.4-9.63 3.2-3.49 7.6-10.67 2.19-3.58 1.61-9.21 2.39-4.79-.24-7.93-3.31-3.94-5.35-5.28-7.91-5.17-14.35-11.2-7.38-6.9-9.45-14.34-3.79-13.67-.98-30.47 2.18-13.11 9.52-40.58 3.61-13.54.1-27.15-2.15-9.7-8.5-15.5-3.51-3.21-11.3-8.39z"/><path fill="#fff" d="M708.85 106.71q7.79 5.18 11.3 8.39 6.35 5.8 8.5 15.5l-1.01 19.95q-28.29 5.7-43.15 10.93-16.38 5.76-28.68 10.84-31.96 13.19-62.34 32.9-23.91 15.52-48.41 35.98-8.13 6.78-14.77 13.46-13.58 13.63-21.09 22.28-21.33 24.6-40.36 51.74-4.21 6-11.06 16.67-9.12 14.21-13.65 21.78-16.16 26.97-30.75 52.08-5.05 8.69-9.85 17.4-11.25 20.42-14.32 26.36-8.13 15.79-19.03 40.65-23.23 53.02-37.04 113.83-9.76 42.94-17.53 74.24-1.04 4.17-3.78 12.83-2.12 6.67-3.76 12.88-4.8 18.11-12.04 41.57-2.69 8.71-6.48 18.93-2.11 5.68-7.26 19.66-11.42 31.04-27.46 60.04-10.54 19.06-13.01 23.47-8.17 14.63-21.66 31.64-1.57 1.99-4.52 4.87-2.37 2.32-4.52 4.9c-9.6 8.29-15.04 18.62-22.22 30.16q-3.47 5.59-8.23 10.75-4.14 4.49-9.79 4.43a2.69 2.68-1.5 0 1-2.65-2.51q-.18-2.84.64-6.48 2.16-9.57 3.91-18.07.66-3.22-1.71-4.33-2.8-1.31-7.78-2.15-13.5-2.26-27.27-.94 10.7-13.73 18.7-21.12c21.9-20.21 37.01-33.98 52.52-49.72 29.71-30.15 54.66-65.94 71.74-104.78q12.03-27.36 21.02-56.43 5.85-18.92 12.57-45.96 4.91-19.72 13.31-59.75 22.22-105.9 60.1-207.38c21.84-58.52 50.71-115.8 91.48-163.47q34.75-40.65 78.57-65.96 23.84-13.77 52.41-24.8 36.5-14.09 78.69-23.1 7.8-1.66 21.72-4.16"/><ellipse fill="#eaf0f0" rx="4.66" ry=".22" transform="rotate(34.2 392.67 1984.758)"/><path fill="#8dc181" d="m1332.39 495.22-.22-.13a.61.59-76 0 0-.9.56q.74 12.87 5.07 24.81.83 2.3-.46 5.75c-5.47-.93-11.45.45-15.94 1.49-5.87 1.36-9.97 8.71-11.75 14.03q-2.65 7.93-3.81 16.21-4.62 33.22-.3 67.63c1.09 8.74.28 17.55-5.46 24.5a.71.71 0 0 0 .32 1.13l2.54.85q-8.88 2.71-16.18-3.36c-6.91-5.75-8.5-14.75-8.25-23.89q.12-4.71.41-24.3.09-6.44-3.45-14.52c-6.05-13.78-22.39-15.23-36.12-18.39q-10.82-2.49-15.03-4.53-11.1-5.4-17.54-16.86-4.35-7.74-6.94-15.51 2.66 3.87 4.9 7.83 1.6 2.82 3.41 4.09 7.1 4.97 16.52 3.55 7.55-1.14 13.07-5.39 1.78-1.37 2.45-5.18.35-2.02-.7-5.51c-1.32-4.37-2.29-7.92-3.12-12.51-1.18-6.64-3.31-17.61-4.43-26.56q-3.93-31.36-5.44-39.51-4.12-22.28-13.35-47.44-23.2-63.21-32.92-88.08-14.45-36.96-33.07-71.43-14.17-26.24-31.57-49.8-15.91-21.55-37.2-42.59-4.09-4.05-8.5-7.73c-3.86-3.23-8.16-6.75-11.21-10.77q-1.19-1.55-2.39-2.91 1.04-.22 2.57.57 1.55.8 2.35 1.05 17.33 5.31 33.99 11.66c19.03 7.25 37.59 16.77 54.39 28.46q36.72 25.56 64.67 58.82 33.15 39.44 56.65 86.77 17.86 35.95 29.94 69.45 18.09 50.13 31.77 104.26c.17.65.13 1.18.21 1.79q.05.49.52.68.67.27.5.96"/><path fill="#52a426" d="M749.4 267.55q-2.37-4.63-6.4-8.05c-8.09-6.86-14.11-11.72-19.52-19.07-7.17-9.75-9.3-21.63-8.37-33.35q.82-10.25 4.02-22.8 4.29-16.89 8.51-33.73l1.01-19.95q3.51 13.61-.1 27.15-7.34 27.47-9.52 40.58-2.81 16.8.98 30.47 2.07 7.44 9.45 14.34 6.44 6.03 14.35 11.2 2.04 1.34 5.35 5.28 2.63 3.14.24 7.93"/><path fill="#c7d974" d="M727.64 150.55q-4.22 16.84-8.51 33.73-3.2 12.55-4.02 22.8c-.93 11.72 1.2 23.6 8.37 33.35 5.41 7.35 11.43 12.21 19.52 19.07q4.03 3.42 6.4 8.05.58 5.63-1.61 9.21-4.4 7.18-7.6 10.67-4.61 5.04-8.4 9.63-10.32 9.15-18.42 19.56-7.44 9.57-10.29 15.71-8.87 19.07-1.46 37.37c3.64 8.98 10.81 17.66 18.47 24.02q15.98 13.24 37.5 19.96 10.15 3.17 20.56 4.89 17.8 2.94 36.1 3.22 3.85.06 32.43-1.43 9.27-.48 19.6-1.71c11.39-1.36 26.06-2.8 39.4-4.74 23.3-3.4 41.34-5.93 61.59-7.31q11.88-.82 18.81.39c9.37 1.63 17.94 8.18 18.15 18.03q.47 22.33.93 32.68.69 15.42 7.65 26.95 7.55 12.49 22.79 15 7.26 1.2 12.69.71 18.34-1.67 36.07-8.03 19.7-7.06 35.42-15.73 6.92 16.28 11.36 33.21c5.42 20.66 6.58 42.74 1.83 63.59q-1.39 6.13-5.88 18.7c-2.78 7.79-8.76 22.94-10.52 34.97q-2.16 14.83 7.45 26.45 13.32 16.11 14.49 17.65 4.45 5.85 7.19 12.42c6.63 15.85.52 32.7-15.35 39.46-7.32 3.12-12.95.51-18.94-2.27q-3.94-1.82-7.33-2.19c-10.3-1.15-15.44 6.91-15.51 16.2-.07 7.68 2.44 16.05 5.12 22.3q8.73 20.35 10.66 26.1 13.31 39.67.14 79.31-4.75 14.29-6.61 19.47c-3.85 10.69-5.59 29.44 9.73 30.62 12.99 1 24.15-12 29.48-22.24 6.75-12.99 9.8-27.25 6.67-41.26-2.06-9.24-4.7-16.38 5.61-21.48q11.01-5.45 21.37-6.44c11.17-1.08 16.44 5.58 19.56 15.05 2.85 8.67 4.49 18.39 2.98 27.17q-.89 5.17-1.73 7.13-4.12 9.63-8.86 18.18c-4.12 7.42-6.47 12.49-6.66 20.04q-.02.89.59 1.55 5.06 5.38 12.14 7.55 9.47 2.91 20.85 5.55c12.64 2.93 24.4 9.56 27.95 23.02q1.68 6.36 1.55 12.43-.31 14.44-5.31 31.76-3.32 11.49-9.13 34.56-1.86 7.37-3.12 19.89c-1.92 19 3.8 34.91 16.55 48.25 5.3 5.56 12.44 12.52 17.09 19.02 7.48 10.47 12.01 25.96 9.18 38.24q-1.02 4.41-5.31 12.8-5.79 11.32-6.28 12.43-7.76 17.6-10.44 36.55-2.61 18.53-1.94 33.92.39 9.06 1.9 22.22a1.22 1.2-14.5 0 1-.75 1.25l-4.71 1.91a1.65 1.64-30.1 0 0-.68 2.54l6.65 8.42a1 1 0 0 1-.54 1.58q-5.78 1.47-11.58-2.2-8.86-5.62-13.07-14.62-3.02-6.44-5.87-15.37c-2.32-7.29-6.4-12.08-14.66-11.55-12.91.84-26.57 5.29-35.59 14.81-11.77 12.44-20.93 28-28.79 43.73q-10.91 21.8-23.37 49.34-.76 1.67-2.22 3.4-3.54-7.13-5.41-14.93 1.95-3 2.67-5.72 3.53-13.32 5.91-28.48 5.6-35.63 4.36-71.72-.7-20.38-6.11-38.73-3.59-12.17-10.57-21.14-16.15-20.76-42.62-14.87-5.41 1.21-12.95 3.28c-6.15 1.69-12.29 1.63-15.73-4.56q-1.79-3.24-4.61-8.66-2.59-4.99-4.49-6.6-3.72-3.13-7.55-3.57-8.37-.97-18.81 2.88-16.81 6.21-31.82 16.46c-15.25 10.4-23.86 25.52-21.52 44.35.94 7.62 3.69 15.65 5.02 23.69a.43.43 0 0 1-.54.48q-5.49-1.5-8.9-6.06-4.91-6.57-8.77-18.21-.57-1.71-4.49-15.16a1.71 1.71 0 0 0-1.85-1.21q-17.87 2.22-34.52 3.73-6.37.58-13.39-1.66a2.23 2.23 0 0 1-1.54-2.39c.6-5.01 2.5-12.7 2.31-17.95q-.54-14.85-12.98-24.14c-5.4-4.04-10.89-6.72-17.24-5.18-3.6.88-8.18 4.79-10.41 7.93q-10.65 15-14.01 19.51c-7.55 10.17-15.52 17.1-28.16 19.8-10.18 2.18-18.5 1.17-30.45.2q-11.42-.92-17.13 8.47-3.92 6.46-5.36 10.19-6.08 15.73-7.65 18.78c-2.11 4.07-5.18 8.16-10.03 8.37q-2.39.1-6.38-1.61-7.68-3.31-14.41-8.6c4.12-1.68 6.83-5.48 5.27-9.89q-1.11-3.12-4.36-4.62c-5.81-2.68-12.8.24-13.4 7.16q-7.88-4.82-15.82-9.04-1.46-.77-2.52-.75-.51.01-.85.39-3.65 4.08-4.73 9.96c-2.68 14.6-4.83 26.46-7.91 39.47q-10.85 45.9-20.12 87.95-.5 2.29-1.9 5.07a1.32 1.31-86.8 0 1-.7.63q-7.69 3-12.11 5.07c-6.28 2.93-10.49 7.34-14.56 13.27-4.35 6.34-8.62 12.84-16.81 13.76a1.51 1.5-13 0 1-1.58-.98q-1.21-3.3-1.27-5.79c-.46-19.01-.65-36.1-2.53-53.9q-1.08-10.25-3.04-16-1.94-5.7-3.48-7.76-2.38-3.17-5.81-7.39-.61-.76-.45-1.72c1.28-7.91 4.11-19.89 4.86-28.17q2-22.09-5.55-44.7c-3.64-10.88-8.52-22.08-14.05-33.31-3.07-6.21-4.57-11.45-4.1-17.9a.96.95 1 0 1 .92-.88q4.17-.16 8.48.51c6.65 1.03 19.18 4.61 29.05 4.92q2.09.07.56-1.35-7.04-6.56-16.17-11.55c-16.15-8.82-33.51-15.91-51.45-20.19q-36.09-8.62-72.21-6.53-41.33 2.38-79.63 17.01c-15.11 5.77-28.48 14.87-37.08 28.03-7.8 11.95-12.97 27.3-16.05 42-1.15 5.53-1.79 11.35.28 16.56q.89 2.23 3.99 6.31 3.45 4.54 6.92 9.27-5.51 29.3-8.76 59.15-2.04 18.74-4.04 37.49-1.82 17.1-6.12 79.23-3.05 43.94-7.09 86.33-2.49 26.15-7.87 59.95-3.21 20.13-11.57 44.14-5.92 17-17.21 31.04-11.32 14.07-29.55 20.68-7.46 2.71-13.42 5.05-3.99 1.57-3.29 6.07 3.07 19.63 20.66 28.27 6.48 3.17 13.21 4.55 15.12 3.09 31.48 1.25c18.46-2.08 35.68-5.95 51.83-15.01q21.39-12 30.34-35.33 4.25-11.07 5.62-22.46.64-5.4 1.14-17.99.34-8.72-.63-17.97-2.11-20.07-4.07-30.54-3.62-19.31-8.6-38.64-7.29-28.2-9.14-35.35-10.17-39.27-6.89-78.51 1.87-22.39 5.76-51.59 4.35-32.58 18.05-61.83 4.1-8.75 9.55-17.56 10.49-16.97 19.99-27.83 14.49-16.56 31.14-26.63 16.16-9.76 35.76-10.41 6.42-.21 12.68 1.1 9.35 1.96 11.66 2.93 14.4 6.03 27.28 17.11 17.42 15 23.05 36.47.68 2.6.36 6.92-.04.48-.38.81l-.31.3q-.12-.11-.2-.22-.06-.09-.06-.27.14-6.39-2.2-12.91-4.47-12.47-13.26-21.23-16.27-16.21-36.06-23.62-19.04-7.13-37.98-1.37c-13.04 3.97-25.58 11.32-36.29 20.52q-31.94 27.45-45.08 66.86-6.14 18.42-8.58 40.46-1.93 17.42-5.18 50.7-1.34 13.7-1.31 19.95.06 13.81 1.73 24.59 1.81 11.66 5.14 25.26.09.36 9.63 37.75 9.39 36.75 13.72 64.98 4.12 26.89 4 52.01-.08 16.84-5.01 33.28-5.27 17.57-18.31 29.89c-11.04 10.43-25.16 16.87-39.7 20.96q-19.61 5.51-42.14 6.93-15.67.99-29.07-1.47-17.45-3.21-27.93-15.66c-10.25-12.19-14.29-30.75-15.17-47.05q-1.28-23.96 1.28-46.4 4.8-41.94 14.97-82.37c9.94-39.57 19.44-70.94 37.57-130.45q5.78-18.99 9.27-47.1 3.14-25.29 2.97-50.57-.18-26.12-3.85-49.38c-2.68-17.07-7.9-34.32-16.98-49.38a.43.43 0 0 1 .18-.6q3.49-1.75 3.9-1.97 12.39-6.65 14.13-20.27.83-6.46.52-15.65-.24-6.96-1.93-28.25-1.18-14.82-.82-38.72-1.11-8.03-5.75-13.89-9.07-11.47-23.63-11.92-7.68-.24-12.6.38-4.36.55-43.31 5.53-15.37 1.96-37.13 2.03-8.25.02-16.28-.88-6.24-.7-16.27-1.56-.42-.04-.66.08-.34.16-.54.43-.37-1.15-.65-1.51-8.6-11.16-9.59-25.42-.55-7.84-.09-15.69 2.36-40.58 19.67-76.87 4.1-8.6 9.57-16.28 1.07.32 2.66.19 13.11-1.07 25.97.91a1.44 1.44 0 0 1 1.2 1.67q-2 11.45-2.73 17.95-1.39 12.45 8.58 15.24c6.25 1.75 14.3-.35 19.25-4.42q6.26-5.17 10.63-12.06 9.02-14.21 10.73-16.82c6.45-9.87 14.36-19 25.91-23.07q9.77-3.44 20.42-.72 11.52 2.93 21.75 10.99 2.19 1.72 4.53 3.31l11.07 9.43q.14.12.27 0 .16-.14.08-.26-4.6-5.86-10.3-10.69-11.29-10.96-24.56-15.91c-14-5.22-29.48-3.61-41.84 5.04q-2.36 1.65-4.84 3.24 2.15-2.58 4.52-4.9 2.95-2.88 4.52-4.87 13.49-17.01 21.66-31.64 2.47-4.41 13.01-23.47 16.04-29 27.46-60.04 5.15-13.98 7.26-19.66 3.79-10.22 6.48-18.93 7.24-23.46 12.04-41.57 1.64-6.21 3.76-12.88 2.74-8.66 3.78-12.83 7.77-31.3 17.53-74.24 13.81-60.81 37.04-113.83 10.9-24.86 19.03-40.65 3.07-5.94 14.32-26.36 4.8-8.71 9.85-17.4 14.59-25.11 30.75-52.08 4.53-7.57 13.65-21.78 6.85-10.67 11.06-16.67 19.03-27.14 40.36-51.74 7.51-8.65 21.09-22.28 6.64-6.68 14.77-13.46 24.5-20.46 48.41-35.98 30.38-19.71 62.34-32.9 12.3-5.08 28.68-10.84 14.86-5.23 43.15-10.93"/><g fill="none" stroke-width="2"><path stroke="#6bb044" d="M693.98 857.49q-3.51-2.58-8.37-4.08-21.28-6.55-43.35-3.06-6.93 1.09-9.69 2.35" vector-effect="non-scaling-stroke"/><path stroke="#d8e7b6" d="M271.86 970.55q-.19.15-.37.3" vector-effect="non-scaling-stroke"/><path stroke="#d9efda" d="M271.49 970.85q-10.54 3.99-15.7 13.71-1.13 2.13-1.49 4.46-1.33 8.81 3.56 15.95" vector-effect="non-scaling-stroke"/><path stroke="#d8e7b6" d="m257.86 1004.97-.59.97" vector-effect="non-scaling-stroke"/><path stroke="#b2d790" d="M257.86 1004.97q.54.59.88.32 4.05-3.18 7.82-7.72 5.18-6.26 5.6-14.16.18-3.34.1-6.3-.08-3.21-.77-6.26" vector-effect="non-scaling-stroke"/></g><ellipse fill="#fde6bf" rx="15.77" ry="13.32" transform="rotate(-41.8 603.61 -715.909)"/><path fill="#fde6bf" d="M547.06 265.07q11.1-9.72 23.73-15.28c7.76-3.42 19.91-5.63 27.65-1.39 9.55 5.23 13.67 15.76 12.82 26.21q-.97 11.89-6.63 22.37-11.7 21.69-32.61 36.78-12.6 9.09-27.26 12.91-9.07 2.36-17.4-.18c-12.02-3.67-16.03-14.89-14.48-26.55q.98-7.4 2.35-11.2c6.23-17.26 18-31.57 31.83-43.67"/><path fill="#326a07" d="M824.7 299.24c4.66 17.51-10.99 31.44-27.57 30.42q-4.58-.28-9.87-4.22c-7.75-7.68-5.71-20.4.27-28.32q4.86-6.44 11.63-8.64 7.65-2.49 15.45.69 6.84 2.8 10.09 10.07"/><path fill="#52a426" d="M731.79 297.06q-9.46 13.36-19.59 25.64-1.25 1.52-3.7 6.06-1.96 3.61-2.92 6.46-7.77 22.86 7.95 42.52 3.56 4.44 11.9 10.37 14.7 10.45 32.78 16.14 12.13 3.82 27.81 6.49 9.3 1.58 15.99 1.82 16.3.6 24.01.57 9.3-.03 19.97-.86 27.31-2.13 55.51-5.5 14.38-1.71 48.19-5.95 13.05-1.64 19.91-1.86 12.91-.42 22.02.66 5.32.64 10.58 4.99 5.23 4.32 6.32 11.22 1.47 9.36 1.34 18.24c-.21 13.74-.85 24.87 3.06 36.85 5.36 16.41 19.83 24.37 36.59 23.04q6.25-.5 12.29-1.9 20.49-4.74 38.41-12.85 12.88-5.84 26.89-14.04c3.81-2.24 7.47-3.9 11.2-5.92q8.29-4.49 14.9 3.41 5.09 6.08 7.32 10.15 5.86 10.73 10.15 21.51 6.19 15.54 12.93 34.41 3.69 10.32 9.32 21.19 9.8 18.94 29.19 25.62 3.85 1.32 12.41 3 6.28 1.24 12.5 2.71c3.94.93 8.2 2.05 11.36 4.3q7.34 5.25 6.53 14.71-3.46-11.06-14.71-11.43-6.13-.89-12.3-1.75-8.62-1.19-17.2-4.01-16.27-5.34-26.4-18.54-5.17-6.73-8.53-13.72c-7.06-14.72-11-27.25-17.79-46.55q-2.72-7.75-6.03-14.98c-4.24-9.31-7.75-16.06-14.32-22.64q-3.4-3.39-8.32-.83-13.93 7.27-19.53 10.79-15.72 8.67-35.42 15.73-17.73 6.36-36.07 8.03-5.43.49-12.69-.71-15.24-2.51-22.79-15-6.96-11.53-7.65-26.95-.46-10.35-.93-32.68c-.21-9.85-8.78-16.4-18.15-18.03q-6.93-1.21-18.81-.39c-20.25 1.38-38.29 3.91-61.59 7.31-13.34 1.94-28.01 3.38-39.4 4.74q-10.33 1.23-19.6 1.71-28.58 1.49-32.43 1.43-18.3-.28-36.1-3.22-10.41-1.72-20.56-4.89-21.52-6.72-37.5-19.96c-7.66-6.36-14.83-15.04-18.47-24.02q-7.41-18.3 1.46-37.37 2.85-6.14 10.29-15.71 8.1-10.41 18.42-19.56"/><path fill="#8dc181" d="M787.26 325.44q5.29 3.94 9.87 4.22c16.58 1.02 32.23-12.91 27.57-30.42q8.92-1.67 12.81 5.52c4.47 8.27.26 18.82-5.57 24.94q-3.29 3.45-8.45 6.8-7.08 4.6-15.87 5.4c-7.26.66-18.01-2.18-21.21-9.68-.8-1.88.33-4.72.85-6.78"/><ellipse fill="#fff" rx="16.96" ry="16.59" transform="rotate(118.9 274.986 389.94)"/><ellipse fill="#fde6bf" rx="10.52" ry="9.52" transform="rotate(130.3 160.683 283.477)"/><path fill="#8dc181" d="M1105.4 465.62q-18.37 10-38.12 16.1-7.68 2.38-15.83 2.9c-5.49.35-11.79-.06-16.37-2.11q-11.45-5.12-14.45-18.64-1.51-6.87-1.69-11.37-.23-5.98-.16-30.25.01-1.83-.57-7.75-1.98-20.5-22.04-24.33c-3.43-.65-7.8-1.21-10.58-1.25q-18.49-.32-31.83 1.17-23.67 2.64-64.53 7.32-17.67 2.03-37.98 3.33-30.34 1.94-58.31-1.87-21.91-2.99-41.57-10.98-15.02-6.1-25.97-17.27-1.11-1.12-1.7-2.64 3.57 2.45 6.71 5.35 4.07 3.76 8.73 5.85 15.1 6.76 31.42 10.47 25.01 5.67 44.96 6.32 26.95.88 59.51-2.93 21.63-2.53 65.29-8.95c7.36-1.08 14.61-1.95 22.6-1.99q1.52-.01 13.51-.2 9.28-.14 18.83 1.32 6.6 1.01 11.96 3.51 4.73 2.2 9.74 7.1 3.63 3.54 5.61 9.91 3.07 9.83 2.72 17.77-.74 16.97-.9 26.19c-.18 9.79.45 20.11 12.1 22.28q3.1.58 8.63.13 18.24-1.48 35.11-5.96 5.47-1.45 7.46-1.81 5-.92 7.69-.55 2.58.35 10.02 3.83"/><circle cx="1038.44" cy="434.93" r="7.28" fill="#fff"/><ellipse rx="14.11" ry="13.49" transform="rotate(94.9 95.577 517.78)"/><path fill="#b0cf6c" d="M636.3 475.85c3.75-6.69 2.12-14.65-2.06-20.91a.65.65 0 0 1 .6-1.01q5.57.59 8.44 5.48 5.51 9.37 1.98 19.36c-1.8 5.1-5.74 8.62-10.94 9.79q-5.56 1.26-9.03-2.84a.81.81 0 0 1 .22-1.22c3.6-2.06 8.53-4.61 10.79-8.65"/><path fill="#2f2e15" d="M497.34 551.59c-10.13 17.8-30.95 30.72-51.5 22.96-13.78-5.2-22.93-19.95-25.61-34.19q-5.1-27.13 5.69-52.22c6.02-14 18.91-28.87 34.84-31.45 24.66-3.99 41.04 16.52 45.3 38.81 3.68 19.27.9 39.22-8.72 56.09"/><path fill="#b0cf6c" d="M1250.2 588.83q2.32 3.52 2.58 4.93 1.89 10.4 4.93 27.78c1.17 6.69 1.52 11.36 2.43 20q.72 6.91 1.28 15.02 1.15 16.85 2.42 33.68 13.15 174.43 13.8 183.27 2.39 32.45 4.57 63.28.7 9.84 1.18 19.98 4.57 97.48 5.44 139.98.53 26.08.57 103.25.01 17.83.1 19.99.46 11.72 2.94 21.38 5.23 20.35 10.5 40.7 4.71 18.19 8.11 46.08 1.19 9.73 2.82 37.76.29 5.02.93 13.16.77 9.82.45 13.19-1.37 14.36-1.93 29.6-.41 11.14-1.49 19.27-4.16 31.3-9.44 59.36-4.59 24.43-5.94 31.92-4.59 25.46-6.21 52.35-.47 7.71-.38 19.98c.13 16.1-.02 28.13-3.23 41.45q-2.61 10.87-8.43 27.51-1.12 3.18-1.04 8.95c.04 2.61-1.25 4.3-3.48 5.23q-21.84 9.11-44.24 4.31-9.51-2.03-15.75-9.17-3.54-4.05-7.41-8.08a2.36 1.86 33.7 0 0-3.7.29l-.38 1.55q-4.69-5.74-9.8-10.93-1.54-1.57-3.26-2.63a1.29 1.29 0 0 0-1.67.27l-2.09 2.53q-.52-15.9 1.44-32.76c1.71-14.65 3.3-27.69 5.88-42.12q3.72-20.81 7.5-41.61l7.96 6.16q-2.88 12.4-4.67 25.56c-.67 4.93-.31 10.57 3.56 13.88 2.95 2.52 7.61 2.34 10.78.16q3.47-2.37 6.14-5.41c3.14-3.57 4.15-6.55 1.16-10.53q-2.08-2.77-3.01-3.67 3.55-2.43 4.3-6.04 3.21-15.55 4.67-20.78 13.87-49.76 22.39-87.74.47-2.12.84-4.27.51-3 .82-4.28 10.98-45.14 5.13-91.08-3.03-23.8-13.12-46.51-5.77-13-9.74-17.39-6.99-7.71-19.54-9.21-20.98-2.5-38.99 8-8.11 4.72-12.89 8.6-14.09 11.44-24.2 26.54-7.56 11.28-14.6 24.42-.6 1.12-.87 2.1a1.15 1.15 0 0 0 1.36 1.43q2.4-.52 7.22-1.48 3.66-.73 7.04-2.07 7.24-2.86 14.35-5.98 7.81-3.43 11.89-4.6 7.04-2.03 12.45-2.98 6.95-1.21 13.61.87 2.17.68 3.47 2.23-1.72-.28-3.3-.78-1.88-.59-3.25-.7-10.29-.86-19.37 2.31-9.59 3.35-28.11 10.94-3.84 1.57-7.57 2.32-5.32 1.07-7.87 1.22-12.92.77-21.12-9.05 1.46-1.73 2.22-3.4 12.46-27.54 23.37-49.34c7.86-15.73 17.02-31.29 28.79-43.73 9.02-9.52 22.68-13.97 35.59-14.81 8.26-.53 12.34 4.26 14.66 11.55q2.85 8.93 5.87 15.37 4.21 9 13.07 14.62 5.8 3.67 11.58 2.2a1 1 0 0 0 .54-1.58l-6.65-8.42a1.65 1.64-30.1 0 1 .68-2.54l4.71-1.91a1.22 1.2-14.5 0 0 .75-1.25q-1.51-13.16-1.9-22.22-.67-15.39 1.94-33.92 2.68-18.95 10.44-36.55.49-1.11 6.28-12.43 4.29-8.39 5.31-12.8c2.83-12.28-1.7-27.77-9.18-38.24-4.65-6.5-11.79-13.46-17.09-19.02-12.75-13.34-18.47-29.25-16.55-48.25q1.26-12.52 3.12-19.89 5.81-23.07 9.13-34.56 5-17.32 5.31-31.76.13-6.07-1.55-12.43c-3.55-13.46-15.31-20.09-27.95-23.02q-11.38-2.64-20.85-5.55-7.08-2.17-12.14-7.55-.61-.66-.59-1.55c.19-7.55 2.54-12.62 6.66-20.04q4.74-8.55 8.86-18.18.84-1.96 1.73-7.13c1.51-8.78-.13-18.5-2.98-27.17-3.12-9.47-8.39-16.13-19.56-15.05q-10.36.99-21.37 6.44c-10.31 5.1-7.67 12.24-5.61 21.48 3.13 14.01.08 28.27-6.67 41.26-5.33 10.24-16.49 23.24-29.48 22.24-15.32-1.18-13.58-19.93-9.73-30.62q1.86-5.18 6.61-19.47 13.17-39.64-.14-79.31-1.93-5.75-10.66-26.1c-2.68-6.25-5.19-14.62-5.12-22.3.07-9.29 5.21-17.35 15.51-16.2q3.39.37 7.33 2.19c5.99 2.78 11.62 5.39 18.94 2.27 15.87-6.76 21.98-23.61 15.35-39.46q-2.74-6.57-7.19-12.42-1.17-1.54-14.49-17.65-9.61-11.62-7.45-26.45c1.76-12.03 7.74-27.18 10.52-34.97q4.49-12.57 5.88-18.7c4.75-20.85 3.59-42.93-1.83-63.59q-4.44-16.93-11.36-33.21 5.6-3.52 19.53-10.79 4.92-2.56 8.32.83c6.57 6.58 10.08 13.33 14.32 22.64q3.31 7.23 6.03 14.98c6.79 19.3 10.73 31.83 17.79 46.55q3.36 6.99 8.53 13.72 10.13 13.2 26.4 18.54 8.58 2.82 17.2 4.01 6.17.86 12.3 1.75"/><path fill="none" stroke="gray" stroke-width="2" d="M1228.47 822.16c-8.01-.65-13.16 5.43-12.84 13.19m85.79 545.32q-8.37.15-9.56 9" vector-effect="non-scaling-stroke"/><path fill="#2f2e15" d="M969.91 479.2c20.47 3.31 31.55 23.36 34.35 43.01q3.29 23.18-6.3 46.59c-7.68 18.74-25.89 35.5-47.69 31.98-21.79-3.52-33.8-25.16-35.19-45.37q-1.73-25.24 8.69-46.2c8.84-17.77 25.67-33.31 46.14-30.01"/><path fill="#b0cf6c" d="M1332.39 495.22q.34 3.61.7 4.94 4.74 17.13 8.18 34.56-3.26-3.67-5.39-8.51 1.29-3.45.46-5.75-4.33-11.94-5.07-24.81a.61.59-76 0 1 .9-.56z"/><ellipse fill="#fff" rx="12.99" ry="11.15" transform="rotate(-2 15005.982 -12789.834)"/><path fill="#b3dfb4" d="M1335.88 526.21q2.13 4.84 5.39 8.51l1.18 6.75q-1.52-1.12-4.46-4.48-3.29-3.74-7.96-.69c-5.05 3.3-6.63 8.68-8.2 14.82q-1.39 5.44-1.7 9.55c-.43 5.66-1.14 15.42-1.32 23.12q-.56 24.73-.92 32.59-.15 3.17-1.42 12.96-1.64 12.64-11.35 20.77-.74.63-3.64 1.94l-2.54-.85a.71.71 0 0 1-.32-1.13c5.74-6.95 6.55-15.76 5.46-24.5q-4.32-34.41.3-67.63 1.16-8.28 3.81-16.21c1.78-5.32 5.88-12.67 11.75-14.03 4.49-1.04 10.47-2.42 15.94-1.49"/><ellipse fill="#fff" rx="13.53" ry="11.48" transform="rotate(1.6 -18851.698 34368.326)"/><path fill="#83bb62" d="M1344.38 560.09q9.94 51.51 14.7 79.11 6.19 35.9 8.77 49.75 5.6 29.98 13.17 61.9 13.26 55.99 33.77 109.75c7.97 20.9 15.89 39.49 29.57 72.9q4.01 9.81 7.12 18.43 4.99 13.87 6.39 18.72 2.38 8.23 4.17 17.85 3.58 19.26-2.38 37.42-5.31 16.23-14.61 30.38-8.77 13.34-15.65 21.1-4.13 4.65-35.61 37.74-9.16 9.63-13.44 14.81-11.35 13.71-20.31 29.8-14.42 25.88-21.52 54.42-1.56 6.25-3.81 19.63-2.65 15.74-3.14 21.21-2.85 31.79-4.1 67.93-.07 1.9-1.77 51.81-.65 19.19.06 39.2.36 9.88 2 19.88 5.04 30.67 13.91 58.31 6.45 20.1 17.46 53.19 3.56 10.73 5.42 19.19 3.42 15.58 4.33 22.41 1.54 11.51 1.41 26.88-.27 29.8-16.67 53.07-7.66 10.86-19.89 18.59-13.32 8.41-27.16 13.11-15.7 5.33-28.07 7.9c-10.42 2.17-20.86 3.05-31.5 3.22q-7.44.11-12.87-.86-19.72-3.51-29.01-21.22-2.2-4.19-2.92-10.84l.38-1.55a2.36 1.86 33.7 0 1 3.7-.29q3.87 4.03 7.41 8.08 6.24 7.14 15.75 9.17 22.4 4.8 44.24-4.31c2.23-.93 3.52-2.62 3.48-5.23q-.08-5.77 1.04-8.95 5.82-16.64 8.43-27.51c3.21-13.32 3.36-25.35 3.23-41.45q-.09-12.27.38-19.98 1.62-26.89 6.21-52.35 1.35-7.49 5.94-31.92 5.28-28.06 9.44-59.36 1.08-8.13 1.49-19.27.56-15.24 1.93-29.6.32-3.37-.45-13.19-.64-8.14-.93-13.16-1.63-28.03-2.82-37.76-3.4-27.89-8.11-46.08-5.27-20.35-10.5-40.7-2.48-9.66-2.94-21.38-.09-2.16-.1-19.99-.04-77.17-.57-103.25-.87-42.5-5.44-139.98-.48-10.14-1.18-19.98-2.18-30.83-4.57-63.28-.65-8.84-13.8-183.27-1.27-16.83-2.42-33.68-.56-8.11-1.28-15.02c-.91-8.64-1.26-13.31-2.43-20q-3.04-17.38-4.93-27.78-.26-1.41-2.58-4.93 11.25.37 14.71 11.43.19 10.53 0 21.27-.16 9.42.3 13.44c1.15 9.93 4.14 20.19 11.94 26.86q4.3 3.67 9.83 4.43 5.49 1.49 9.64-.85.75-.17 1.52-.56 18.34-9.31 23.65-28.79 3.31-12.14 3.42-26.06.24-28.62 1.27-40.75 1.05-12.3 1.81-15.46 1.03-4.32 3.73-8.37a.77.76-51.1 0 1 1.16-.13q7.12 6.76 11.2 14.8"/><path fill="none" stroke="gray" stroke-width="2" d="M1333.92 1593.9c-11.65 3.28-15.61 15.78-10.59 26.01" vector-effect="non-scaling-stroke"/><path fill="#c7d974" d="M1344.38 560.09q1.4 1.22 2.21 2.71 3.33 13.04 4.73 20.17c12.43 63.15 19.09 98.07 31.08 148.85q.04.17.82 2.35c.4 1.11.33 2.3.6 3.33 12.23 47.59 27.74 94.56 46.73 140.02q20.05 48 26.21 63.25 3.56 8.83 9.48 27.23 4.4 13.67 5.65 27.82.96 10.88-.35 19.94-2.94 20.29-13.03 38.55-12.36 22.36-32.56 42.9c-15.22 15.49-26.43 26.47-38.32 40.92q-25.8 31.38-38.1 69.14-4.89 15.03-8.86 33.47-.11.49.24.84.49.5.29.96-1.54 3.66-1.83 5.45-4.35 27.44-6.06 63.76-2.11 44.79-2.77 82.85-.72 41.17 10.2 77.1 7.53 24.8 21.68 70.37 7.86 25.31 12.73 51.5 3.14 16.85 3.15 33.69.01 14.89-4.21 28.57c-8.92 28.92-35.11 48.03-62.81 57.15q-30.7 10.12-61.5 10.75-14.61.3-29.97-5.26c-21.67-7.83-31.8-25.87-33.89-47.79q-.04-.43-.29-.73-.11-.13-.34-.3-.32-.23-.27-.62l.36-3.01 2.09-2.53a1.29 1.29 0 0 1 1.67-.27q1.72 1.06 3.26 2.63 5.11 5.19 9.8 10.93.72 6.65 2.92 10.84 9.29 17.71 29.01 21.22 5.43.97 12.87.86c10.64-.17 21.08-1.05 31.5-3.22q12.37-2.57 28.07-7.9 13.84-4.7 27.16-13.11 12.23-7.73 19.89-18.59 16.4-23.27 16.67-53.07.13-15.37-1.41-26.88-.91-6.83-4.33-22.41-1.86-8.46-5.42-19.19-11.01-33.09-17.46-53.19-8.87-27.64-13.91-58.31-1.64-10-2-19.88-.71-20.01-.06-39.2 1.7-49.91 1.77-51.81 1.25-36.14 4.1-67.93.49-5.47 3.14-21.21 2.25-13.38 3.81-19.63 7.1-28.54 21.52-54.42 8.96-16.09 20.31-29.8 4.28-5.18 13.44-14.81 31.48-33.09 35.61-37.74 6.88-7.76 15.65-21.1 9.3-14.15 14.61-30.38 5.96-18.16 2.38-37.42-1.79-9.62-4.17-17.85-1.4-4.85-6.39-18.72-3.11-8.62-7.12-18.43c-13.68-33.41-21.6-52-29.57-72.9q-20.51-53.76-33.77-109.75-7.57-31.92-13.17-61.9-2.58-13.85-8.77-49.75-4.76-27.6-14.7-79.11"/><path fill="#83bb62" d="M421.19 577.55a1.75 1.75 0 0 0-2.38.09q-1.64 1.65-.39 4.03.26.51-.3.41-.82-.13-.91-1.1-.2-2.34 1.46-4.28a1.45 1.44 29.8 0 1 1.58-.42c3.39 1.17 7.47 4 9.83 5.16 12.89 6.33 25.47 6.5 39.91 4.78q9.61-1.14 20.94-5.78 9.24-3.79 11.35-4.68c1.39-.59 3.07-.83 4.54-.53a1.33 1.33 0 0 1 .8 2.08q-7.86 10.84-20.13 16.18-13.99 6.08-27.96 6.09-8.06.01-17.05-2.67-5.55-1.64-11.23-5.97-4.44-3.38-9.61-8.62-.63-.64-.18-1.41 1.21-2.07-.27-3.36m498.35 21.92q3.44 2.98 12.52 7.51 12.16 6.06 25.96 6.32 15.41.29 31.91-3.21 9.64-2.05 24.39-5.69a.91.9-1.5 0 1 1.11 1.05q-.9 4.53-4.12 7.62-6.12 5.89-16.19 10.25-12.26 5.29-28.77 5.15c-11.01-.09-20.18-1.36-29.76-6.52q-15.04-8.09-24.61-22.61-2.15-3.26-2.12-6.81a.77.77 0 0 1 1.29-.56q4.68 4.28 8.39 7.5"/><path fill="#2f2e15" d="M585.17 649.92q13.18-14.81 31.54-27.46 25.69-17.71 56.02-21.78c30.67-4.12 59.44 6.29 81.64 27.29q8.82 8.34 15.17 15.83 11.27 13.28 23.01 33.73c14.16 24.66 23.83 50.31 31.29 77.91q4.96 18.35 7.07 39.07 1.75 17.06-.62 30.83-2.05 11.91-7.18 19.54c-6.26 9.3-16.48 14.84-27.85 13.17q-10.46-1.54-21.46-7.77-19.34-10.96-39.9-25.16-2.19-1.51-13.7-7.88-8.62-4.78-14.22-6.84-21.82-8.03-45.75-4.23-19.14 3.04-37.96 10.09-15.11 5.67-32.76 12.5c-9.48 3.68-22.41 5.21-31.67.27-11.17-5.95-18.08-18.96-20.36-31.18q-5.85-31.37 1.97-62.86 4.58-18.47 12.62-35.17 13.31-27.64 33.1-49.9"/><path fill="#52a426" d="M1296.62 665.41q-4.15 2.34-9.64.85 4.69-1.37 9.64-.85"/><circle cx="319.8" cy="718.77" r="8.19"/><path fill="#e4e691" d="M485.35 765.7c.21 3.2 1.95 5.48 3.48 7.81 2.59 3.94-1.81 8.43-4.53 10.8-4.35 3.76-10.8 5.02-13.45-1.38-1.41-3.4-.99-6.64-.63-11.25q.58-7.4 2.5-16.2 2.76-12.62 10.59-25.61 5.82-9.65 15.2-15.6 1.6-1.02 3.37-.8a.63.63 0 0 1 .44.97c-4.05 6.21-8.43 12.4-10.98 19.38-3.87 10.59-6.71 20.8-5.99 31.88"/><circle cx="375.33" cy="741.87" r="11.51"/><path fill="#b0cf6c" d="M395.81 737.82q3.05 6.06 2 11.99c-1.45 8.16-7.49 12.12-15.62 9.4q-2.58-.86-.13-2.02c5.79-2.74 8.2-6.2 10.15-12.25q1.14-3.57 2.73-6.94.18-.4.52-.4.24.01.35.22"/><path fill="#2f2e15" d="M1340.52 802.19c5.49 10.8 5.2 26.47-5.04 34.52q-4.51 3.55-10.7 3.21c-9.77-.52-19.31-9.08-23.69-17.71-4.38-8.62-5.67-21.38-.33-29.57q3.38-5.2 8.91-6.75c12.54-3.52 25.36 5.49 30.85 16.3"/><circle cx="304.53" cy="797.95" r="4.86"/><path fill="#c7d974" d="M1333.66 806.02q4.4 8.84.55 19.21c-2.38 6.42-8.91 8.01-14.87 5.05-4.96-2.47-8.5-6.88-10.91-11.72-2.4-4.83-3.78-10.32-2.76-15.76 1.24-6.54 6.44-10.79 13-8.81q10.59 3.18 14.99 12.03"/><path fill="#fff" d="M1228.47 822.16c-8.01-.65-13.16 5.43-12.84 13.19q-5.76-6.02-3.01-12 2.05-4.45 6.73-5.34 5.32-1.01 9.12 4.15"/><path d="M1228.47 822.16q10.76 3.21 8.31 13.6-1.07 4.54-6.27 7.12-5.09 2.53-9.7-.24-4.13-2.49-5.18-7.29c-.32-7.76 4.83-13.84 12.84-13.19"/><path fill="#e4e691" d="M694.38 842.94c-9.54-7.35-20.82-11.97-32.62-10.19q-3.95.6-4.7.67-1.19.1-.29-.67c3.69-3.18 7.71-5.08 12.72-5.52q10.45-.91 19.26 1.65 13.17 3.83 24.77 12.67 12.04 9.18 25.27 19.55 9.19 7.2 15.38 10.95 8.48 5.12 16.66 8.87 3.24 1.48 11 3.76 11.66 3.41 23.42 2.39 5.47-.47 9.83-2.24 4.69-1.91 7.38-2.9c3.48-1.29 6.86.42 6.07 4.61-.44 2.33-2.24 4.38-4.23 5.83q-12.14 8.83-27.77 9.09c-12.76.22-24.29-1.82-35.92-7.15-15.19-6.96-28.22-17.13-40.69-28.73-7.53-7.01-16.26-15.5-25.54-22.64"/><path fill="#52a426" d="M693.98 857.49q-3.51-2.58-8.37-4.08-21.28-6.55-43.35-3.06-6.93 1.09-9.69 2.35l-15.37 3.72a.29.29 0 0 1-.36-.28v-.26q0-.11.07-.18 4.58-4.38 10.99-7.09 14.15-5.97 29.71-6.2c14.1-.21 27.57 1.82 38.42 10q2.21 1.67 2.21 5.14a.66.66 0 0 1-.49.64q-1.54.44-3.77-.7"/><path fill="#fff" d="M296.75 885.85c-4.11 8.72-12.11 20.15-22.22 21.77-8.37 1.34-14.15-5.32-14.75-13.08-.62-7.92 1.85-16.43 5.27-23.66 3.41-7.23 8.41-14.54 14.92-19.1 6.37-4.46 15.19-4.23 19.47 3.08 5.17 8.84 1.43 22.28-2.69 30.99"/><path fill="#83bb62" d="M693.98 857.49q.74 2.7 2.12 5.03 2.1 3.54 2.29 4.66.45 2.78-1.49 5.35a1.77 1.76-53.8 0 1-2.42.38c-10.23-7.19-21.51-10.24-34.72-10.87q-7.97-.38-27.36-.03-.41 0-.73-.24-2.4-1.81-3.7-3.89a1.81 1.8 63.2 0 0-2.21-.73l-9 3.65q-.74.3-.39-.41.47-.96 1.59-1.45 6.98-3.04 14.61-6.24 2.76-1.26 9.69-2.35 22.07-3.49 43.35 3.06 4.86 1.5 8.37 4.08"/><ellipse fill="#fff" rx="8.36" ry="7.82" transform="rotate(-.6 88093.349 -75223.073)"/><path fill="#326a07" d="M282.36 930.11q-.57 1.19-1.12 1.52-2.34-1.59-4.53-3.31-10.23-8.06-21.75-10.99-10.65-2.72-20.42.72c-11.55 4.07-19.46 13.2-25.91 23.07q-1.71 2.61-10.73 16.82-4.37 6.89-10.63 12.06c-4.95 4.07-13 6.17-19.25 4.42q-9.97-2.79-8.58-15.24.73-6.5 2.73-17.95a1.44 1.44 0 0 0-1.2-1.67q-12.86-1.98-25.97-.91-1.59.13-2.66-.19l3.68-5.12q13.77-1.32 27.27.94 4.98.84 7.78 2.15 2.37 1.11 1.71 4.33-1.75 8.5-3.91 18.07-.82 3.64-.64 6.48a2.69 2.68-1.5 0 0 2.65 2.51q5.65.06 9.79-4.43 4.76-5.16 8.23-10.75c7.18-11.54 12.62-21.87 22.22-30.16q2.48-1.59 4.84-3.24c12.36-8.65 27.84-10.26 41.84-5.04q13.27 4.95 24.56 15.91"/><path fill="#83bb62" d="M281.24 931.63q.55-.33 1.12-1.52 5.7 4.83 10.3 10.69.08.12-.08.26-.13.12-.27 0z"/><path fill="#fff" d="M271.86 970.55q-.19.15-.37.3-10.54 3.99-15.7 13.71-1.13 2.13-1.49 4.46-1.33 8.81 3.56 15.95l-.59.97q-13.47 7.66-26.67-.04c-15.32-8.94-17.73-30.1-8.2-43.64q6.79-9.65 17.47-11.7 10.16-1.95 19.06 3.13 9.22 5.26 12.93 16.86"/><path fill="#b0cf6c" d="m257.27 1005.94.59-.97q.54.59.88.32 4.05-3.18 7.82-7.72 5.18-6.26 5.6-14.16.18-3.34.1-6.3-.08-3.21-.77-6.26.18-.15.37-.3 9.72 1.46 15.98 8.22 6.02 6.5 7.2 15.34c3.25 24.41-19.55 43.24-39.05 52.59q-8.81 4.23-18.43 5.46-1.61.21-.6-1.05 9.43-11.7 15.37-25.53 1.23-2.86 4.6-13.12 1.27-3.88.34-6.52"/><path fill="#b3dfb4" d="M271.49 970.85q.69 3.05.77 6.26.08 2.96-.1 6.3-.42 7.9-5.6 14.16-3.77 4.54-7.82 7.72-.34.27-.88-.32-4.89-7.14-3.56-15.95.36-2.33 1.49-4.46 5.16-9.72 15.7-13.71"/><ellipse fill="#fff" rx="16.66" ry="12.1" transform="rotate(-.8 70988.105 -9630.327)"/><path fill="#c7d974" d="M1426.55 1040.58q9.78-13.19 14.32-23.67 4.06-9.36 7.67-16.47a1.52 1.52 0 0 1 2.42-.4c1.64 1.58 2.12 3.66 2.19 5.85q.54 15.94-8 31.53-4.57 8.35-10.27 15.25c-14.67 17.78-33.99 32.62-56.95 36.62-4.53.79-11.18-.54-13.17-4.89a1.62 1.62 0 0 1 1.14-2.26q6.42-1.35 12.75-4 29.08-12.17 47.9-37.56"/><path fill="#83bb62" d="M269.6 1094.03q-1.65 3.95-2.09 6.23-3.74 19.14-3.52 31.51.3 17.34.46 34.75.05 4.85-1.38 10.75c-1.93 7.99-8.39 14.9-17.03 14.59-4.84-.17-8.35-4.5-10.42-8.7q-1.54-3.1-1.76-8.54-.44-10.45 1.81-20.37.08-.33-.16-.95.66-.69 1.03-1.8 5.33-16.07.82-32.35-.98-3.57-2.93-6.12c-.74-.97-.93-2.23-1.52-2.94q-3.03-3.68-6.67-6.59-3.17-2.54-8.23-4.01-8.92-2.6-17.72-2.41c-14.03.3-26.3.85-38.91-.68q-9.95-1.2-11.69-1.55-15.91-3.19-30.12-14.04l-6.14-6.58q.2-.27.54-.43.24-.12.66-.08 10.03.86 16.27 1.56 8.03.9 16.28.88 21.76-.07 37.13-2.03 38.95-4.98 43.31-5.53 4.92-.62 12.6-.38 14.56.45 23.63 11.92 4.64 5.86 5.75 13.89"/><path fill="#c7d974" d="M235.51 1153.3q-.14-.11-.25-.27a.84.83 38.2 0 1-.09-.72q.68-1.97.81-4.55c.57-11.21.44-21.92-5.6-31.32-5.95-9.25-17.46-13.22-28.13-13.22q-21.69.01-26.13-.14-17.14-.59-33.17-6.63-6.8-2.55-12.69-6.45-5.58-3.68-10.69-9.19 14.21 10.85 30.12 14.04 1.74.35 11.69 1.55c12.61 1.53 24.88.98 38.91.68q8.8-.19 17.72 2.41 5.06 1.47 8.23 4.01 3.64 2.91 6.67 6.59c.59.71.78 1.97 1.52 2.94q1.95 2.55 2.93 6.12 4.51 16.28-.82 32.35-.37 1.11-1.03 1.8"/><circle cx="1350.52" cy="1130.12" r="7.5"/><path fill="#b0cf6c" d="M684.5 1211.34q.6 4.88 4.98 6.93 3.49 1.63 7.51.42 6.73 5.29 14.41 8.6 3.99 1.71 6.38 1.61c4.85-.21 7.92-4.3 10.03-8.37q1.57-3.05 7.65-18.78 1.44-3.73 5.36-10.19 5.71-9.39 17.13-8.47c11.95.97 20.27 1.98 30.45-.2 12.64-2.7 20.61-9.63 28.16-19.8q3.36-4.51 14.01-19.51c2.23-3.14 6.81-7.05 10.41-7.93 6.35-1.54 11.84 1.14 17.24 5.18q12.44 9.29 12.98 24.14c.19 5.25-1.71 12.94-2.31 17.95a2.23 2.23 0 0 0 1.54 2.39q7.02 2.24 13.39 1.66 16.65-1.51 34.52-3.73a1.71 1.71 0 0 1 1.85 1.21q3.92 13.45 4.49 15.16 3.86 11.64 8.77 18.21 3.41 4.56 8.9 6.06a.43.43 0 0 0 .54-.48c-1.33-8.04-4.08-16.07-5.02-23.69-2.34-18.83 6.27-33.95 21.52-44.35q15.01-10.25 31.82-16.46 10.44-3.85 18.81-2.88 3.83.44 7.55 3.57 1.9 1.61 4.49 6.6 2.82 5.42 4.61 8.66c3.44 6.19 9.58 6.25 15.73 4.56q7.54-2.07 12.95-3.28 26.47-5.89 42.62 14.87 6.98 8.97 10.57 21.14 5.41 18.35 6.11 38.73 1.24 36.09-4.36 71.72-2.38 15.16-5.91 28.48-.72 2.72-2.67 5.72.14-3.54-.04-7.04-.22-4.32-.09-7.01c1.32-28.52 3.79-58.51-2.79-86.04q-3.24-13.55-10.35-23.37-7.87-10.86-21.11-13.22-.21-.44-.14-1.15 2.37-.06 1.14-2.27a1.15 1.09 6.7 0 0-.3-.36q-17.15-13.71-37.43-17.71-11.89-2.35-23.53 1.2c-8.48 2.59-19.06 8.2-23.62 15.87q-3.73 6.3-4.04 12.53-.5 10.24-.65 13.03-.38 7.09-.31 13.03.51 43.56-.65 62.47-1.77 28.66-4.79 55.29-3.44 30.33-4.13 36.43-1.07 9.56-4.35 21.78-1.85 6.89-4.71 12.81-4.27 8.84-13.39 10.92c-9.79 2.22-15.61-4.17-20.88-11.23a1.36 1.36 0 0 0-2.16-.02c-2.01 2.6-1.49 7.34-.84 10.02q1.88 7.79 6.21 14.42l-4.48 1.04c-14.55-21.84-14.39-50.61-11.83-75.71q2.12-20.89 3.82-41.39.19-2.1.63-4.11.61-2.84.77-4.06 2.68-19.91 3.11-25.94 1.17-16.05-1.14-37.73-.96-8.97-4.67-39.64c-.48-3.99-1.33-8.99-2.53-12.31q-3.94-10.92-15.69-11.45-6.45-.29-11.1.81-8.51 2.01-17.01 5.99-6.68 3.12-22.73 11.03c-2.6 1.28-7.23 3.13-9.91 3.35q-3.92.31-6.27-.74-3.51-1.59-9.88-5.8-6.47-4.28-15.54-8.02c-8.23-3.39-17.88-3.51-26.07 0q-9.74 4.16-15.89 10.88-5.46 5.96-12.77 17.68-4.15 6.65-8.95 17.86-11.31 26.37-16.93 47.78-2.98 11.39-3.84 14.35-5.85-2.1-10.51.28-14.03 7.19-9.43 23.25 2.66 9.29 13.16 11.43c-.02 2.38-.6 5.12-.78 7q-2.59 27.47-2.72 46.54-.01.73-.15 43.31-.04 13.33-2.63 27.32-.9 4.86-3.94 11.47-4.46 9.73-13.38 14.85-10.13 5.82-22.5 7.68-5.89.88-7.86.23-3.27-1.09-5.01-3.98-8.07-13.33-15.58-25.27-7.17-11.41-13.66-18.86-14.96-17.2-37.19-26.96-14.03-6.16-27.56-10.45-19.89-6.31-34.49-11.71l.06-5.55q0-.48.47-.5.19 0 .33-.15.16-.16.17-.38l.19-4.97q1.56-2.09 2.13-4.62.92-4.14 1.14-5.88.38-2.93 1.56-5.73.71-1.7 2.37-7.66c2.06-7.35 4.58-12.83 7.89-21.23q6.23-15.77 12.76-35.74 6.15-18.84 9.96-39.11 2.05-10.86 2.34-19.85.74-22.67-3.41-42.65-1.46-7.02-5.4-16.83c-6.98-17.34-20.53-22.53-38.3-22.53q-10.65 0-22.52 1.85-20.86 3.26-40.66 10.04-16.22 5.56-24.49 9-9.17 3.8-33.13 14.91-11.57 5.37-18.41 7.84-20.72 7.51-42.74 10.23-5.71.7-7.39 6.18-1.5 4.94-3.47 9.77-3.47-4.73-6.92-9.27-3.1-4.08-3.99-6.31c-2.07-5.21-1.43-11.03-.28-16.56 3.08-14.7 8.25-30.05 16.05-42 8.6-13.16 21.97-22.26 37.08-28.03q38.3-14.63 79.63-17.01 36.12-2.09 72.21 6.53c17.94 4.28 35.3 11.37 51.45 20.19q9.13 4.99 16.17 11.55 1.53 1.42-.56 1.35c-9.87-.31-22.4-3.89-29.05-4.92q-4.31-.67-8.48-.51a.96.95 1 0 0-.92.88c-.47 6.45 1.03 11.69 4.1 17.9 5.53 11.23 10.41 22.43 14.05 33.31q7.55 22.61 5.55 44.7c-.75 8.28-3.58 20.26-4.86 28.17q-.16.96.45 1.72 3.43 4.22 5.81 7.39 1.54 2.06 3.48 7.76 1.96 5.75 3.04 16c1.88 17.8 2.07 34.89 2.53 53.9q.06 2.49 1.27 5.79a1.51 1.5-13 0 0 1.58.98c8.19-.92 12.46-7.42 16.81-13.76 4.07-5.93 8.28-10.34 14.56-13.27q4.42-2.07 12.11-5.07a1.32 1.31-86.8 0 0 .7-.63q1.4-2.78 1.9-5.07 9.27-42.05 20.12-87.95c3.08-13.01 5.23-24.87 7.91-39.47q1.08-5.88 4.73-9.96.34-.38.85-.39 1.06-.02 2.52.75 7.94 4.22 15.82 9.04"/><path fill="#83bb62" d="M526.85 1395.62q-.35-1.76.23-3.85.79-2.84.9-3.66 5.98-42.11 9.67-75.42 1.35-12.19.6-27.05-.01-.33-.26-.56l-.29-.28.31-.3q.34-.33.38-.81.32-4.32-.36-6.92-5.63-21.47-23.05-36.47-12.88-11.08-27.28-17.11-2.31-.97-11.66-2.93-6.26-1.31-12.68-1.1-19.6.65-35.76 10.41-16.65 10.07-31.14 26.63-9.5 10.86-19.99 27.83-5.45 8.81-9.55 17.56-13.7 29.25-18.05 61.83-3.89 29.2-5.76 51.59-3.28 39.24 6.89 78.51 1.85 7.15 9.14 35.35 4.98 19.33 8.6 38.64 1.96 10.47 4.07 30.54.97 9.25.63 17.97-.5 12.59-1.14 17.99-1.37 11.39-5.62 22.46-8.95 23.33-30.34 35.33c-16.15 9.06-33.37 12.93-51.83 15.01q-16.36 1.84-31.48-1.25-6.73-1.38-13.21-4.55-17.59-8.64-20.66-28.27-.7-4.5 3.29-6.07 5.96-2.34 13.42-5.05 18.23-6.61 29.55-20.68 11.29-14.04 17.21-31.04 8.36-24.01 11.57-44.14 5.38-33.8 7.87-59.95 4.04-42.39 7.09-86.33 4.3-62.13 6.12-79.23 2-18.75 4.04-37.49 3.25-29.85 8.76-59.15 1.97-4.83 3.47-9.77 1.68-5.48 7.39-6.18 22.02-2.72 42.74-10.23 6.84-2.47 18.41-7.84 23.96-11.11 33.13-14.91 8.27-3.44 24.49-9 19.8-6.78 40.66-10.04 11.87-1.85 22.52-1.85c17.77 0 31.32 5.19 38.3 22.53q3.94 9.81 5.4 16.83 4.15 19.98 3.41 42.65-.29 8.99-2.34 19.85-3.81 20.27-9.96 39.11-6.53 19.97-12.76 35.74c-3.31 8.4-5.83 13.88-7.89 21.23q-1.66 5.96-2.37 7.66-1.18 2.8-1.56 5.73-.22 1.74-1.14 5.88-.57 2.53-2.13 4.62m540.34-196.66q-6.53-1.9-13.29-1.46-6.55.42-12.19 2.19c-6.42 2.02-13.76 7.55-18.17 12.62-9.21 10.61-15.31 23.42-18.92 37.72q-3.99 15.83-5.95 32.08-4.44 36.78-6.88 78.69c-1.05 18.1-2.78 34.96-6.76 51.47-3.5 14.52-8.87 26.71-18.4 37.09-6.61 7.22-18.46 12-27.61 6.9q-5.63-3.14-10.26-9.09-4.33-6.63-6.21-14.42c-.65-2.68-1.17-7.42.84-10.02a1.36 1.36 0 0 1 2.16.02c5.27 7.06 11.09 13.45 20.88 11.23q9.12-2.08 13.39-10.92 2.86-5.92 4.71-12.81 3.28-12.22 4.35-21.78.69-6.1 4.13-36.43 3.02-26.63 4.79-55.29 1.16-18.91.65-62.47-.07-5.94.31-13.03.15-2.79.65-13.03.31-6.23 4.04-12.53c4.56-7.67 15.14-13.28 23.62-15.87q11.64-3.55 23.53-1.2 20.28 4 37.43 17.71a1.15 1.09 6.7 0 1 .3.36q1.23 2.21-1.14 2.27"/><path fill="#b0cf6c" d="M603.6 1225.72q.01-11.76.89-18.42.92-7.05 5.54-11.86a.61.6-28.5 0 1 1.03.3q1.23 6.32.79 11.9-1.03 13.11-3.32 29.66-1 7.29-2.9 14.26-.11.4-.51.43-.14 0-.27-.03-.22-.07-.26-.3-.9-5.32-.95-9.18-.05-4.5-.04-16.76"/><path fill="#83bb62" d="M916.27 1331.11q-.5-3.8-.2-7.76.53-6.86.53-7.71.05-17.56-2.96-33.69-2.2-11.8-8.2-21.15c-6.37-9.94-18.45-15.48-30.2-16.44q-23.5-1.92-46.49 6.07-5 1.73-9 3.93-4.2 2.3-8.31 5.36-.33.25-.52.82-.59-.07-1.13.28-3.33 2.17-6.28 4.85-2.57 2.33-5.13 6c-2.77 3.97-7.49 9.22-10.17 13.72-5.62 9.41-8.9 18.5-12.94 30.22q-2.71 7.87-4.77 19.38-4.6 25.74-5.14 30.53-5.31 47.42-7.73 92.77-.99 18.63-1.85 31.48-.9 13.33-1.11 19.95-1.47 45.92-3.28 85.05-.58 12.58-1.35 19.97-1.68 16.18-4.89 39.72-3.71 27.19-14.15 51.23-4.69 10.81-9.52 17.53-8.94 12.48-21.02 21.25-8.14 5.91-18.58 9.8-7.14 2.66-14.73 2.78-9.88.14-18.31-.95-1.14-.15-3.11-.7c-2.84-.79-5.12-1.36-7.57-2.39q-10.69-4.49-13.62-5.51-.83-.29-1.48-.91-.37-.35-1.4-1.23-1.1-.95-1.98-.23c-12.75-12.56-21.06-29.64-25.06-46.82q-4.25-18.29-4.73-36.88-.53-21.21 4.92-37.37 2.56-7.59 11.84-35.39 3.06-9.17 8.44-30.54 5.49-21.78 6.97-41.08.63-8.21-.64-18.05c-2.37-18.28-12.75-31.32-31.62-34.74q-5.32-.97-12.77-1.21-.55-.02-1.01.08-.7.16-1 .17-1.97-1.82-5.4-1.99-9.2-.44-17.53-3.92-5.77-2.41-9.65-6.4c-5.67-5.86-10.12-11.85-12.45-19.49q-.61-2.02-1.59-9.34-.73-5.4-2.57-10.67.86-.78-.2-4.32 14.6 5.4 34.49 11.71 13.53 4.29 27.56 10.45 22.23 9.76 37.19 26.96 6.49 7.45 13.66 18.86 7.51 11.94 15.58 25.27 1.74 2.89 5.01 3.98 1.97.65 7.86-.23 12.37-1.86 22.5-7.68 8.92-5.12 13.38-14.85 3.04-6.61 3.94-11.47 2.59-13.99 2.63-27.32.14-42.58.15-43.31.13-19.07 2.72-46.54c.18-1.88.76-4.62.78-7q3.11.33 5.59-.73 6.9 1.33 12.77-1.58 6.35-3.16 8.22-10.16c3.37-12.59-5.55-22.01-18.21-19.6q-.29-.58-.96-.98.48-.82-.63-1.91.86-2.96 3.84-14.35 5.62-21.41 16.93-47.78 4.8-11.21 8.95-17.86 7.31-11.72 12.77-17.68 6.15-6.72 15.89-10.88c8.19-3.51 17.84-3.39 26.07 0q9.07 3.74 15.54 8.02 6.37 4.21 9.88 5.8 2.35 1.05 6.27.74c2.68-.22 7.31-2.07 9.91-3.35q16.05-7.91 22.73-11.03 8.5-3.98 17.01-5.99 4.65-1.1 11.1-.81 11.75.53 15.69 11.45c1.2 3.32 2.05 8.32 2.53 12.31q3.71 30.67 4.67 39.64 2.31 21.68 1.14 37.73-.43 6.03-3.11 25.94-.16 1.22-.77 4.06-.44 2.01-.63 4.11"/><path fill="#c7d974" d="M1067.19 1198.96q-.07.71.14 1.15-16.58-2.04-27.89 7.54-8.32 7.04-14.86 19.44-5.96 11.32-9.68 28.36-3.18 14.57-5.23 33.12-.99 8.95-1.72 19.96-2.27 34.32-4.32 66.02-1.49 23.05-7.04 47.32-3.71 16.25-11.77 28.95c-4.65 7.33-11.93 14.36-20.45 16.36q-8.31 1.96-17.02-1.05-14.39-4.98-23.07-17.92l4.48-1.04q4.63 5.95 10.26 9.09c9.15 5.1 21 .32 27.61-6.9 9.53-10.38 14.9-22.57 18.4-37.09 3.98-16.51 5.71-33.37 6.76-51.47q2.44-41.91 6.88-78.69 1.96-16.25 5.95-32.08c3.61-14.3 9.71-27.11 18.92-37.72 4.41-5.07 11.75-10.6 18.17-12.62q5.64-1.77 12.19-2.19 6.76-.44 13.29 1.46"/><path fill="#fff" d="M696.99 1218.69q-4.02 1.21-7.51-.42-4.38-2.05-4.98-6.93c.6-6.92 7.59-9.84 13.4-7.16q3.25 1.5 4.36 4.62c1.56 4.41-1.15 8.21-5.27 9.89"/><ellipse fill="#eaf0f0" rx="7.09" ry=".26" transform="rotate(61.5 -937.946 789.967)"/><path fill="#fff" d="M937.48 1258c-3.09-1.12-5.67-2.24-5.87-6.05q-.28-5.23 3.8-5.98 4.28-.78 5.8 3.74 1.42 4.21 1.61 9.06.69 16.71.38 27.25-.22 7.43-1.38 45.73-.41 13.47.4 24.75c.27 3.79 2.86 5.67 5.82 8.33 4.11 3.69-2.42 12.09-5.65 15.28-5.5 5.42-13.28 2.47-14.93-4.79q-1.02-4.49-.78-10.53.45-11.11 1.9-21.78.23-1.65 5.53-36.94 3.55-23.63 3.97-47.22.01-.64-.6-.85"/><path d="M432.48 1247.08q-1.73 1.63-3.77 2.9-3.16 1.98-3.96 2.6-13.66 10.53-24.21 24.57-.72-1.36.51-2.85 10.89-13.23 17.67-18.58 3.56-2.81 7.17-5.55 2.9-2.21 6.59-3.09"/><path fill="#c7d974" d="m810.92 1260.54-.03.3q-.06.39-.39.62-3.92 2.68-6.84 5.95-9.01 10.12-14.15 22.06-6.96 16.18-10.57 35.76-3.3 17.98-5.47 36.78-7.19 62.38-10.09 124.26-.59 12.52-.83 19.97-2.09 66.03-3.76 98.76-1.03 20.27-3.66 42.87-2.46 21.23-9.11 45.89-.34 1.25-1.09 6.02-.08.46-.51.75-.15.1-.67.62-.23.23-.42.8-8.75 26.05-23.99 41.91-18.84 19.6-46.8 19.81c-20.05.15-38.1-4.82-52.86-18.54q.88-.72 1.98.23 1.03.88 1.4 1.23.65.62 1.48.91 2.93 1.02 13.62 5.51c2.45 1.03 4.73 1.6 7.57 2.39q1.97.55 3.11.7 8.43 1.09 18.31.95 7.59-.12 14.73-2.78 10.44-3.89 18.58-9.8 12.08-8.77 21.02-21.25 4.83-6.72 9.52-17.53 10.44-24.04 14.15-51.23 3.21-23.54 4.89-39.72.77-7.39 1.35-19.97 1.81-39.13 3.28-85.05.21-6.62 1.11-19.95.86-12.85 1.85-31.48 2.42-45.35 7.73-92.77.54-4.79 5.14-30.53 2.06-11.51 4.77-19.38c4.04-11.72 7.32-20.81 12.94-30.22 2.68-4.5 7.4-9.75 10.17-13.72q2.56-3.67 5.13-6 2.95-2.68 6.28-4.85.54-.35 1.13-.28"/><path fill="#83bb62" d="M1222.12 1575.68q-.72-12.68 1.03-24.91 1.86-12.93 2.54-17.51 1.22-8.18 3.1-17.4 7.25-35.64 11.61-60.78.75-4.33 1.81-12.85.7-5.58 1.89-12.84.5-3.02-1.97-5.03c-4.41-3.61-12.02 1.74-9.49 7.04.85 1.77 3.32 3.09 5.12 3.82a.58.57 18.1 0 1 .34.66q-4.57 20.42-8.21 37-3.01 13.72-15.46 55.35-2.23 7.45-6.27 27.46l-7.96-6.16q6.65-33.55 13.13-67.13 6.64-34.43 9.18-55.38 2.73-22.61 1.45-40.99-.54-7.84-3.73-17.36-2.9-8.67-7.77-14.01-5.59-6.12-13.75-9.23-.7-.27-1 .03-1.3-1.55-3.47-2.23-6.66-2.08-13.61-.87-5.41.95-12.45 2.98-4.08 1.17-11.89 4.6-7.11 3.12-14.35 5.98-3.38 1.34-7.04 2.07-4.82.96-7.22 1.48a1.15 1.15 0 0 1-1.36-1.43q.27-.98.87-2.1 7.04-13.14 14.6-24.42 10.11-15.1 24.2-26.54 4.78-3.88 12.89-8.6 18.01-10.5 38.99-8 12.55 1.5 19.54 9.21 3.97 4.39 9.74 17.39 10.09 22.71 13.12 46.51 5.85 45.94-5.13 91.08-.31 1.28-.82 4.28-.37 2.15-.84 4.27-8.52 37.98-22.39 87.74-1.46 5.23-4.67 20.78-.75 3.61-4.3 6.04"/><path fill="#fff" d="M719.86 1311.04q1.11 1.09.63 1.91c-8 3.04-14.6 10.9-13.04 19.86q1.28 7.39 7.54 10.49l3.68 1.97q-2.48 1.06-5.59.73-10.5-2.14-13.16-11.43-4.6-16.06 9.43-23.25 4.66-2.38 10.51-.28"/><path fill="#b0cf6c" d="M720.49 1312.95q.67.4.96.98-3.12.77-4.49 2.3-10.84 12.21-1.97 27.07-6.26-3.1-7.54-10.49c-1.56-8.96 5.04-16.82 13.04-19.86"/><path d="m718.67 1345.27-3.68-1.97q-8.87-14.86 1.97-27.07 1.37-1.53 4.49-2.3c12.66-2.41 21.58 7.01 18.21 19.6q-1.87 7-8.22 10.16-5.87 2.91-12.77 1.58"/><path fill="#c7d974" d="M965.19 1386c-1.18 8.82-4.14 19.21-6.69 27.99q-1.65 5.68-4.32 10.24a1.36 1.33-72.9 0 1-1.24.67c-4.39-.25-9.29-3.21-13.04-5.65a2.3 2.29-75.3 0 1-1.04-1.79q-.43-7.92.56-16.47 1.28-11.05 6.9-20.35 4.07-6.75 8.82-12.04a1.53 1.53 0 0 1 1.9-.3q9.77 5.65 8.15 17.7"/><path fill="#fff" d="M1301.42 1380.67q-8.37.15-9.56 9-4.72-2.73-3.72-7.94.57-2.92 2.68-4.47 2.3-1.68 5.45-1.46 4.34.3 5.15 4.87"/><ellipse fill="#fff" rx="13.18" ry="10.27" transform="rotate(-2 40068.421 -15344.96)"/><path d="M1301.42 1380.67q5.56.75 6.95 5.66 1.66 5.85-2.88 9.35-4.34 3.33-8.9 1.25-4.25-1.93-4.73-7.26 1.19-8.85 9.56-9"/><path fill="#c7d974" d="M575.02 1463.3q-1.93 1.2-3.93-.08a1.87 1.86 62.7 0 0-.87-.28q-3.32-.2-8.41-.99-16.43-2.54-25.84-14.59-5.92-7.58-8.19-16.63-.13-.52-.6-.79-.7-.41-.37-1.15.22-.48.18-.99l-1.16-16.31q1.84 5.27 2.57 10.67.98 7.32 1.59 9.34c2.33 7.64 6.78 13.63 12.45 19.49q3.88 3.99 9.65 6.4 8.33 3.48 17.53 3.92 3.43.17 5.4 1.99"/><path fill="#fff" d="M1222.12 1575.68q.93.9 3.01 3.67c2.99 3.98 1.98 6.96-1.16 10.53q-2.67 3.04-6.14 5.41c-3.17 2.18-7.83 2.36-10.78-.16-3.87-3.31-4.23-8.95-3.56-13.88q1.79-13.16 4.67-25.56 4.04-20.01 6.27-27.46 12.45-41.63 15.46-55.35 3.64-16.58 8.21-37a.58.57 18.1 0 0-.34-.66c-1.8-.73-4.27-2.05-5.12-3.82-2.53-5.3 5.08-10.65 9.49-7.04q2.47 2.01 1.97 5.03-1.19 7.26-1.89 12.84-1.06 8.52-1.81 12.85-4.36 25.14-11.61 60.78-1.88 9.22-3.1 17.4-.68 4.58-2.54 17.51-1.75 12.23-1.03 24.91"/><path fill="#8dc181" d="M1049.86 1460.61q.1-.25.19-.36.7-.81.38.21-.13.41-.32.53-.54.36-.25-.38"/><path fill="#fff" d="M637.36 1508.69q.06-.61-.51-.85c-1.43-.59-3.3-1.25-4.12-2.82q-1.73-3.31.57-6.17c2-2.49 6.74-1.98 7.87 1.16 1.56 4.36 1.46 9.94 1.17 14.35q-.85 12.52-2.63 24.96-1.16 8.03-7.29 42.48-2.01 11.31-2.96 24.26c-.26 3.55.52 4.83 2.6 7.49 2.57 3.29 3.03 6.14-.06 9.71q-3.8 4.4-6.82 6.15c-3.58 2.08-8.76 1.38-10.97-2.57q-1.72-3.09-1.62-6.31.09-3.08 1.32-11.32.77-5.16 3.69-16.5 1.47-5.68 4.53-16.27 8.03-27.8 12.38-48.15 1.73-8.14 2.85-19.6"/><circle cx="1342.77" cy="1550.03" r="7.73"/><circle cx="708.67" cy="1562.18" r="9.3"/><path fill="#fff" d="M1333.92 1593.9c-11.65 3.28-15.61 15.78-10.59 26.01q.02.43-.2.62a.46.45-34.9 0 1-.7-.12q-1.24-2.24-3.15-3.94-3.39-3.02-3.65-3.37-2.34-3.15-2.91-7.36-.88-6.44 3.05-10.98 3.84-4.45 10.82-4.34 4.79.08 7.33 3.48"/><path d="M1333.92 1593.9q5.73-.44 8.29.62 12.58 5.23 10.17 19.1-1.07 6.1-6.05 9.72c-7.44 5.42-17.81 4.86-23-3.43-5.02-10.23-1.06-22.73 10.59-26.01"/><ellipse fill="#fff" rx="13.12" ry="11.46" transform="rotate(88 -723.456 936.478)"/><path fill="#c7d974" d="M1343.85 1666.11c-3.76.87-10.91 1.06-12.86-3.36q-1.27-2.88.8-5.49 4.69-5.91 12.9-4.9c3.87.47 5.37 3.44 5.16 6.95q-.32 5.48-6 6.8"/><ellipse fill="#c7d974" rx="6.89" ry="3.59" transform="rotate(-32.7 3507.853 -1393.052)"/><circle cx="1292.76" cy="1682.42" r="7.3"/><path fill="#c7d974" d="M1315.22 1680.67q.72-2.36 3.26-3.76 4.93-2.73 9.45-.84 2.07.86 3.03 3.1a1.3 1.27-35.6 0 1-.24 1.38q-2.11 2.28-5.61 3.76-5.39 2.27-9.37-1.6a2.03 2.02-59.4 0 1-.52-2.04"/><path fill="#b0cf6c" d="M637.84 1705.63q-5.41 1.86-11.82 2.47c-5.12.49-12.28-.68-15.41-4.93-3.75-5.11.34-9.97 5.02-12.78q11.28-6.75 23.72-3.69c5.27 1.3 9.84 5.56 8.83 11.55-.62 3.71-7.13 6.28-10.34 7.38m40.57 27.37q-7.84 7.78-17.17 4.09a2.1 2.1 0 0 1-.88-3.23c4.13-5.34 12.47-6.56 17.91-2.66q1.14.82.14 1.8"/><path fill="#b3dfb4" d="M777.84 1769.56q-9.97 13.48-16.76 19.27-8.59 7.32-14.92 12.08-2.13 1.59-5.77 3.38 3.28-3.36 7.25-5.78 2.01-1.22 3.07-2.15 1.11-.98 2-1.54 1.01-.64 1.9-1.62 1.6-1.77 3.4-3.27 2.59-2.16 3.64-3.24 1.71-1.77 3.34-3.57 1.34-.85 2.33-2.37.9-.68 1.1-1.26.49-.81 1.35-1.36.24-.26.36-.59l.83-1.15q.79-.39.98-1.17l1.5-1.45 1.35-1.47q1.58-3.18 3.05-2.74"/><path fill="#8dc181" d="m773.24 1773.75.2.02-1.5 1.45q.46-1 1.3-1.47m-1.3 1.47q-.19.78-.98 1.17.44-.71.98-1.17m-1.81 2.32q-.12.33-.36.59zm-2.89 3.14q.04.03.08.07-.99 1.52-2.33 2.37.95-1.44 2.25-2.44"/></svg>