<?xml version="1.0" standalone="no"?>
<!DOCTYPE svg PUBLIC "-//W3C//DTD SVG 20010904//EN" "http://www.w3.org/TR/2001/REC-SVG-20010904/DTD/svg10.dtd">
<!-- Created using Krita: https://krita.org -->
<svg xmlns="http://www.w3.org/2000/svg" 
    xmlns:xlink="http://www.w3.org/1999/xlink"
    xmlns:krita="http://krita.org/namespaces/svg/krita"
    xmlns:sodipodi="http://sodipodi.sourceforge.net/DTD/sodipodi-0.dtd"
    preserveAspectRatio='none'
    width="19.2pt"
    height="10.32pt"
    viewBox="0 0 19.2 10.32">
<defs/>
<path id="shape0" transform="matrix(0.0381315538608198 0 0 0.037719298245614 -0.0617422652721061 -0.239884808249709)" fill="#f2bf7f" fill-rule="evenodd" stroke="#f2bf7f" stroke-width="1.2" stroke-linecap="square" stroke-linejoin="bevel" d="M319.323 91.5373C341.467 73.2971 329.394 141.294 362.4 121.152C387.229 106 336.29 241.449 376.759 259.356C407.016 244.227 396.153 217.928 403.681 191.704C396.546 120.896 415.23 149.326 420.732 132.819C426.962 114.13 442.41 64.2355 444.963 65.512C466.413 76.2373 458.24 101.225 469.193 112.178C472.616 115.601 514.736 129.467 501.501 88.8451C494.473 67.2781 480.86 19.3039 490.731 0L0.0101195 2.88243C0.0101195 10.3609 -0.442136 79.5558 4.70016 84.6981C24.013 104.011 30.2717 122.321 40.132 151.902C51.789 186.872 -3.6809 265.339 44.7603 281.486C49.1719 282.957 54.1139 279.971 55.6176 276.964C85.0109 218.177 46.4187 137.741 90.9877 93.1719C107.632 76.528 86.4382 146.125 111.049 158.431C126.408 166.11 130.471 120.428 125.69 102.023C161.339 71.4327 154.982 135.394 183.522 129.289C230.677 144.057 217.651 192.581 235.767 201.639C275.204 221.358 236.793 93.9522 258.696 83.0003C269.748 77.4747 269.175 115.588 296.058 104.029" sodipodi:nodetypes="cscccsssccccccccccccc"/>
</svg>
