<?xml version="1.0" standalone="no"?>
<!DOCTYPE svg PUBLIC "-//W3C//DTD SVG 20010904//EN" "http://www.w3.org/TR/2001/REC-SVG-20010904/DTD/svg10.dtd">
<!-- Created using Krita: https://krita.org -->
<svg xmlns="http://www.w3.org/2000/svg" 
    xmlns:xlink="http://www.w3.org/1999/xlink"
    xmlns:krita="http://krita.org/namespaces/svg/krita"
    xmlns:sodipodi="http://sodipodi.sourceforge.net/DTD/sodipodi-0.dtd"
    preserveAspectRatio='none'
    width="144pt"
    height="96pt"
    viewBox="0 0 144 96">
<defs/>
<path id="shape0" transform="translate(15.7062634989201, 12.5961123110151)" fill="#f2bf7f" fill-rule="evenodd" stroke="#f2bf7f" stroke-width="1.2" stroke-linecap="square" stroke-linejoin="bevel" d="M0 0.155508L116.475 0C116.838 2.54096 116.786 4.0442 116.32 4.50972C115.821 5.00731 113.669 4.21097 111.499 4.66523C110.369 4.90184 109.458 5.26067 109.166 5.59827C108.082 6.85187 108.501 8.73744 108.233 9.48596C107.851 10.5537 107.649 13.5596 105.745 14.6177C105.32 14.8539 103.751 15.0173 102.79 14.3067C100.605 12.6902 100.842 9.2295 100.147 8.08639C99.034 6.25559 97.9514 4.87992 97.1922 4.50972C96.2503 4.05041 94.711 4.01335 92.6825 5.13175C91.1262 5.98982 89.7639 7.42192 89.5724 8.2419C88.1699 14.2448 89.4562 19.0653 89.4168 21.7711C89.3654 25.3064 88.5404 31.2482 89.1058 39.4471C89.329 42.684 90.602 45.1823 90.1944 46.3413C89.5644 48.1326 87.5695 49.2269 86.7732 49.4514C86.2007 49.6128 84.5846 49.6833 83.5076 48.8294C82.8696 48.3235 81.9084 46.6692 81.6415 44.6307C81.2389 41.5568 82.568 39.1634 82.73 37.7883C82.9513 35.9105 84.1227 26.9037 84.1296 25.1922C84.1419 22.1458 83.6442 19.9359 83.3521 18.6609C82.8576 16.5034 82.2442 14.9796 81.797 14.1512C81.3917 13.4003 80.7489 11.773 79.1533 10.73C78.3421 10.1997 78.0682 9.48614 75.7322 9.64147C74.0411 9.75391 73.8662 10.108 73.5551 10.419C72.7455 11.2284 71.1347 12.3133 71.067 12.9071C70.8851 14.5002 70.8499 15.6484 70.7559 16.3283C70.4669 18.4204 69.9547 19.8065 69.5119 20.527C68.5443 22.1015 67.0838 22.5667 66.4017 22.7041C65.1994 22.9463 64.2642 22.1098 63.9136 21.7711C62.3265 20.2374 62.422 17.9417 62.203 16.9503C61.6419 14.4099 61.6464 12.526 61.27 11.5076C60.5878 9.66172 59.4144 8.80398 58.7819 8.55292C56.6019 7.68765 54.582 9.32546 54.1166 9.95248C53.3886 10.9334 51.6135 13.2807 51.6285 13.8402C51.6854 15.9608 51.2758 18.3956 51.162 19.2829C50.9754 20.7375 50.9484 23.1994 50.54 26.5918C49.9853 31.1987 51.2808 32.5533 50.54 33.8488C49.9125 34.9461 48.4519 39.3983 47.8963 39.4471C45.3858 39.6675 44.9386 40.0435 44.3197 39.6026C42.2659 38.1397 42.7934 31.9456 42.7646 30.635C42.6605 25.8961 43.9722 27.8215 43.3866 24.1037C42.9526 21.3479 41.7426 13.2136 40.743 12.2851C38.5754 10.2716 38.1557 9.3077 36.8553 9.33045C34.3176 9.37486 32.6702 10.7001 31.879 11.3521C29.5128 13.302 28.9828 16.0125 28.4579 17.2613C27.4214 19.7273 27.0103 21.4665 26.2808 22.0821C23.7136 24.2483 21.953 22.9699 20.6825 22.5486C18.8631 21.9452 17.2308 18.7339 17.1058 17.8834C16.7021 15.1355 15.4035 11.5405 14.9287 10.2635C14.4504 8.97689 12.7531 7.50263 12.4406 6.99784C12.0372 6.3461 10.4302 5.6204 7.61987 4.82073L0.155508 4.97624C0.0518359 4.7689 0 3.16199 0 0.155508Z" sodipodi:nodetypes="ccsssssssssssssssssssssssssssssssssssssssssssssssssccc"/>
</svg>
