<svg xmlns="http://www.w3.org/2000/svg" viewBox="0 0 128 128"><path fill="#34620d" fill-opacity=".996" d="m75.72 2.9-1.03.46Q67.25 2.2 59.2 2.93q-1.28.12-.42 1.08c1.16 1.29.81 3.21.26 5.15q-.86 3.05 1.51 5.01a2.05 2.05 0 0 1 .15 3.03l-2.43 2.43a2.01 2.01 0 0 0 .09 2.94q1.67 1.48 4.43 1.85 5.02.68 10.02-.11.08-.01 1.62-.34 5.01-1.09 5.71 4.46.1.75.09 1.73a.61.61 0 0 0 .51.61q1.36.24 2.65.17.65-.04 2.24-1.08.64-.42 2.96-1.45.46-.2.91.03 1.23.62 1.85 1.96 1.22 2.62 2.3 5.6 1.47 1.55 4.2 2.25.57.15.65.74l.48 3.62a1.04 1.04 0 0 0 1.93.4l1.08-1.83q.12 2.61-2.3 3.4-.56.17-.92-.28-.95-1.2-.89-4.22.02-.9-.86-1.1l-2.46-.54-2.36-1.71-2.58-5.98q-.31-.57-.87-.67-.36-.06-.55.22-1.5-.2-1.48.27-3.15 1.52-5.97 1.3a1.89 1.89 0 0 1-1.71-1.63l-.46-3.47a1.64 1.63-4.5 0 0-1.67-1.42q-4.16.13-9.14.8c-3.33.45-11.39.05-11.26-4.8.04-1.66 1.99-3.62 3.17-4.94a1.32 1.32 0 0 0-.21-1.95q-3.18-2.33-.97-8.04-.22-1.5-.83-2.23-.58-.67-2.01-.42-8.73 1.57-14.77 7.52-4.49 4.43-7.86 13.74-3.48 9.62-4.84 16.89-2.54 13.58-12.66 21.17a.46.46 0 0 0 .09.79q.59.26 1.44.17.5-.06.75.38.25.42.24.54-.12 1.84.97.36l2.45-3.32q2.46-.06 4.33 1.44a.43.42-56.4 0 1 .1.54l-.14.24a.13.13 0 0 1-.2.03c-3.1-2.57-4.82.39-6.51 2.6a1.29 1.29 0 0 1-2.31-.61l-.09-.69q-.08-.57-.64-.71l-.98-.23a.75.69 18.9 0 0-.83.36q-1.71 3.59-1.83 6.26-.09 1.99 1.03 3.19l2.33 2.48q-3.1-.6-3.53-2.95-1.18-6.44 2.87-11.16 1.57-1.84 6.43-6.81.91-.93 3.23-5.73 1.16-2.4 2.13-6.19 2.76-10.89 3.46-13.52 1.5-5.63 5.05-12.96c2.65-5.46 7.5-10.24 13.14-12.51q6.94-2.79 12-2.88 4.45-.08 10.99.01 2.16.03 4.22.69"/><path fill="#b1ddb4" d="m74.69 3.36 7.71 1.9c1.91 2.61 4.26 4.98 5.71 7.66q5.41 9.95 7.33 21.16.09.5-.24.89-.51.6-1.55 1.03-1.08-2.98-2.3-5.6-.62-1.34-1.85-1.96-.45-.23-.91-.03-2.32 1.03-2.96 1.45-1.59 1.04-2.24 1.08-1.29.07-2.65-.17a.61.61 0 0 1-.51-.61q.01-.98-.09-1.73-.7-5.55-5.71-4.46-1.54.33-1.62.34-5 .79-10.02.11-2.76-.37-4.43-1.85a2.01 2.01 0 0 1-.09-2.94l2.43-2.43a2.05 2.05 0 0 0-.15-3.03q-2.37-1.96-1.51-5.01c.55-1.94.9-3.86-.26-5.15q-.86-.96.42-1.08 8.05-.73 15.49.43"/><path fill="#404724" fill-opacity=".992" d="m75.72 2.9 7.37 1.79q-.09.47-.69.57l-7.71-1.9z"/><path fill="#fff" d="M58.5 6.42Q47.15 9.03 40.22 18.44q-5.66 7.68-8.47 14.71c-2.14 5.38-3.6 13.23-5.41 18.47q-1.48 4.3-4.87 10.39l-2.45 3.32q-1.09 1.48-.97-.36.01-.12-.24-.54-.25-.44-.75-.38-.85.09-1.44-.17a.46.46 0 0 1-.09-.79q10.12-7.59 12.66-21.17 1.36-7.27 4.84-16.89 3.37-9.31 7.86-13.74 6.04-5.95 14.77-7.52 1.43-.25 2.01.42.61.73.83 2.23"/><path fill="#8bbf82" d="M84.25 5.05q-.2.28-.12.49.08.22.43.35 4.42 1.69 6.78 3.96 6.74 6.52 9.53 16.2.92 3.19 2.1 6.27-.2 1.01.42 1.9.35.51-.26.66-.36.09-.64.28-.45.31-.46.85l-.04 5.17-1.08 1.83a1.04 1.04 0 0 1-1.93-.4l-.48-3.62q-.08-.59-.65-.74-2.73-.7-4.2-2.25 1.04-.43 1.55-1.03.33-.39.24-.89-1.92-11.21-7.33-21.16c-1.45-2.68-3.8-5.05-5.71-7.66q.6-.1.69-.57.55.29 1.16.36"/><path fill="#404724" fill-opacity=".992" d="M103.93 33.79q-.71.07-.96-1.47-1.18-3.08-2.1-6.27-2.79-9.68-9.53-16.2-2.36-2.27-6.78-3.96-.35-.13-.43-.35-.08-.21.12-.49c8.74 2.7 14.34 10.82 17.05 19.36q2.07 6.49 2.63 9.38"/><path fill="#c6d875" d="M58.5 6.42q-2.21 5.71.97 8.04a1.32 1.32 0 0 1 .21 1.95c-1.18 1.32-3.13 3.28-3.17 4.94-.13 4.85 7.93 5.25 11.26 4.8q4.98-.67 9.14-.8a1.64 1.63-4.5 0 1 1.67 1.42l.46 3.47a1.89 1.89 0 0 0 1.71 1.63q2.82.22 5.97-1.3 2.67 5.32-.07 10.29a1.7 1.7 0 0 0 .02 1.67l1.96 3.4a1.72 1.72 0 0 1-.63 2.34l-2.28 1.31a1.43 1.43 0 0 0-.7 1.43l.68 5.15q.06.46-.19.87-1.2 1.99-1.12 3.75.03.54.52.78 1.33.65 2.63.37.49-.11.71-.57.83-1.8.75-3.66-.05-1.05.99-1.18l1.04-.14q1.17-.16 1.16 1.03-.03 2.6-.73 4.52a.64.63-65.7 0 0 .28.76l2.87 1.65q.87.5.87 1.51 0 1.99-.86 5.7c-.75 3.21 1.94 4.53 2.74 7.37a1.47 1.44 48 0 1-.04.94q-1.47 3.94-1.63 9.33-.02.59-.44.17-.89-.89-1.39-2.14-.22-.55-.81-.49c-3.05.28-4.12 2.41-5.73 5.05q-.26.42-.19.91.26 1.9-1.01 1.74-.68-1.68.2-4.52l.42-5.72q.03-.42-.18-.77L85.4 81.4a2.27 2.25 67.7 0 0-2.51-1.06q-1.85.47-3.08-.9a1.06 1.05-22 0 0-.86-.36q-4.89.23-5.03 5.28-.02.58-.39.13-.37-.47-.64-1.07-.22-.51-.76-.69-.94-.32-1.77-.18a1.34 1.34 0 0 1-1.52-1.04q-.53-2.5-1.87-2.39-.55.04-.87.49-2.21 3.05-5.53 2.89-.52-.03-.92.51l-1.68 2.27a.37.35-48.9 0 1-.55.05q-1.61-1.75-3.34-1.24-.5.15-.63.65-1.04 4.03-1.82 7.67-.38 1.77-.96 2.24-.98.79-1.94 1.63-.52.45-.58-.24-.26-2.69-.75-4.28-.69-2.2-.52-4.11.17-1.82-1.2-5.11a.93.93 0 0 1 .99-1.28q.43.06.82-.15.57-.31 0-.62-7.52-4.21-15.41-1.11-3.13 1.22-3.85 5.55a1.3 1.27 32.1 0 0 .23.97q.16.22.32.5.19.31.05 1.21-1.29 8.24-1.33 9.13-.34 7.6-1.56 14.92-.77 4.63-4.93 6.02-.57.19-.66-.4l-.39-2.44q1.07-5.82 4.09-17.04 1.82-6.77-.1-14.12 1.5-3.82 1.04-7.6a2.77 2.77 0 0 0-3.01-2.42l-8.58.77q-1.12-1.2-1.03-3.19.12-2.67 1.83-6.26a.75.69 18.9 0 1 .83-.36l.98.23q.56.14.64.71l.09.69a1.29 1.29 0 0 0 2.31.61c1.69-2.21 3.41-5.17 6.51-2.6a.13.13 0 0 0 .2-.03l.14-.24a.43.42-56.4 0 0-.1-.54q-1.87-1.5-4.33-1.44 3.39-6.09 4.87-10.39c1.81-5.24 3.27-13.09 5.41-18.47q2.81-7.03 8.47-14.71Q47.15 9.03 58.5 6.42"/><path fill="#322f18" d="M38.406 37.942a4.36 3.2 98.5 0 1-2.52-4.785 4.36 3.2 98.5 0 1 3.808-3.84 4.36 3.2 98.5 0 1 2.52 4.786 4.36 3.2 98.5 0 1-3.808 3.84"/><path fill="#82b963" d="M88.2 30.3q.44.42 1.42.45l2.58 5.98q.64 1.55 2.36 1.71l2.46.54q.88.2.86 1.1-.06 3.02.89 4.22.36.45.92.28 2.42-.79 2.3-3.4l.04-5.17q.01-.54.46-.85.28-.19.64-.28.61-.15.26-.66-.62-.89-.42-1.9.25 1.54.96 1.47l.03.59-.49.73q-.27.4-.14.87l2.59 9.24q-.03-.98-.15-.97a.94.94 0 0 0-.9 1.15q2.39 10.1 6.02 18.99c1.41 3.45 2.01 6.22-.21 9.04-1.92 2.45-4.76 5.23-6.4 8.4q-.88 1.71-1.38 4.29-1.33 6.9-.64 13.91.31 3.1 2.35 9.22.49 1.48.55 2.72.04.63-.01 2.8c-.04 1.95-.72 3.25-2.27 4.31q-5.07 3.42-10.72.46-.03-4.16.28-7.07.36-3.42 1.92-12.15.43-2.36-.29-4.2a2.42 2.42 0 0 0-2.71-1.48q-1.3.25-2.65.75-.9.33-1.44.11-.69-.28-1.15-1.07 1.27.16 1.01-1.74-.07-.49.19-.91c1.61-2.64 2.68-4.77 5.73-5.05q.59-.06.81.49.5 1.25 1.39 2.14.42.42.44-.17.16-5.39 1.63-9.33a1.47 1.44 48 0 0 .04-.94c-.8-2.84-3.49-4.16-2.74-7.37q.86-3.71.86-5.7 0-1.01-.87-1.51l-2.87-1.65a.64.63-65.7 0 1-.28-.76q.7-1.92.73-4.52.01-1.19-1.16-1.03l-1.04.14q-1.04.13-.99 1.18.08 1.86-.75 3.66-.22.46-.71.57-1.3.28-2.63-.37-.49-.24-.52-.78-.08-1.76 1.12-3.75.25-.41.19-.87l-.68-5.15a1.43 1.43 0 0 1 .7-1.43L88 48.27a1.72 1.72 0 0 0 .63-2.34l-1.96-3.4a1.7 1.7 0 0 1-.02-1.67q2.74-4.97.07-10.29-.02-.47 1.48-.27"/><path fill="#322f18" d="M74.682 39.763a4.47 3.22 99.9 0 1-2.404-4.957 4.47 3.22 99.9 0 1 3.94-3.85 4.47 3.22 99.9 0 1 2.404 4.958 4.47 3.22 99.9 0 1-3.94 3.85"/><circle cx="38.46" cy="33.56" r=".75" fill="#fff"/><path fill="#fff" d="M74.41 34.67q.67-.2 1.12.14a.62.62 0 0 1-.06 1.02q-.76.48-1.3.06a.7.69-34.1 0 1 .24-1.22"/><path fill="#404724" fill-opacity=".992" d="m103.96 34.38.48.93a.86.76 30.1 0 1 .09.27q1.65 9.53 4.14 17.99c1.25 4.25 3.76 9.41 4.86 13.43q.6 2.17-.08 5.03-.42 1.78-2.49 4.12-2.5 2.82-4.07 4.5-1.79 1.92-2.8 8.41-.42 2.69-.36 8.56.04 2.85.87 6.18.75 2.99 1.34 6.2-.85-1.9-1.57-3.65-.42-1.02-.38-1.73.07-1.05-.27-1.77-.63-1.34-.67-2.54-.22-7.1.34-11.9.54-4.54 2.4-7.5 1.33-2.11 5.37-6.52 1.72-1.87 1.94-4.86.13-1.75-1.1-4.86-2.34-5.92-4.65-12.69-.39-1.16-.41-2.39-.01-.54-.29-.99-.91-1.46-.73-3.38l-2.59-9.24q-.13-.47.14-.87z"/><path fill="#322f18" d="M43 46.23q14.65 5.06 29.71.18a1.3 1.3 0 0 1 .99.07q.87.42.52 1.33-.32.85-.36.98-1.89 6.85-6.81 10.25c-7.56 5.21-22.69 4.13-27.49-4.31q-2.74-4.82-3.57-10.57a.78.78 0 0 1 1.09-.82c1.74.77 4.25 2.32 5.92 2.89"/><path fill="#c6d875" d="M105.92 45.22q-.18 1.92.73 3.38.28.45.29.99.02 1.23.41 2.39 2.31 6.77 4.65 12.69 1.23 3.11 1.1 4.86-.22 2.99-1.94 4.86-4.04 4.41-5.37 6.52-1.86 2.96-2.4 7.5-.56 4.8-.34 11.9.04 1.2.67 2.54.34.72.27 1.77-.04.71.38 1.73.72 1.75 1.57 3.65-.03-.07-.06-.15.25 2.57.2 4.93-.05 2.84-1.6 4.41-2.5 2.55-6.86 2.9-3.97.33-5.46-2.55 5.65 2.96 10.72-.46c1.55-1.06 2.23-2.36 2.27-4.31q.05-2.17.01-2.8-.06-1.24-.55-2.72-2.04-6.12-2.35-9.22-.69-7.01.64-13.91.5-2.58 1.38-4.29c1.64-3.17 4.48-5.95 6.4-8.4 2.22-2.82 1.62-5.59.21-9.04q-3.63-8.89-6.02-18.99a.94.94 0 0 1 .9-1.15q.12-.01.15.97"/><path fill="#fff" d="M44.22 47.81a.29.29 0 0 1 .16.38l-.06.15a1.82 1.7-67.7 0 1-2.27 1.04l-.09-.03a1.82 1.7-67.7 0 1-.88-2.33l.06-.16a.29.29 0 0 1 .38-.16z"/><path fill="#d18c66" d="M55.6 56.75q4.79-.02 8.99 2.26a.26.26 0 0 1-.03.47q-4.39 1.72-8.94 1.74t-8.95-1.66a.26.26 0 0 1-.04-.47q4.18-2.32 8.97-2.34"/><path fill="#82b963" d="m23.95 83.68-1.38-1.04a.99.98-74 0 1-.4-.73l-.21-3.49q.05-.46-.66-.37-.43-.42-.17-.43-2.31-1.13-4.88-.53l-.52-.18-2.33-2.48 8.58-.77a2.77 2.77 0 0 1 3.01 2.42q.46 3.78-1.04 7.6"/><path fill="#404724" fill-opacity=".992" d="m21.13 77.62-3.1-.17-.99-.1q-.44 0-.79-.26 2.57-.6 4.88.53"/><path fill="#322f18" d="m18.03 77.45-.99-.1zm3.93.97-.35 4.14-.31-4.51q.71-.09.66.37"/><path fill="#82b963" d="M86.32 89.91q-.42-7.01-4.7-5.32.08-.22-.01-.4a.41.4 55.6 0 0-.63-.12q-2.06 1.84-2.48 4.45-.53 3.24-1.22 10.48-.23 2.34-3.27 4.41-.74-.41-1.36-1.34-.47-.71-.5-1.76-.18-6.77-.38-10.3c-.15-2.6-2.19-2.86-4.32-2.64-3.41.34-5.07 2.58-4.38 6.15q-.2.42-.2.96-.2-.1-.4-.21.47-.67.38-1.35-.1-.65-.58-.21-.93.83-.98 1.59-.27 4.41-.84 8.57-.31 2.23-.32 4.76c-.01 3.26.3 5.98-.4 8.65q-.03.1-.89 3.8-.74 3.22-5.44 4.73-1.31.92-3.29-1.23c-2.42-2.62-2.25-6.73-1.1-10.37q1.16-3.65 1.38-7.39a2.29 2.29 0 0 0-1.69-2.36c-1.26-.35-3.03-.25-4.03-1.18q-1.41-1.31-1.14-3.5.22-1.8.65-6.86.25-2.97-1.07-4.41-2.38-2.61-5.56-1.27-5.96 2.52-5.49 9.25.03.49-.16.94-.86 1.98-.86 4.03 0 .94.62 2.46.42 1.01.34 2.65-.03.51.23.95 1.05 1.74.85 4.51-.04.56.23 1.05.91 1.63.32 4.28-.53 2.33-2.07 3.71-.82.74-3.63 1.79c-2.15.8-5.4.65-7.03-1.44q-.68-.88-.75-2.55-.06-1.41-.19-3.03l.39 2.44q.09.59.66.4 4.16-1.39 4.93-6.02 1.22-7.32 1.56-14.92.04-.89 1.33-9.13.14-.9-.05-1.21-.16-.28-.32-.5a1.3 1.27 32.1 0 1-.23-.97q.72-4.33 3.85-5.55 7.89-3.1 15.41 1.11.57.31 0 .62-.39.21-.82.15a.93.93 0 0 0-.99 1.28q1.37 3.29 1.2 5.11-.17 1.91.52 4.11.49 1.59.75 4.28.06.69.58.24.96-.84 1.94-1.63.58-.47.96-2.24.78-3.64 1.82-7.67.13-.5.63-.65 1.73-.51 3.34 1.24a.37.35-48.9 0 0 .55-.05l1.68-2.27q.4-.54.92-.51 3.32.16 5.53-2.89.32-.45.87-.49 1.34-.11 1.87 2.39a1.34 1.34 0 0 0 1.52 1.04q.83-.14 1.77.18.54.18.76.69.27.6.64 1.07.37.45.39-.13.14-5.05 5.03-5.28a1.06 1.05-22 0 1 .86.36q1.23 1.37 3.08.9a2.27 2.25 67.7 0 1 2.51 1.06l1.16 2.02q.21.35.18.77z"/><path fill="#404724" fill-opacity=".992" d="M23.95 83.68q1.92 7.35.1 14.12-3.02 11.22-4.09 17.04.13 1.62.19 3.03.07 1.67.75 2.55c1.63 2.09 4.88 2.24 7.03 1.44q2.81-1.05 3.63-1.79 1.54-1.38 2.07-3.71.59-2.65-.32-4.28-.27-.49-.23-1.05.2-2.77-.85-4.51-.26-.44-.23-.95.08-1.64-.34-2.65-.62-1.52-.62-2.46 0-2.05.86-4.03.19-.45.16-.94-.47-6.73 5.49-9.25 3.18-1.34 5.56 1.27 1.32 1.44 1.07 4.41-.43 5.06-.65 6.86-.27 2.19 1.14 3.5c1 .93 2.77.83 4.03 1.18a2.29 2.29 0 0 1 1.69 2.36q-.22 3.74-1.38 7.39c-1.15 3.64-1.32 7.75 1.1 10.37q1.98 2.15 3.29 1.23 2.78.9 4.31-.89 1.74-2.03 2.59-5.09.51-1.84.64-5.6.32-9.55 1.53-18.96.2.11.4.21-.76 9.83-1.23 19.71c-.09 1.88-.55 4.64-1.01 6.21q-1.66 5.63-6.66 5.72c-6.17.1-7.66-6.37-6.28-11.17q1.27-4.46 1.93-8.33a2.29 2.28-85.5 0 0-2.27-2.67c-3.75.04-4.96-2.68-4.43-6.29q.31-2.09.54-6.4c.06-1.14-.05-2.11-.83-2.96q-2.6-2.84-5.36-1.23-2.33 1.36-3.4 3.5c-3.02 6.12-1.66 11.87-.02 19.39.97 4.48 1.42 10.17-3.68 11.9-4.57 1.54-9.96 2.06-10.65-4.13q-.45-3.98 1.11-9.66 2.26-8.28 3.38-15.58.86-5.66-2.4-9.93l.35-4.14.21 3.49a.99.98-74 0 0 .4.73z"/><path fill="#c6d875" d="M81.62 84.59q-1.5 1.32-1.66 2.15c-.64 3.19-.63 7.43-1.32 11.1q-.51 2.72-.95 3.59-1.53 2.95-3.68 1.98 3.04-2.07 3.27-4.41.69-7.24 1.22-10.48.42-2.61 2.48-4.45a.41.4 55.6 0 1 .63.12q.09.18.01.4"/><path fill="#404724" fill-opacity=".992" d="M86.32 89.91q-.88 2.84-.2 4.52.46.79 1.15 1.07.54.22 1.44-.11 1.35-.5 2.65-.75a2.42 2.42 0 0 1 2.71 1.48q.72 1.84.29 4.2-1.56 8.73-1.92 12.15-.31 2.91-.28 7.07 1.49 2.88 5.46 2.55 4.36-.35 6.86-2.9 1.55-1.57 1.6-4.41.05-2.36-.2-4.93 2.14 4.6.63 8.22c-1.97 4.73-7.77 5.69-12.44 4.71q-1.4-.3-2.38-2.16-1.02-1.94-.44-5.67 2.24-14.47 2.36-15.14.32-1.9-.38-3.88-.17-.48-.68-.51-.94-.07-3.26.58-1.86.53-2.57.22-1.69-.73-1.72-2.43-.04-2.68-.53-7.48a1.54 1.53 61.6 0 0-2.72-.81q-.68.84-1.04 2.54-.66 3.1-1.19 9.91-.17 2.14-1.02 4.03-.8 1.76-2.78 2.33l-1.5.06q-3.32-.81-3.13-4.14.39-6.77.33-7.63c-.25-3.62-2.93-5.33-6.24-3.44q-1.38.8-2.11 4.36c-.69-3.57.97-5.81 4.38-6.15 2.13-.22 4.17.04 4.32 2.64q.2 3.53.38 10.3.03 1.05.5 1.76.62.93 1.36 1.34 2.15.97 3.68-1.98.44-.87.95-3.59c.69-3.67.68-7.91 1.32-11.1q.16-.83 1.66-2.15 4.28-1.69 4.7 5.32m-.93-3q0 .04.15.29.18.3.27-.04.06-.23-.03-.38-.49-.71-.39.13"/><path fill="#c6d875" d="M62.47 94.27q-1.21 9.41-1.53 18.96-.13 3.76-.64 5.6-.85 3.06-2.59 5.09-1.53 1.79-4.31.89 4.7-1.51 5.44-4.73.86-3.7.89-3.8c.7-2.67.39-5.39.4-8.65q.01-2.53.32-4.76.57-4.16.84-8.57.05-.76.98-1.59.48-.44.58.21.09.68-.38 1.35"/><path fill="#322f18" d="M75.72 104.31q-.6.16-1.5.06z"/></svg>